<svg id="svg" version="1.1" xmlns="http://www.w3.org/2000/svg" xmlns:xlink="http://www.w3.org/1999/xlink" width="400" height="400" viewBox="0, 0, 400,400"><g id="svgg"><path id="path0" d="M116.600 102.257 C 105.943 104.513,97.728 112.224,95.432 122.125 C 94.341 126.829,94.499 238.158,95.603 242.538 C 97.725 250.962,104.606 258.423,112.493 260.855 C 117.278 262.330,118.628 262.400,142.307 262.400 L 165.615 262.400 165.507 271.700 L 165.400 281.000 151.800 281.200 C 136.850 281.420,137.081 281.382,134.494 284.029 C 130.314 288.304,131.942 295.634,137.600 298.012 C 139.903 298.980,260.786 298.890,262.842 297.919 C 268.279 295.351,269.586 288.060,265.361 283.863 C 262.878 281.396,263.021 281.418,248.200 281.200 L 234.600 281.000 234.600 271.800 L 234.600 262.600 258.800 262.370 C 274.182 262.224,283.583 261.983,284.600 261.708 C 289.172 260.470,291.508 259.392,294.681 257.056 C 299.358 253.613,302.983 248.248,304.450 242.600 C 305.495 238.576,305.646 126.646,304.612 122.189 C 302.560 113.343,295.872 106.199,286.555 102.903 C 284.714 102.252,119.588 101.624,116.600 102.257 M283.215 121.800 C 284.141 122.460,285.327 123.770,285.849 124.711 L 286.800 126.421 286.800 181.962 C 286.800 229.926,286.720 237.694,286.212 238.910 C 285.356 240.958,282.697 243.070,280.336 243.576 C 277.595 244.164,122.429 244.169,119.689 243.582 C 117.307 243.071,115.060 241.299,113.992 239.089 C 112.713 236.441,112.753 127.743,114.034 125.017 C 114.911 123.152,116.926 121.338,118.729 120.790 C 119.318 120.611,156.190 120.495,200.666 120.532 L 281.531 120.600 283.215 121.800 M123.067 130.667 C 122.297 131.436,122.787 233.297,123.560 233.095 C 124.187 232.931,148.189 216.903,180.600 195.005 C 184.120 192.626,191.230 187.823,196.400 184.329 C 201.570 180.836,210.480 174.834,216.200 170.991 C 221.920 167.147,226.900 163.777,227.266 163.502 C 227.632 163.226,238.652 155.800,251.754 147.000 C 264.857 138.200,275.582 130.865,275.589 130.700 C 275.603 130.329,123.437 130.296,123.067 130.667 " stroke="none" fill="#fafbfb" fill-rule="evenodd"></path><path id="path1" d="M178.300 0.275 C 176.375 0.361,174.800 0.604,174.800 0.816 C 174.800 1.027,173.461 1.200,171.824 1.200 C 170.187 1.200,168.736 1.380,168.600 1.600 C 168.464 1.820,167.373 2.000,166.176 2.000 C 164.979 2.000,164.000 2.180,164.000 2.400 C 164.000 2.620,163.111 2.800,162.024 2.800 C 160.937 2.800,159.936 2.980,159.800 3.200 C 159.664 3.420,158.753 3.600,157.776 3.600 C 156.799 3.600,156.000 3.780,156.000 4.000 C 156.000 4.220,155.280 4.400,154.400 4.400 C 153.520 4.400,152.800 4.580,152.800 4.800 C 152.800 5.020,152.080 5.200,151.200 5.200 C 150.320 5.200,149.600 5.380,149.600 5.600 C 149.600 5.820,148.880 6.000,148.000 6.000 C 147.120 6.000,146.400 6.180,146.400 6.400 C 146.400 6.620,145.860 6.800,145.200 6.800 C 144.540 6.800,144.000 6.980,144.000 7.200 C 144.000 7.420,143.370 7.600,142.600 7.600 C 141.830 7.600,141.200 7.759,141.200 7.954 C 141.200 8.149,140.213 8.431,139.006 8.582 C 137.800 8.733,136.709 9.023,136.583 9.228 C 136.456 9.433,135.924 9.600,135.400 9.600 C 134.876 9.600,134.336 9.780,134.200 10.000 C 134.064 10.220,133.601 10.400,133.171 10.400 C 132.741 10.400,132.032 10.580,131.595 10.800 C 131.158 11.020,130.442 11.380,130.005 11.600 C 129.568 11.820,128.848 12.000,128.405 12.000 C 127.962 12.000,127.600 12.180,127.600 12.400 C 127.600 12.620,127.150 12.800,126.600 12.800 C 126.050 12.800,125.600 12.980,125.600 13.200 C 125.600 13.420,125.240 13.600,124.800 13.600 C 124.360 13.600,124.000 13.780,124.000 14.000 C 124.000 14.220,123.460 14.400,122.800 14.400 C 122.140 14.400,121.600 14.580,121.600 14.800 C 121.600 15.020,121.240 15.200,120.800 15.200 C 120.360 15.200,120.000 15.380,120.000 15.600 C 120.000 15.820,119.640 16.000,119.200 16.000 C 118.760 16.000,118.400 16.180,118.400 16.400 C 118.400 16.620,117.961 16.800,117.424 16.800 C 116.887 16.800,116.336 16.980,116.200 17.200 C 116.064 17.420,115.603 17.600,115.176 17.600 C 114.749 17.600,114.399 17.735,114.397 17.900 C 114.393 18.259,112.456 19.200,111.720 19.200 C 111.434 19.200,111.200 19.380,111.200 19.600 C 111.200 19.820,110.829 20.000,110.376 20.000 C 109.923 20.000,109.664 20.180,109.800 20.400 C 109.936 20.620,109.677 20.800,109.224 20.800 C 108.771 20.800,108.400 20.980,108.400 21.200 C 108.400 21.420,108.040 21.600,107.600 21.600 C 107.160 21.600,106.800 21.780,106.800 22.000 C 106.800 22.220,106.440 22.400,106.000 22.400 C 105.560 22.400,105.200 22.580,105.200 22.800 C 105.200 23.020,104.880 23.200,104.488 23.200 C 104.097 23.200,103.517 23.560,103.200 24.000 C 102.883 24.440,102.303 24.800,101.912 24.800 C 101.520 24.800,101.200 24.980,101.200 25.200 C 101.200 25.420,101.065 25.561,100.900 25.513 C 100.430 25.377,97.200 26.916,97.200 27.277 C 97.200 27.455,96.840 27.600,96.400 27.600 C 95.960 27.600,95.600 27.758,95.600 27.951 C 95.600 28.145,95.060 28.527,94.400 28.800 C 93.740 29.073,93.200 29.455,93.200 29.649 C 93.200 29.842,92.970 30.000,92.688 30.000 C 92.407 30.000,91.917 30.360,91.600 30.800 C 91.283 31.240,90.703 31.600,90.312 31.600 C 89.920 31.600,89.600 31.768,89.600 31.973 C 89.600 32.178,89.234 32.462,88.787 32.604 C 88.340 32.746,87.538 33.298,87.005 33.831 C 86.472 34.364,85.798 34.800,85.506 34.800 C 85.215 34.800,84.717 35.160,84.400 35.600 C 84.083 36.040,83.575 36.400,83.272 36.400 C 82.969 36.400,82.217 36.940,81.600 37.600 C 80.983 38.260,80.263 38.800,80.000 38.800 C 79.737 38.800,79.017 39.340,78.400 40.000 C 77.783 40.660,76.981 41.200,76.616 41.200 C 76.251 41.200,76.045 41.349,76.158 41.531 C 76.270 41.714,75.633 42.299,74.742 42.831 C 73.851 43.364,72.334 44.565,71.371 45.500 C 70.409 46.435,69.446 47.200,69.231 47.200 C 69.017 47.200,66.851 49.180,64.418 51.600 C 61.985 54.020,59.901 56.000,59.787 56.000 C 59.516 56.000,56.000 59.516,56.000 59.787 C 56.000 59.901,54.020 61.985,51.600 64.418 C 49.180 66.851,47.200 69.017,47.200 69.231 C 47.200 69.446,46.435 70.409,45.500 71.371 C 44.565 72.334,43.364 73.851,42.831 74.742 C 42.299 75.633,41.714 76.270,41.531 76.158 C 41.349 76.045,41.200 76.251,41.200 76.616 C 41.200 76.981,40.660 77.783,40.000 78.400 C 39.340 79.017,38.800 79.737,38.800 80.000 C 38.800 80.263,38.260 80.983,37.600 81.600 C 36.940 82.217,36.400 82.969,36.400 83.272 C 36.400 83.575,36.040 84.083,35.600 84.400 C 35.160 84.717,34.800 85.215,34.800 85.506 C 34.800 85.798,34.364 86.472,33.831 87.005 C 33.298 87.538,32.746 88.340,32.604 88.787 C 32.462 89.234,32.178 89.600,31.973 89.600 C 31.768 89.600,31.600 89.920,31.600 90.312 C 31.600 90.703,31.240 91.283,30.800 91.600 C 30.360 91.917,30.000 92.407,30.000 92.688 C 30.000 92.970,29.842 93.200,29.649 93.200 C 29.455 93.200,29.073 93.740,28.800 94.400 C 28.527 95.060,28.145 95.600,27.951 95.600 C 27.758 95.600,27.600 95.960,27.600 96.400 C 27.600 96.840,27.455 97.200,27.277 97.200 C 26.916 97.200,25.377 100.430,25.513 100.900 C 25.561 101.065,25.420 101.200,25.200 101.200 C 24.980 101.200,24.800 101.520,24.800 101.912 C 24.800 102.303,24.440 102.883,24.000 103.200 C 23.560 103.517,23.200 104.097,23.200 104.488 C 23.200 104.880,23.020 105.200,22.800 105.200 C 22.580 105.200,22.400 105.560,22.400 106.000 C 22.400 106.440,22.220 106.800,22.000 106.800 C 21.780 106.800,21.600 107.160,21.600 107.600 C 21.600 108.040,21.420 108.400,21.200 108.400 C 20.980 108.400,20.800 108.771,20.800 109.224 C 20.800 109.677,20.620 109.936,20.400 109.800 C 20.180 109.664,20.000 109.923,20.000 110.376 C 20.000 110.829,19.820 111.200,19.600 111.200 C 19.380 111.200,19.200 111.560,19.200 112.000 C 19.200 112.440,19.020 112.800,18.800 112.800 C 18.580 112.800,18.400 113.160,18.400 113.600 C 18.400 114.040,18.220 114.400,18.000 114.400 C 17.780 114.400,17.600 114.749,17.600 115.176 C 17.600 115.603,17.420 116.064,17.200 116.200 C 16.980 116.336,16.800 116.887,16.800 117.424 C 16.800 117.961,16.620 118.400,16.400 118.400 C 16.180 118.400,16.000 118.760,16.000 119.200 C 16.000 119.640,15.820 120.000,15.600 120.000 C 15.380 120.000,15.200 120.360,15.200 120.800 C 15.200 121.240,15.020 121.600,14.800 121.600 C 14.580 121.600,14.400 122.140,14.400 122.800 C 14.400 123.460,14.220 124.000,14.000 124.000 C 13.780 124.000,13.600 124.360,13.600 124.800 C 13.600 125.240,13.420 125.600,13.200 125.600 C 12.980 125.600,12.800 126.050,12.800 126.600 C 12.800 127.150,12.620 127.600,12.400 127.600 C 12.180 127.600,12.000 127.962,12.000 128.405 C 12.000 128.848,11.792 129.613,11.538 130.105 C 10.544 132.026,10.400 132.416,10.400 133.171 C 10.400 133.601,10.220 134.064,10.000 134.200 C 9.780 134.336,9.600 134.876,9.600 135.400 C 9.600 135.924,9.433 136.456,9.228 136.583 C 9.023 136.709,8.733 137.800,8.582 139.006 C 8.431 140.213,8.149 141.200,7.954 141.200 C 7.759 141.200,7.600 141.830,7.600 142.600 C 7.600 143.370,7.420 144.000,7.200 144.000 C 6.980 144.000,6.800 144.540,6.800 145.200 C 6.800 145.860,6.620 146.400,6.400 146.400 C 6.180 146.400,6.000 147.120,6.000 148.000 C 6.000 148.880,5.820 149.600,5.600 149.600 C 5.380 149.600,5.200 150.320,5.200 151.200 C 5.200 152.080,5.020 152.800,4.800 152.800 C 4.580 152.800,4.400 153.520,4.400 154.400 C 4.400 155.280,4.220 156.000,4.000 156.000 C 3.780 156.000,3.600 156.799,3.600 157.776 C 3.600 158.753,3.420 159.664,3.200 159.800 C 2.980 159.936,2.800 160.937,2.800 162.024 C 2.800 163.111,2.620 164.000,2.400 164.000 C 2.180 164.000,2.000 164.979,2.000 166.176 C 2.000 167.373,1.820 168.464,1.600 168.600 C 1.380 168.736,1.200 170.172,1.200 171.790 C 1.200 173.789,1.040 174.787,0.700 174.900 C -0.032 175.144,-0.032 224.856,0.700 225.100 C 1.040 225.213,1.200 226.211,1.200 228.210 C 1.200 229.828,1.380 231.264,1.600 231.400 C 1.820 231.536,2.000 232.627,2.000 233.824 C 2.000 235.021,2.180 236.000,2.400 236.000 C 2.620 236.000,2.800 236.889,2.800 237.976 C 2.800 239.063,2.980 240.064,3.200 240.200 C 3.420 240.336,3.600 241.247,3.600 242.224 C 3.600 243.201,3.780 244.000,4.000 244.000 C 4.220 244.000,4.400 244.720,4.400 245.600 C 4.400 246.480,4.580 247.200,4.800 247.200 C 5.020 247.200,5.200 247.920,5.200 248.800 C 5.200 249.680,5.380 250.400,5.600 250.400 C 5.820 250.400,6.000 251.120,6.000 252.000 C 6.000 252.880,6.180 253.600,6.400 253.600 C 6.620 253.600,6.800 254.140,6.800 254.800 C 6.800 255.460,6.980 256.000,7.200 256.000 C 7.420 256.000,7.600 256.630,7.600 257.400 C 7.600 258.170,7.759 258.800,7.954 258.800 C 8.149 258.800,8.431 259.787,8.582 260.994 C 8.733 262.200,9.023 263.291,9.228 263.417 C 9.433 263.544,9.600 264.076,9.600 264.600 C 9.600 265.124,9.780 265.664,10.000 265.800 C 10.220 265.936,10.400 266.399,10.400 266.829 C 10.400 267.259,10.608 268.013,10.862 268.505 C 11.858 270.431,12.000 270.817,12.000 271.595 C 12.000 272.038,12.180 272.400,12.400 272.400 C 12.620 272.400,12.800 272.850,12.800 273.400 C 12.800 273.950,12.980 274.400,13.200 274.400 C 13.420 274.400,13.600 274.760,13.600 275.200 C 13.600 275.640,13.780 276.000,14.000 276.000 C 14.220 276.000,14.400 276.540,14.400 277.200 C 14.400 277.860,14.580 278.400,14.800 278.400 C 15.020 278.400,15.200 278.760,15.200 279.200 C 15.200 279.640,15.380 280.000,15.600 280.000 C 15.820 280.000,16.000 280.360,16.000 280.800 C 16.000 281.240,16.180 281.600,16.400 281.600 C 16.620 281.600,16.800 282.039,16.800 282.576 C 16.800 283.113,16.980 283.664,17.200 283.800 C 17.420 283.936,17.600 284.397,17.600 284.824 C 17.600 285.251,17.780 285.600,18.000 285.600 C 18.220 285.600,18.400 285.960,18.400 286.400 C 18.400 286.840,18.580 287.200,18.800 287.200 C 19.020 287.200,19.200 287.560,19.200 288.000 C 19.200 288.440,19.380 288.800,19.600 288.800 C 19.820 288.800,20.000 289.160,20.000 289.600 C 20.000 290.040,20.180 290.400,20.400 290.400 C 20.620 290.400,20.800 290.670,20.800 291.000 C 20.800 291.330,20.980 291.600,21.200 291.600 C 21.420 291.600,21.600 291.960,21.600 292.400 C 21.600 292.840,21.780 293.200,22.000 293.200 C 22.220 293.200,22.400 293.560,22.400 294.000 C 22.400 294.440,22.580 294.800,22.800 294.800 C 23.020 294.800,23.200 295.120,23.200 295.512 C 23.200 295.903,23.560 296.483,24.000 296.800 C 24.440 297.117,24.800 297.613,24.800 297.902 C 24.800 298.604,26.809 302.565,27.251 302.733 C 27.443 302.807,27.600 303.212,27.600 303.633 C 27.600 304.055,27.780 304.400,28.000 304.400 C 28.220 304.400,28.400 304.636,28.400 304.925 C 28.400 305.213,28.760 305.836,29.200 306.308 C 29.640 306.780,30.000 307.353,30.000 307.580 C 30.000 307.807,30.360 308.218,30.800 308.493 C 31.240 308.768,31.600 309.309,31.600 309.696 C 31.600 310.083,31.768 310.400,31.973 310.400 C 32.178 310.400,32.462 310.766,32.604 311.213 C 32.746 311.660,33.298 312.462,33.831 312.995 C 34.364 313.528,34.800 314.202,34.800 314.494 C 34.800 314.785,35.160 315.283,35.600 315.600 C 36.040 315.917,36.400 316.425,36.400 316.728 C 36.400 317.031,36.940 317.783,37.600 318.400 C 38.260 319.017,38.800 319.737,38.800 320.000 C 38.800 320.263,39.340 320.983,40.000 321.600 C 40.660 322.217,41.200 322.933,41.200 323.191 C 41.200 323.450,41.740 324.202,42.400 324.862 C 43.060 325.522,43.600 326.223,43.600 326.420 C 43.600 326.618,44.410 327.589,45.400 328.579 C 46.390 329.569,47.200 330.554,47.200 330.769 C 47.200 330.983,49.180 333.149,51.600 335.582 C 54.020 338.015,56.000 340.099,56.000 340.213 C 56.000 340.484,59.516 344.000,59.787 344.000 C 59.901 344.000,61.985 345.980,64.418 348.400 C 66.851 350.820,69.017 352.800,69.231 352.800 C 69.446 352.800,70.431 353.610,71.421 354.600 C 72.411 355.590,73.395 356.400,73.607 356.400 C 73.819 356.400,74.509 356.940,75.140 357.600 C 75.771 358.260,76.510 358.800,76.783 358.800 C 77.056 358.800,77.783 359.340,78.400 360.000 C 79.017 360.660,79.737 361.200,80.000 361.200 C 80.263 361.200,80.983 361.740,81.600 362.400 C 82.217 363.060,82.969 363.600,83.272 363.600 C 83.575 363.600,84.083 363.960,84.400 364.400 C 84.717 364.840,85.215 365.200,85.506 365.200 C 85.798 365.200,86.472 365.636,87.005 366.169 C 87.538 366.702,88.340 367.254,88.787 367.396 C 89.234 367.538,89.600 367.822,89.600 368.027 C 89.600 368.232,89.920 368.400,90.312 368.400 C 90.703 368.400,91.283 368.760,91.600 369.200 C 91.917 369.640,92.324 370.000,92.505 370.000 C 92.686 370.000,93.220 370.360,93.692 370.800 C 94.164 371.240,94.787 371.600,95.075 371.600 C 95.364 371.600,95.600 371.780,95.600 372.000 C 95.600 372.220,95.960 372.400,96.400 372.400 C 96.840 372.400,97.200 372.542,97.200 372.716 C 97.200 373.113,101.277 375.200,102.052 375.200 C 102.366 375.200,102.883 375.560,103.200 376.000 C 103.517 376.440,104.097 376.800,104.488 376.800 C 104.880 376.800,105.200 376.980,105.200 377.200 C 105.200 377.420,105.560 377.600,106.000 377.600 C 106.440 377.600,106.800 377.780,106.800 378.000 C 106.800 378.220,107.160 378.400,107.600 378.400 C 108.040 378.400,108.400 378.580,108.400 378.800 C 108.400 379.020,108.670 379.200,109.000 379.200 C 109.330 379.200,109.600 379.380,109.600 379.600 C 109.600 379.820,109.960 380.000,110.400 380.000 C 110.840 380.000,111.200 380.180,111.200 380.400 C 111.200 380.620,111.560 380.800,112.000 380.800 C 112.440 380.800,112.800 380.980,112.800 381.200 C 112.800 381.420,113.160 381.600,113.600 381.600 C 114.040 381.600,114.400 381.780,114.400 382.000 C 114.400 382.220,114.749 382.400,115.176 382.400 C 115.603 382.400,116.064 382.580,116.200 382.800 C 116.336 383.020,116.887 383.200,117.424 383.200 C 117.961 383.200,118.400 383.380,118.400 383.600 C 118.400 383.820,118.760 384.000,119.200 384.000 C 119.640 384.000,120.000 384.180,120.000 384.400 C 120.000 384.620,120.360 384.800,120.800 384.800 C 121.240 384.800,121.600 384.980,121.600 385.200 C 121.600 385.420,122.140 385.600,122.800 385.600 C 123.460 385.600,124.000 385.780,124.000 386.000 C 124.000 386.220,124.360 386.400,124.800 386.400 C 125.240 386.400,125.600 386.580,125.600 386.800 C 125.600 387.020,126.050 387.200,126.600 387.200 C 127.150 387.200,127.600 387.380,127.600 387.600 C 127.600 387.820,127.962 388.000,128.405 388.000 C 128.848 388.000,129.568 388.180,130.005 388.400 C 130.442 388.620,131.158 388.980,131.595 389.200 C 132.032 389.420,132.741 389.600,133.171 389.600 C 133.601 389.600,134.064 389.780,134.200 390.000 C 134.336 390.220,134.876 390.400,135.400 390.400 C 135.924 390.400,136.456 390.567,136.583 390.772 C 136.709 390.977,137.800 391.267,139.006 391.418 C 140.213 391.569,141.200 391.851,141.200 392.046 C 141.200 392.241,141.830 392.400,142.600 392.400 C 143.370 392.400,144.000 392.580,144.000 392.800 C 144.000 393.020,144.540 393.200,145.200 393.200 C 145.860 393.200,146.400 393.380,146.400 393.600 C 146.400 393.820,147.120 394.000,148.000 394.000 C 148.880 394.000,149.600 394.180,149.600 394.400 C 149.600 394.620,150.320 394.800,151.200 394.800 C 152.080 394.800,152.800 394.980,152.800 395.200 C 152.800 395.420,153.520 395.600,154.400 395.600 C 155.280 395.600,156.000 395.780,156.000 396.000 C 156.000 396.220,156.799 396.400,157.776 396.400 C 158.753 396.400,159.664 396.580,159.800 396.800 C 159.936 397.020,160.937 397.200,162.024 397.200 C 163.111 397.200,164.000 397.380,164.000 397.600 C 164.000 397.820,164.979 398.000,166.176 398.000 C 167.373 398.000,168.464 398.180,168.600 398.400 C 168.736 398.620,170.172 398.800,171.790 398.800 C 173.789 398.800,174.787 398.960,174.900 399.300 C 175.144 400.032,224.856 400.032,225.100 399.300 C 225.213 398.960,226.211 398.800,228.210 398.800 C 229.828 398.800,231.264 398.620,231.400 398.400 C 231.536 398.180,232.627 398.000,233.824 398.000 C 235.021 398.000,236.000 397.820,236.000 397.600 C 236.000 397.380,236.889 397.200,237.976 397.200 C 239.063 397.200,240.064 397.020,240.200 396.800 C 240.336 396.580,241.247 396.400,242.224 396.400 C 243.201 396.400,244.000 396.220,244.000 396.000 C 244.000 395.780,244.720 395.600,245.600 395.600 C 246.480 395.600,247.200 395.420,247.200 395.200 C 247.200 394.980,247.920 394.800,248.800 394.800 C 249.680 394.800,250.400 394.620,250.400 394.400 C 250.400 394.180,251.120 394.000,252.000 394.000 C 252.880 394.000,253.600 393.820,253.600 393.600 C 253.600 393.380,254.140 393.200,254.800 393.200 C 255.460 393.200,256.000 393.020,256.000 392.800 C 256.000 392.580,256.630 392.400,257.400 392.400 C 258.170 392.400,258.800 392.241,258.800 392.046 C 258.800 391.851,259.787 391.569,260.994 391.418 C 262.200 391.267,263.291 390.977,263.417 390.772 C 263.544 390.567,264.076 390.400,264.600 390.400 C 265.124 390.400,265.664 390.220,265.800 390.000 C 265.936 389.780,266.399 389.600,266.829 389.600 C 267.259 389.600,267.923 389.441,268.305 389.247 C 268.687 389.052,269.540 388.671,270.200 388.400 C 270.860 388.129,271.713 387.748,272.095 387.553 C 272.477 387.359,273.152 387.200,273.595 387.200 C 274.038 387.200,274.400 387.020,274.400 386.800 C 274.400 386.580,274.760 386.400,275.200 386.400 C 275.640 386.400,276.000 386.220,276.000 386.000 C 276.000 385.780,276.540 385.600,277.200 385.600 C 277.860 385.600,278.400 385.420,278.400 385.200 C 278.400 384.980,278.760 384.800,279.200 384.800 C 279.640 384.800,280.000 384.620,280.000 384.400 C 280.000 384.180,280.360 384.000,280.800 384.000 C 281.240 384.000,281.600 383.820,281.600 383.600 C 281.600 383.380,282.039 383.200,282.576 383.200 C 283.113 383.200,283.664 383.020,283.800 382.800 C 283.936 382.580,284.397 382.400,284.824 382.400 C 285.251 382.400,285.600 382.220,285.600 382.000 C 285.600 381.780,285.960 381.600,286.400 381.600 C 286.840 381.600,287.200 381.420,287.200 381.200 C 287.200 380.980,287.560 380.800,288.000 380.800 C 288.440 380.800,288.800 380.620,288.800 380.400 C 288.800 380.180,289.160 380.000,289.600 380.000 C 290.040 380.000,290.400 379.820,290.400 379.600 C 290.400 379.380,290.670 379.200,291.000 379.200 C 291.330 379.200,291.600 379.020,291.600 378.800 C 291.600 378.580,291.960 378.400,292.400 378.400 C 292.840 378.400,293.200 378.220,293.200 378.000 C 293.200 377.780,293.560 377.600,294.000 377.600 C 294.440 377.600,294.800 377.420,294.800 377.200 C 294.800 376.980,295.120 376.800,295.512 376.800 C 295.903 376.800,296.483 376.440,296.800 376.000 C 297.117 375.560,297.634 375.200,297.948 375.200 C 298.723 375.200,302.800 373.113,302.800 372.716 C 302.800 372.542,303.160 372.400,303.600 372.400 C 304.040 372.400,304.400 372.220,304.400 372.000 C 304.400 371.780,304.636 371.600,304.925 371.600 C 305.213 371.600,305.836 371.240,306.308 370.800 C 306.780 370.360,307.353 370.000,307.580 370.000 C 307.807 370.000,308.218 369.640,308.493 369.200 C 308.768 368.760,309.309 368.400,309.696 368.400 C 310.083 368.400,310.400 368.232,310.400 368.027 C 310.400 367.822,310.766 367.538,311.213 367.396 C 311.660 367.254,312.462 366.702,312.995 366.169 C 313.528 365.636,314.202 365.200,314.494 365.200 C 314.785 365.200,315.283 364.840,315.600 364.400 C 315.917 363.960,316.425 363.600,316.728 363.600 C 317.031 363.600,317.783 363.060,318.400 362.400 C 319.017 361.740,319.737 361.200,320.000 361.200 C 320.263 361.200,320.983 360.660,321.600 360.000 C 322.217 359.340,322.996 358.800,323.331 358.800 C 323.667 358.800,324.273 358.379,324.679 357.864 C 325.084 357.348,325.858 356.690,326.400 356.400 C 326.942 356.110,328.049 355.182,328.861 354.336 C 329.673 353.491,330.522 352.800,330.748 352.800 C 330.974 352.800,333.149 350.820,335.582 348.400 C 338.015 345.980,340.099 344.000,340.213 344.000 C 340.484 344.000,344.000 340.484,344.000 340.213 C 344.000 340.099,345.980 338.015,348.400 335.582 C 350.820 333.149,352.800 330.974,352.800 330.748 C 352.800 330.522,353.491 329.673,354.336 328.861 C 355.182 328.049,356.110 326.942,356.400 326.400 C 356.690 325.858,357.348 325.084,357.864 324.679 C 358.379 324.273,358.800 323.667,358.800 323.331 C 358.800 322.996,359.340 322.217,360.000 321.600 C 360.660 320.983,361.200 320.263,361.200 320.000 C 361.200 319.737,361.740 319.017,362.400 318.400 C 363.060 317.783,363.600 317.031,363.600 316.728 C 363.600 316.425,363.960 315.917,364.400 315.600 C 364.840 315.283,365.200 314.785,365.200 314.494 C 365.200 314.202,365.636 313.528,366.169 312.995 C 366.702 312.462,367.254 311.660,367.396 311.213 C 367.538 310.766,367.822 310.400,368.027 310.400 C 368.232 310.400,368.400 310.083,368.400 309.696 C 368.400 309.309,368.760 308.768,369.200 308.493 C 369.640 308.218,370.000 307.807,370.000 307.580 C 370.000 307.353,370.360 306.780,370.800 306.308 C 371.240 305.836,371.600 305.213,371.600 304.925 C 371.600 304.636,371.780 304.400,372.000 304.400 C 372.220 304.400,372.400 304.040,372.400 303.600 C 372.400 303.160,372.542 302.800,372.716 302.800 C 373.113 302.800,375.200 298.723,375.200 297.948 C 375.200 297.634,375.560 297.117,376.000 296.800 C 376.440 296.483,376.800 295.903,376.800 295.512 C 376.800 295.120,376.980 294.800,377.200 294.800 C 377.420 294.800,377.600 294.440,377.600 294.000 C 377.600 293.560,377.780 293.200,378.000 293.200 C 378.220 293.200,378.400 292.840,378.400 292.400 C 378.400 291.960,378.580 291.600,378.800 291.600 C 379.020 291.600,379.200 291.330,379.200 291.000 C 379.200 290.670,379.380 290.400,379.600 290.400 C 379.820 290.400,380.000 290.040,380.000 289.600 C 380.000 289.160,380.180 288.800,380.400 288.800 C 380.620 288.800,380.800 288.440,380.800 288.000 C 380.800 287.560,380.980 287.200,381.200 287.200 C 381.420 287.200,381.600 286.840,381.600 286.400 C 381.600 285.960,381.780 285.600,382.000 285.600 C 382.220 285.600,382.400 285.251,382.400 284.824 C 382.400 284.397,382.580 283.936,382.800 283.800 C 383.020 283.664,383.200 283.113,383.200 282.576 C 383.200 282.039,383.380 281.600,383.600 281.600 C 383.820 281.600,384.000 281.240,384.000 280.800 C 384.000 280.360,384.180 280.000,384.400 280.000 C 384.620 280.000,384.800 279.640,384.800 279.200 C 384.800 278.760,384.980 278.400,385.200 278.400 C 385.420 278.400,385.600 277.860,385.600 277.200 C 385.600 276.540,385.780 276.000,386.000 276.000 C 386.220 276.000,386.400 275.640,386.400 275.200 C 386.400 274.760,386.580 274.400,386.800 274.400 C 387.020 274.400,387.200 273.950,387.200 273.400 C 387.200 272.850,387.380 272.400,387.600 272.400 C 387.820 272.400,388.000 272.038,388.000 271.595 C 388.000 271.152,388.180 270.432,388.400 269.995 C 388.620 269.558,388.980 268.842,389.200 268.405 C 389.420 267.968,389.600 267.259,389.600 266.829 C 389.600 266.399,389.780 265.936,390.000 265.800 C 390.220 265.664,390.400 265.124,390.400 264.600 C 390.400 264.076,390.567 263.544,390.772 263.417 C 390.977 263.291,391.267 262.200,391.418 260.994 C 391.569 259.787,391.851 258.800,392.046 258.800 C 392.241 258.800,392.400 258.170,392.400 257.400 C 392.400 256.630,392.580 256.000,392.800 256.000 C 393.020 256.000,393.200 255.460,393.200 254.800 C 393.200 254.140,393.380 253.600,393.600 253.600 C 393.820 253.600,394.000 252.880,394.000 252.000 C 394.000 251.120,394.180 250.400,394.400 250.400 C 394.620 250.400,394.800 249.680,394.800 248.800 C 394.800 247.920,394.980 247.200,395.200 247.200 C 395.420 247.200,395.600 246.480,395.600 245.600 C 395.600 244.720,395.780 244.000,396.000 244.000 C 396.220 244.000,396.400 243.201,396.400 242.224 C 396.400 241.247,396.580 240.336,396.800 240.200 C 397.020 240.064,397.200 239.063,397.200 237.976 C 397.200 236.889,397.380 236.000,397.600 236.000 C 397.820 236.000,398.000 235.021,398.000 233.824 C 398.000 232.627,398.180 231.536,398.400 231.400 C 398.620 231.264,398.800 229.828,398.800 228.210 C 398.800 226.211,398.960 225.213,399.300 225.100 C 399.693 224.969,399.800 219.591,399.800 200.000 C 399.800 180.409,399.693 175.031,399.300 174.900 C 398.960 174.787,398.800 173.789,398.800 171.790 C 398.800 170.172,398.620 168.736,398.400 168.600 C 398.180 168.464,398.000 167.373,398.000 166.176 C 398.000 164.979,397.820 164.000,397.600 164.000 C 397.380 164.000,397.200 163.111,397.200 162.024 C 397.200 160.937,397.020 159.936,396.800 159.800 C 396.580 159.664,396.400 158.753,396.400 157.776 C 396.400 156.799,396.220 156.000,396.000 156.000 C 395.780 156.000,395.600 155.280,395.600 154.400 C 395.600 153.520,395.420 152.800,395.200 152.800 C 394.980 152.800,394.800 152.080,394.800 151.200 C 394.800 150.320,394.620 149.600,394.400 149.600 C 394.180 149.600,394.000 148.880,394.000 148.000 C 394.000 147.120,393.820 146.400,393.600 146.400 C 393.380 146.400,393.200 145.860,393.200 145.200 C 393.200 144.540,393.020 144.000,392.800 144.000 C 392.580 144.000,392.400 143.370,392.400 142.600 C 392.400 141.830,392.241 141.200,392.046 141.200 C 391.851 141.200,391.569 140.213,391.418 139.006 C 391.267 137.800,390.977 136.709,390.772 136.583 C 390.567 136.456,390.400 135.924,390.400 135.400 C 390.400 134.876,390.220 134.336,390.000 134.200 C 389.780 134.064,389.600 133.601,389.600 133.171 C 389.600 132.741,389.420 132.032,389.200 131.595 C 388.980 131.158,388.620 130.442,388.400 130.005 C 388.180 129.568,388.000 128.848,388.000 128.405 C 388.000 127.962,387.820 127.600,387.600 127.600 C 387.380 127.600,387.200 127.150,387.200 126.600 C 387.200 126.050,387.020 125.600,386.800 125.600 C 386.580 125.600,386.400 125.240,386.400 124.800 C 386.400 124.360,386.220 124.000,386.000 124.000 C 385.780 124.000,385.600 123.460,385.600 122.800 C 385.600 122.140,385.420 121.600,385.200 121.600 C 384.980 121.600,384.800 121.240,384.800 120.800 C 384.800 120.360,384.620 120.000,384.400 120.000 C 384.180 120.000,384.000 119.640,384.000 119.200 C 384.000 118.760,383.820 118.400,383.600 118.400 C 383.380 118.400,383.200 117.961,383.200 117.424 C 383.200 116.887,383.020 116.336,382.800 116.200 C 382.580 116.064,382.400 115.603,382.400 115.176 C 382.400 114.749,382.220 114.400,382.000 114.400 C 381.780 114.400,381.600 114.040,381.600 113.600 C 381.600 113.160,381.420 112.800,381.200 112.800 C 380.980 112.800,380.800 112.440,380.800 112.000 C 380.800 111.560,380.620 111.200,380.400 111.200 C 380.180 111.200,380.000 110.829,380.000 110.376 C 380.000 109.923,379.820 109.664,379.600 109.800 C 379.380 109.936,379.200 109.677,379.200 109.224 C 379.200 108.771,379.020 108.400,378.800 108.400 C 378.580 108.400,378.400 108.040,378.400 107.600 C 378.400 107.160,378.220 106.800,378.000 106.800 C 377.780 106.800,377.600 106.440,377.600 106.000 C 377.600 105.560,377.420 105.200,377.200 105.200 C 376.980 105.200,376.800 104.880,376.800 104.488 C 376.800 104.097,376.440 103.517,376.000 103.200 C 375.560 102.883,375.200 102.366,375.200 102.052 C 375.200 101.277,373.113 97.200,372.716 97.200 C 372.542 97.200,372.400 96.840,372.400 96.400 C 372.400 95.960,372.220 95.600,372.000 95.600 C 371.780 95.600,371.600 95.364,371.600 95.075 C 371.600 94.787,371.240 94.164,370.800 93.692 C 370.360 93.220,370.000 92.686,370.000 92.505 C 370.000 92.324,369.640 91.917,369.200 91.600 C 368.760 91.283,368.400 90.703,368.400 90.312 C 368.400 89.920,368.232 89.600,368.027 89.600 C 367.822 89.600,367.538 89.234,367.396 88.787 C 367.254 88.340,366.702 87.538,366.169 87.005 C 365.636 86.472,365.200 85.798,365.200 85.506 C 365.200 85.215,364.840 84.717,364.400 84.400 C 363.960 84.083,363.600 83.575,363.600 83.272 C 363.600 82.969,363.060 82.217,362.400 81.600 C 361.740 80.983,361.200 80.263,361.200 80.000 C 361.200 79.737,360.660 79.017,360.000 78.400 C 359.340 77.783,358.800 77.056,358.800 76.783 C 358.800 76.510,358.260 75.771,357.600 75.140 C 356.940 74.509,356.400 73.819,356.400 73.607 C 356.400 73.395,355.590 72.411,354.600 71.421 C 353.610 70.431,352.800 69.446,352.800 69.231 C 352.800 69.017,350.820 66.851,348.400 64.418 C 345.980 61.985,344.000 59.901,344.000 59.787 C 344.000 59.516,340.484 56.000,340.213 56.000 C 340.099 56.000,338.015 54.020,335.582 51.600 C 333.149 49.180,330.974 47.200,330.748 47.200 C 330.522 47.200,329.668 46.504,328.851 45.653 C 328.033 44.802,326.832 43.827,326.182 43.486 C 325.532 43.146,324.735 42.492,324.412 42.034 C 324.088 41.575,323.575 41.200,323.272 41.200 C 322.969 41.200,322.217 40.660,321.600 40.000 C 320.983 39.340,320.263 38.800,320.000 38.800 C 319.737 38.800,319.017 38.260,318.400 37.600 C 317.783 36.940,317.031 36.400,316.728 36.400 C 316.425 36.400,315.917 36.040,315.600 35.600 C 315.283 35.160,314.785 34.800,314.494 34.800 C 314.202 34.800,313.528 34.364,312.995 33.831 C 312.462 33.298,311.660 32.746,311.213 32.604 C 310.766 32.462,310.400 32.178,310.400 31.973 C 310.400 31.768,310.083 31.600,309.696 31.600 C 309.309 31.600,308.768 31.240,308.493 30.800 C 308.218 30.360,307.725 30.000,307.397 30.000 C 307.068 30.000,306.800 29.842,306.800 29.649 C 306.800 29.455,306.260 29.073,305.600 28.800 C 304.940 28.527,304.400 28.145,304.400 27.951 C 304.400 27.758,304.040 27.600,303.600 27.600 C 303.160 27.600,302.800 27.455,302.800 27.277 C 302.800 26.916,299.570 25.377,299.100 25.513 C 298.935 25.561,298.800 25.420,298.800 25.200 C 298.800 24.980,298.480 24.800,298.088 24.800 C 297.697 24.800,297.117 24.440,296.800 24.000 C 296.483 23.560,295.903 23.200,295.512 23.200 C 295.120 23.200,294.800 23.020,294.800 22.800 C 294.800 22.580,294.440 22.400,294.000 22.400 C 293.560 22.400,293.200 22.220,293.200 22.000 C 293.200 21.780,292.840 21.600,292.400 21.600 C 291.960 21.600,291.600 21.420,291.600 21.200 C 291.600 20.980,291.330 20.800,291.000 20.800 C 290.670 20.800,290.400 20.620,290.400 20.400 C 290.400 20.180,290.040 20.000,289.600 20.000 C 289.160 20.000,288.800 19.820,288.800 19.600 C 288.800 19.380,288.440 19.200,288.000 19.200 C 287.560 19.200,287.200 19.020,287.200 18.800 C 287.200 18.580,286.840 18.400,286.400 18.400 C 285.960 18.400,285.600 18.220,285.600 18.000 C 285.600 17.780,285.251 17.600,284.824 17.600 C 284.397 17.600,283.936 17.420,283.800 17.200 C 283.664 16.980,283.113 16.800,282.576 16.800 C 282.039 16.800,281.600 16.620,281.600 16.400 C 281.600 16.180,281.240 16.000,280.800 16.000 C 280.360 16.000,280.000 15.820,280.000 15.600 C 280.000 15.380,279.640 15.200,279.200 15.200 C 278.760 15.200,278.400 15.020,278.400 14.800 C 278.400 14.580,277.860 14.400,277.200 14.400 C 276.540 14.400,276.000 14.220,276.000 14.000 C 276.000 13.780,275.640 13.600,275.200 13.600 C 274.760 13.600,274.400 13.420,274.400 13.200 C 274.400 12.980,274.038 12.800,273.595 12.800 C 273.152 12.800,272.477 12.641,272.095 12.447 C 271.713 12.252,270.860 11.871,270.200 11.600 C 269.540 11.329,268.687 10.948,268.305 10.753 C 267.923 10.559,267.259 10.400,266.829 10.400 C 266.399 10.400,265.936 10.220,265.800 10.000 C 265.664 9.780,265.124 9.600,264.600 9.600 C 264.076 9.600,263.544 9.433,263.417 9.228 C 263.291 9.023,262.200 8.733,260.994 8.582 C 259.787 8.431,258.800 8.149,258.800 7.954 C 258.800 7.759,258.170 7.600,257.400 7.600 C 256.630 7.600,256.000 7.420,256.000 7.200 C 256.000 6.980,255.460 6.800,254.800 6.800 C 254.140 6.800,253.600 6.620,253.600 6.400 C 253.600 6.180,252.880 6.000,252.000 6.000 C 251.120 6.000,250.400 5.820,250.400 5.600 C 250.400 5.380,249.680 5.200,248.800 5.200 C 247.920 5.200,247.200 5.020,247.200 4.800 C 247.200 4.580,246.480 4.400,245.600 4.400 C 244.720 4.400,244.000 4.220,244.000 4.000 C 244.000 3.780,243.201 3.600,242.224 3.600 C 241.247 3.600,240.336 3.420,240.200 3.200 C 240.064 2.980,239.063 2.800,237.976 2.800 C 236.889 2.800,236.000 2.620,236.000 2.400 C 236.000 2.180,235.021 2.000,233.824 2.000 C 232.627 2.000,231.536 1.820,231.400 1.600 C 231.264 1.380,229.828 1.200,228.210 1.200 C 226.235 1.200,225.213 1.038,225.103 0.708 C 224.941 0.222,187.291 -0.126,178.300 0.275 M283.680 101.625 C 293.311 103.559,301.024 110.170,304.415 119.400 C 305.818 123.218,305.800 122.423,305.800 182.000 C 305.800 230.007,305.704 240.515,305.254 242.000 C 303.424 248.040,300.542 252.928,297.195 255.668 C 296.301 256.401,295.081 257.405,294.485 257.900 C 293.888 258.394,293.175 258.799,292.900 258.800 C 292.625 258.800,292.400 258.936,292.400 259.102 C 292.400 259.398,291.841 259.683,288.600 261.036 C 284.638 262.690,282.757 262.800,258.500 262.800 L 235.200 262.800 235.200 271.600 L 235.200 280.400 247.300 280.418 C 259.715 280.436,261.901 280.654,264.099 282.096 C 270.866 286.536,269.330 296.719,261.578 298.806 C 260.590 299.072,239.251 299.174,199.107 299.105 L 138.137 299.000 136.175 297.787 C 130.809 294.469,130.044 287.752,134.536 283.400 C 137.466 280.561,138.454 280.400,152.912 280.400 L 164.800 280.400 164.800 271.600 L 164.800 262.800 141.300 262.774 C 118.694 262.750,114.004 262.538,112.960 261.494 C 112.799 261.332,112.418 261.200,112.114 261.200 C 111.188 261.200,106.490 258.719,104.779 257.327 C 101.936 255.013,100.980 254.034,99.415 251.837 C 98.461 250.496,97.279 248.500,96.788 247.400 C 96.297 246.300,95.739 245.087,95.548 244.705 C 95.357 244.323,95.200 243.594,95.200 243.085 C 95.200 242.576,95.037 241.989,94.838 241.780 C 94.229 241.140,94.092 122.948,94.700 122.340 C 94.975 122.065,95.200 121.424,95.200 120.915 C 95.200 120.406,95.360 119.677,95.556 119.295 C 95.752 118.913,96.326 117.700,96.832 116.600 C 100.262 109.137,107.221 103.769,116.200 101.659 C 118.548 101.107,280.936 101.075,283.680 101.625 M117.800 121.724 C 113.302 124.403,113.544 120.778,113.681 183.400 L 113.800 237.400 114.697 239.200 C 115.205 240.221,116.244 241.433,117.097 242.000 L 118.600 243.000 200.000 243.000 L 281.400 243.000 282.800 242.016 C 284.434 240.868,285.219 239.896,285.870 238.214 C 286.544 236.471,286.605 129.014,285.933 126.646 C 285.324 124.500,283.921 122.619,282.342 121.831 C 280.680 121.002,119.189 120.896,117.800 121.724 M276.967 129.947 C 277.308 130.499,243.167 154.000,242.023 154.000 C 241.827 154.000,241.607 154.148,241.533 154.328 C 241.460 154.509,233.390 160.035,223.600 166.609 C 213.810 173.182,205.562 178.794,205.271 179.080 C 204.981 179.366,204.589 179.600,204.400 179.600 C 204.211 179.600,203.819 179.826,203.529 180.103 C 203.238 180.379,199.760 182.752,195.800 185.376 C 191.840 188.000,188.510 190.249,188.400 190.374 C 188.290 190.499,187.705 190.856,187.100 191.168 C 186.495 191.480,186.000 191.885,186.000 192.068 C 186.000 192.250,185.730 192.400,185.400 192.400 C 185.070 192.400,184.800 192.580,184.800 192.800 C 184.800 193.020,184.564 193.200,184.275 193.200 C 183.987 193.200,183.364 193.560,182.892 194.000 C 182.420 194.440,181.861 194.800,181.650 194.800 C 181.439 194.800,181.207 194.956,181.133 195.146 C 181.019 195.444,168.093 204.211,165.963 205.436 C 165.546 205.675,164.875 206.170,164.471 206.536 C 164.067 206.901,163.526 207.200,163.269 207.200 C 163.011 207.200,162.800 207.350,162.800 207.532 C 162.800 207.715,162.305 208.120,161.700 208.432 C 161.095 208.745,160.251 209.315,159.825 209.700 C 159.398 210.085,158.828 210.400,158.558 210.400 C 158.288 210.400,158.007 210.553,157.933 210.740 C 157.860 210.928,155.100 212.863,151.800 215.040 C 148.500 217.218,145.710 219.090,145.600 219.200 C 145.005 219.795,139.161 223.600,138.843 223.600 C 138.636 223.600,138.407 223.753,138.333 223.939 C 137.990 224.811,123.019 234.355,122.723 233.890 C 122.345 233.295,122.289 130.244,122.667 129.867 C 123.068 129.465,276.718 129.544,276.967 129.947 " stroke="none" fill="#2c7bcf" fill-rule="evenodd"></path><path id="path2" d="M116.200 101.659 C 107.221 103.769,100.262 109.137,96.832 116.600 C 96.326 117.700,95.752 118.913,95.556 119.295 C 95.360 119.677,95.200 120.406,95.200 120.915 C 95.200 121.424,94.975 122.065,94.700 122.340 C 94.092 122.948,94.229 241.140,94.838 241.780 C 95.037 241.989,95.200 242.576,95.200 243.085 C 95.200 243.594,95.357 244.323,95.548 244.705 C 95.739 245.087,96.297 246.300,96.788 247.400 C 98.823 251.962,102.848 256.433,107.136 258.895 C 109.572 260.293,111.530 261.200,112.114 261.200 C 112.418 261.200,112.799 261.332,112.960 261.494 C 114.004 262.538,118.694 262.750,141.300 262.774 L 164.800 262.800 164.800 271.600 L 164.800 280.400 152.912 280.400 C 138.454 280.400,137.466 280.561,134.536 283.400 C 130.044 287.752,130.809 294.469,136.175 297.787 L 138.137 299.000 199.107 299.105 C 239.251 299.174,260.590 299.072,261.578 298.806 C 266.795 297.401,269.775 291.632,267.838 286.686 C 266.815 284.075,263.810 281.179,262.162 281.218 C 261.629 281.230,261.823 281.459,262.808 281.980 C 269.531 285.536,269.551 294.750,262.842 297.919 C 260.786 298.890,139.903 298.980,137.600 298.012 C 131.942 295.634,130.314 288.304,134.494 284.029 C 137.081 281.382,136.850 281.420,151.800 281.200 L 165.400 281.000 165.507 271.700 L 165.615 262.400 142.307 262.400 C 118.628 262.400,117.278 262.330,112.493 260.855 C 104.606 258.423,97.725 250.962,95.603 242.538 C 94.499 238.158,94.341 126.829,95.432 122.125 C 97.496 113.224,105.169 105.308,114.200 102.764 C 117.183 101.923,282.796 101.919,285.800 102.759 C 294.995 105.332,302.500 113.084,304.612 122.189 C 305.551 126.238,305.510 238.488,304.568 242.123 C 304.057 244.095,304.035 246.104,304.543 244.357 C 304.633 244.051,304.952 242.990,305.253 242.000 C 306.064 239.330,306.066 124.677,305.254 122.000 C 301.893 110.910,294.324 103.762,283.680 101.625 C 280.936 101.075,118.548 101.107,116.200 101.659 M118.729 120.790 C 116.926 121.338,114.911 123.152,114.034 125.017 C 112.753 127.743,112.713 236.441,113.992 239.089 C 115.060 241.299,117.307 243.071,119.689 243.582 C 122.429 244.169,277.595 244.164,280.336 243.576 C 282.697 243.070,285.356 240.958,286.212 238.910 C 286.720 237.694,286.800 229.926,286.800 181.962 L 286.800 126.421 285.849 124.711 C 285.327 123.770,284.141 122.460,283.215 121.800 L 281.531 120.600 200.666 120.532 C 156.190 120.495,119.318 120.611,118.729 120.790 M282.342 121.831 C 283.921 122.619,285.324 124.500,285.933 126.646 C 286.605 129.014,286.544 236.471,285.870 238.214 C 285.219 239.896,284.434 240.868,282.800 242.016 L 281.400 243.000 200.000 243.000 L 118.600 243.000 117.097 242.000 C 116.244 241.433,115.205 240.221,114.697 239.200 L 113.800 237.400 113.681 183.400 C 113.544 120.778,113.302 124.403,117.800 121.724 C 119.189 120.896,280.680 121.002,282.342 121.831 M122.667 129.867 C 122.289 130.244,122.345 233.295,122.723 233.890 C 123.019 234.355,137.990 224.811,138.333 223.939 C 138.407 223.753,138.636 223.600,138.843 223.600 C 139.161 223.600,145.005 219.795,145.600 219.200 C 145.710 219.090,148.500 217.218,151.800 215.040 C 155.100 212.863,157.860 210.928,157.933 210.740 C 158.007 210.553,158.288 210.400,158.558 210.400 C 158.828 210.400,159.398 210.085,159.825 209.700 C 160.251 209.315,161.095 208.745,161.700 208.432 C 162.305 208.120,162.800 207.715,162.800 207.532 C 162.800 207.350,163.011 207.200,163.269 207.200 C 163.526 207.200,164.067 206.901,164.471 206.536 C 164.875 206.170,165.546 205.675,165.963 205.436 C 168.093 204.211,181.019 195.444,181.133 195.146 C 181.207 194.956,181.439 194.800,181.650 194.800 C 181.861 194.800,182.420 194.440,182.892 194.000 C 183.364 193.560,183.987 193.200,184.275 193.200 C 184.564 193.200,184.800 193.020,184.800 192.800 C 184.800 192.580,185.070 192.400,185.400 192.400 C 185.730 192.400,186.000 192.250,186.000 192.068 C 186.000 191.885,186.495 191.480,187.100 191.168 C 187.705 190.856,188.290 190.499,188.400 190.374 C 188.510 190.249,191.840 188.000,195.800 185.376 C 199.760 182.752,203.238 180.379,203.529 180.103 C 203.819 179.826,204.211 179.600,204.400 179.600 C 204.589 179.600,204.981 179.366,205.271 179.080 C 205.562 178.794,213.810 173.182,223.600 166.609 C 233.390 160.035,241.460 154.509,241.533 154.328 C 241.607 154.148,241.827 154.000,242.023 154.000 C 243.167 154.000,277.308 130.499,276.967 129.947 C 276.718 129.544,123.068 129.465,122.667 129.867 M275.589 130.700 C 275.582 130.865,264.857 138.200,251.754 147.000 C 238.652 155.800,227.632 163.226,227.266 163.502 C 226.900 163.777,221.920 167.147,216.200 170.991 C 210.480 174.834,201.570 180.836,196.400 184.329 C 191.230 187.823,184.120 192.626,180.600 195.005 C 148.189 216.903,124.187 232.931,123.560 233.095 C 122.787 233.297,122.297 131.436,123.067 130.667 C 123.437 130.296,275.603 130.329,275.589 130.700 M302.529 247.721 C 299.583 253.694,293.562 258.936,287.400 260.893 C 286.740 261.103,285.480 261.469,284.600 261.708 C 283.583 261.983,274.182 262.224,258.800 262.370 L 234.600 262.600 234.600 271.800 L 234.600 281.000 248.000 281.075 C 255.837 281.119,261.068 281.006,260.600 280.803 C 260.160 280.612,254.265 280.444,247.500 280.428 L 235.200 280.400 235.200 271.600 L 235.200 262.800 258.500 262.800 C 282.757 262.800,284.638 262.690,288.600 261.036 C 291.841 259.683,292.400 259.398,292.400 259.102 C 292.400 258.936,292.625 258.800,292.900 258.800 C 293.175 258.799,293.888 258.394,294.485 257.900 C 295.081 257.405,296.301 256.401,297.195 255.668 C 299.830 253.511,304.318 246.755,303.917 245.551 C 303.846 245.339,303.222 246.316,302.529 247.721 " stroke="none" fill="#7cafe3" fill-rule="evenodd"></path></g></svg>