<svg id="svg" version="1.1" xmlns="http://www.w3.org/2000/svg" xmlns:xlink="http://www.w3.org/1999/xlink" width="400" height="400" viewBox="0, 0, 400,400"><g id="svgg"><path id="path0" d="M110.965 111.517 C 105.983 114.273,106.400 108.929,106.400 170.063 C 106.400 226.726,106.314 224.253,108.367 226.457 C 110.754 229.019,101.945 228.794,200.069 228.797 L 288.738 228.800 290.469 227.494 C 291.425 226.772,292.595 225.385,293.084 224.394 L 293.967 222.600 293.984 169.949 C 293.998 122.632,293.935 117.141,293.362 115.749 C 292.514 113.693,291.356 112.494,289.322 111.566 C 286.846 110.436,113.005 110.388,110.965 111.517 M282.971 121.029 C 283.317 121.374,283.601 121.869,283.603 122.129 C 283.828 155.559,283.498 218.617,283.097 218.872 C 282.223 219.427,117.436 219.276,116.880 218.720 C 116.058 217.898,116.198 122.466,117.023 121.289 L 117.645 120.400 199.994 120.400 C 274.323 120.400,282.404 120.461,282.971 121.029 M177.849 135.546 C 176.013 137.574,181.443 143.300,183.371 141.371 C 184.337 140.406,184.143 139.737,182.321 137.760 C 179.995 135.237,178.706 134.599,177.849 135.546 M220.600 135.176 C 219.633 135.569,216.000 139.386,216.000 140.009 C 216.000 140.892,216.843 142.000,217.514 141.998 C 218.278 141.995,221.693 138.921,222.401 137.597 C 222.787 136.877,222.061 134.666,221.491 134.825 C 221.441 134.839,221.040 134.997,220.600 135.176 M194.600 137.381 C 189.474 138.455,182.829 143.097,180.627 147.143 C 177.421 153.035,177.452 152.911,177.425 159.600 C 177.402 165.283,177.475 165.943,178.300 167.512 C 178.795 168.454,179.200 169.390,179.200 169.592 C 179.200 170.827,184.060 176.519,186.561 178.213 C 188.416 179.470,189.200 180.345,189.200 181.157 C 189.200 182.330,189.817 182.400,200.153 182.400 C 210.163 182.400,210.800 182.301,210.800 180.747 C 210.800 180.366,211.385 179.644,212.100 179.143 C 215.525 176.740,220.800 170.755,220.800 169.271 C 220.800 169.025,221.205 168.054,221.700 167.112 C 223.033 164.575,223.027 155.180,221.690 152.249 C 221.200 151.176,220.800 150.149,220.800 149.967 C 220.800 149.679,219.399 147.377,218.506 146.196 C 212.818 138.684,203.965 135.419,194.600 137.381 M191.500 148.898 C 192.230 149.482,192.154 149.698,190.473 151.848 C 186.727 156.638,186.710 163.496,190.435 167.574 C 191.894 169.171,191.983 170.689,190.637 171.026 C 188.389 171.591,186.067 168.562,184.330 162.801 C 182.447 156.557,187.888 146.008,191.500 148.898 M167.017 158.538 C 166.033 159.257,166.458 161.015,167.696 161.347 C 170.615 162.129,173.200 161.302,173.200 159.586 C 173.200 158.083,168.686 157.318,167.017 158.538 M227.280 158.480 C 225.874 159.886,227.200 161.600,229.694 161.600 C 231.238 161.600,232.000 161.006,232.000 159.800 C 232.000 158.539,231.222 158.000,229.400 158.000 C 228.498 158.000,227.544 158.216,227.280 158.480 M179.278 179.632 C 176.717 182.120,176.487 183.711,178.659 183.922 C 180.386 184.090,184.113 180.504,183.923 178.858 C 183.694 176.886,181.775 177.206,179.278 179.632 M216.267 177.867 C 214.894 179.239,218.979 184.149,221.306 183.925 C 223.472 183.716,223.285 182.317,220.748 179.748 C 218.739 177.713,217.106 177.028,216.267 177.867 M189.443 186.331 C 188.587 187.716,189.284 188.156,204.894 196.084 C 206.595 196.948,208.091 197.823,208.217 198.028 C 208.588 198.627,210.404 198.455,210.657 197.797 C 211.398 195.864,190.524 184.581,189.443 186.331 M201.200 186.418 C 201.200 187.056,203.084 188.800,203.773 188.800 C 204.108 188.800,205.398 189.350,206.640 190.021 C 209.748 191.703,210.566 191.526,210.720 189.137 C 210.895 186.438,210.112 186.000,205.111 186.000 C 202.657 186.000,201.200 186.156,201.200 186.418 M189.471 192.662 C 189.322 192.811,189.200 194.416,189.200 196.228 L 189.200 199.522 190.460 199.961 C 192.357 200.622,202.062 200.535,203.001 199.848 C 203.695 199.342,203.483 199.164,200.378 197.651 C 198.520 196.745,195.735 195.308,194.190 194.458 C 191.009 192.707,189.863 192.271,189.471 192.662 M192.000 204.737 C 192.000 206.639,196.561 209.180,200.000 209.194 C 203.100 209.206,208.108 206.459,207.922 204.848 L 207.800 203.800 199.900 203.692 L 192.000 203.583 192.000 204.737 M109.704 231.988 C 107.934 232.410,106.287 233.773,96.828 242.638 C 95.163 244.198,93.000 246.178,92.023 247.038 C 91.046 247.897,89.786 249.065,89.223 249.633 C 88.660 250.200,87.120 251.618,85.800 252.783 C 84.480 253.948,81.915 256.347,80.100 258.114 L 76.800 261.328 76.800 264.277 C 76.800 268.023,78.012 270.667,80.477 272.298 L 82.142 273.400 200.171 273.400 L 318.200 273.400 319.641 272.424 C 322.094 270.764,323.200 268.261,323.200 264.371 L 323.200 261.059 318.921 257.029 C 310.125 248.746,307.743 246.526,305.600 244.608 C 304.390 243.526,301.275 240.659,298.677 238.238 C 296.079 235.816,293.199 233.377,292.277 232.818 L 290.600 231.800 200.800 231.739 C 151.410 231.706,110.417 231.818,109.704 231.988 M232.075 249.928 C 233.060 250.325,236.925 256.298,236.653 257.005 C 236.361 257.767,163.847 257.923,163.376 257.162 C 163.228 256.921,163.487 256.208,163.953 255.578 C 164.419 254.948,164.800 254.273,164.800 254.078 C 164.800 253.883,165.160 253.398,165.600 253.000 C 166.040 252.602,166.400 252.047,166.400 251.767 C 166.400 251.487,166.874 250.885,167.454 250.429 C 168.522 249.589,230.050 249.112,232.075 249.928 M215.938 261.048 C 218.094 261.479,218.143 264.292,216.014 265.393 C 214.633 266.107,186.465 266.309,184.647 265.618 C 182.435 264.777,181.895 261.594,183.877 261.080 C 184.978 260.795,214.524 260.765,215.938 261.048 " stroke="none" fill="#f9fafb" fill-rule="evenodd"></path><path id="path1" d="M185.900 33.076 C 185.515 33.176,185.200 33.515,185.200 33.829 C 185.200 34.299,184.103 34.400,179.003 34.400 C 173.240 34.400,172.772 34.456,172.307 35.200 C 171.865 35.907,171.374 36.000,168.066 36.000 C 164.662 36.000,164.306 36.072,164.116 36.800 C 163.930 37.510,163.570 37.600,160.916 37.600 C 158.262 37.600,157.902 37.690,157.716 38.400 C 157.530 39.110,157.170 39.200,154.516 39.200 C 151.862 39.200,151.502 39.290,151.316 40.000 C 151.139 40.677,150.770 40.800,148.916 40.800 C 147.062 40.800,146.693 40.923,146.516 41.600 C 146.339 42.277,145.970 42.400,144.116 42.400 C 142.262 42.400,141.893 42.523,141.716 43.200 C 141.552 43.827,141.170 44.000,139.953 44.000 C 138.667 44.000,138.400 44.137,138.400 44.800 C 138.400 45.505,138.133 45.600,136.163 45.600 C 134.262 45.600,133.894 45.720,133.716 46.400 C 133.552 47.027,133.170 47.200,131.953 47.200 C 130.667 47.200,130.400 47.337,130.400 48.000 C 130.400 48.667,130.133 48.800,128.800 48.800 C 127.467 48.800,127.200 48.933,127.200 49.600 C 127.200 50.267,126.933 50.400,125.600 50.400 C 124.267 50.400,124.000 50.533,124.000 51.200 C 124.000 51.867,123.733 52.000,122.400 52.000 C 121.067 52.000,120.800 52.133,120.800 52.800 C 120.800 53.452,120.533 53.600,119.363 53.600 C 118.262 53.600,117.876 53.787,117.716 54.400 C 117.568 54.966,117.170 55.200,116.357 55.200 C 115.640 55.200,115.019 55.501,114.707 56.000 C 114.432 56.440,113.891 56.800,113.504 56.800 C 113.067 56.800,112.800 57.103,112.800 57.600 C 112.800 58.252,112.533 58.400,111.363 58.400 C 110.262 58.400,109.876 58.587,109.716 59.200 C 109.600 59.643,109.170 60.000,108.753 60.000 C 108.267 60.000,108.000 60.283,108.000 60.800 C 108.000 61.452,107.733 61.600,106.563 61.600 C 105.462 61.600,105.076 61.787,104.916 62.400 C 104.800 62.843,104.370 63.200,103.953 63.200 C 103.467 63.200,103.200 63.483,103.200 64.000 C 103.200 64.652,102.933 64.800,101.763 64.800 C 100.662 64.800,100.276 64.987,100.116 65.600 C 100.000 66.043,99.570 66.400,99.153 66.400 C 98.667 66.400,98.400 66.683,98.400 67.200 C 98.400 67.733,98.133 68.000,97.600 68.000 C 97.067 68.000,96.800 68.267,96.800 68.800 C 96.800 69.333,96.533 69.600,96.000 69.600 C 95.560 69.600,94.840 69.960,94.400 70.400 C 93.960 70.840,93.313 71.200,92.963 71.200 C 92.612 71.200,92.231 71.560,92.116 72.000 C 92.000 72.443,91.570 72.800,91.153 72.800 C 90.667 72.800,90.400 73.083,90.400 73.600 C 90.400 74.133,90.133 74.400,89.600 74.400 C 89.067 74.400,88.800 74.667,88.800 75.200 C 88.800 75.733,88.533 76.000,88.000 76.000 C 87.467 76.000,87.200 76.267,87.200 76.800 C 87.200 77.333,86.933 77.600,86.400 77.600 C 85.867 77.600,85.600 77.867,85.600 78.400 C 85.600 78.933,85.333 79.200,84.800 79.200 C 84.267 79.200,84.000 79.467,84.000 80.000 C 84.000 80.533,83.733 80.800,83.200 80.800 C 82.667 80.800,82.400 81.067,82.400 81.600 C 82.400 82.133,82.133 82.400,81.600 82.400 C 81.067 82.400,80.800 82.667,80.800 83.200 C 80.800 83.733,80.533 84.000,80.000 84.000 C 79.467 84.000,79.200 84.267,79.200 84.800 C 79.200 85.333,78.933 85.600,78.400 85.600 C 77.867 85.600,77.600 85.867,77.600 86.400 C 77.600 86.933,77.333 87.200,76.800 87.200 C 76.267 87.200,76.000 87.467,76.000 88.000 C 76.000 88.533,75.733 88.800,75.200 88.800 C 74.667 88.800,74.400 89.067,74.400 89.600 C 74.400 90.133,74.133 90.400,73.600 90.400 C 73.083 90.400,72.800 90.667,72.800 91.153 C 72.800 91.570,72.443 92.000,72.000 92.116 C 71.560 92.231,71.200 92.612,71.200 92.963 C 71.200 93.313,70.840 93.960,70.400 94.400 C 69.960 94.840,69.600 95.560,69.600 96.000 C 69.600 96.533,69.333 96.800,68.800 96.800 C 68.267 96.800,68.000 97.067,68.000 97.600 C 68.000 98.133,67.733 98.400,67.200 98.400 C 66.683 98.400,66.400 98.667,66.400 99.153 C 66.400 99.570,66.043 100.000,65.600 100.116 C 64.987 100.276,64.800 100.662,64.800 101.763 C 64.800 102.933,64.652 103.200,64.000 103.200 C 63.483 103.200,63.200 103.467,63.200 103.953 C 63.200 104.370,62.843 104.800,62.400 104.916 C 61.787 105.076,61.600 105.462,61.600 106.563 C 61.600 107.733,61.452 108.000,60.800 108.000 C 60.283 108.000,60.000 108.267,60.000 108.753 C 60.000 109.170,59.643 109.600,59.200 109.716 C 58.587 109.876,58.400 110.262,58.400 111.363 C 58.400 112.533,58.252 112.800,57.600 112.800 C 57.103 112.800,56.800 113.067,56.800 113.504 C 56.800 113.891,56.440 114.432,56.000 114.707 C 55.501 115.019,55.200 115.640,55.200 116.357 C 55.200 117.170,54.966 117.568,54.400 117.716 C 53.787 117.876,53.600 118.262,53.600 119.363 C 53.600 120.533,53.452 120.800,52.800 120.800 C 52.133 120.800,52.000 121.067,52.000 122.400 C 52.000 123.733,51.867 124.000,51.200 124.000 C 50.533 124.000,50.400 124.267,50.400 125.600 C 50.400 126.933,50.267 127.200,49.600 127.200 C 48.937 127.200,48.800 127.467,48.800 128.753 C 48.800 129.970,48.627 130.352,48.000 130.516 C 47.394 130.675,47.200 131.062,47.200 132.116 C 47.200 133.170,47.006 133.557,46.400 133.716 C 45.720 133.894,45.600 134.262,45.600 136.163 C 45.600 138.133,45.505 138.400,44.800 138.400 C 44.137 138.400,44.000 138.667,44.000 139.953 C 44.000 141.170,43.827 141.552,43.200 141.716 C 42.523 141.893,42.400 142.262,42.400 144.116 C 42.400 145.970,42.277 146.339,41.600 146.516 C 40.926 146.692,40.800 147.062,40.800 148.866 C 40.800 150.574,40.638 151.109,40.000 151.507 C 39.326 151.928,39.200 152.440,39.200 154.757 C 39.200 157.170,39.102 157.532,38.400 157.716 C 37.690 157.902,37.600 158.262,37.600 160.916 C 37.600 163.570,37.510 163.930,36.800 164.116 C 36.072 164.306,36.000 164.662,36.000 168.074 C 36.000 171.327,35.894 171.913,35.200 172.507 C 34.468 173.134,34.400 173.687,34.400 178.996 C 34.400 184.267,34.326 184.874,33.600 185.600 C 32.354 186.846,32.354 213.626,33.600 214.693 C 34.333 215.320,34.400 215.873,34.400 221.286 C 34.400 226.760,34.459 227.230,35.200 227.693 C 35.907 228.135,36.000 228.626,36.000 231.934 C 36.000 235.338,36.072 235.694,36.800 235.884 C 37.513 236.071,37.600 236.430,37.600 239.185 C 37.600 241.768,37.731 242.395,38.400 243.000 C 39.029 243.569,39.200 244.232,39.200 246.099 C 39.200 248.138,39.313 248.505,40.000 248.684 C 40.677 248.861,40.800 249.230,40.800 251.084 C 40.800 252.938,40.923 253.307,41.600 253.484 C 42.277 253.661,42.400 254.030,42.400 255.884 C 42.400 257.738,42.523 258.107,43.200 258.284 C 43.847 258.453,44.000 258.830,44.000 260.251 C 44.000 261.513,44.225 262.201,44.800 262.693 C 45.306 263.126,45.600 263.873,45.600 264.726 C 45.600 265.738,45.800 266.127,46.400 266.284 C 47.027 266.448,47.200 266.830,47.200 268.047 C 47.200 269.333,47.337 269.600,48.000 269.600 C 48.667 269.600,48.800 269.867,48.800 271.200 C 48.800 272.533,48.933 272.800,49.600 272.800 C 50.267 272.800,50.400 273.067,50.400 274.400 C 50.400 275.733,50.533 276.000,51.200 276.000 C 51.867 276.000,52.000 276.267,52.000 277.600 C 52.000 278.933,52.133 279.200,52.800 279.200 C 53.467 279.200,53.600 279.467,53.600 280.800 C 53.600 282.133,53.733 282.400,54.400 282.400 C 55.052 282.400,55.200 282.667,55.200 283.837 C 55.200 284.938,55.387 285.324,56.000 285.484 C 56.440 285.599,56.800 285.989,56.800 286.350 C 56.800 286.712,57.160 287.232,57.600 287.507 C 58.110 287.826,58.400 288.440,58.400 289.203 C 58.400 290.133,58.578 290.400,59.200 290.400 C 59.787 290.400,60.000 290.667,60.000 291.404 C 60.000 291.956,60.360 292.716,60.800 293.093 C 61.240 293.470,61.600 294.098,61.600 294.489 C 61.600 294.933,61.900 295.200,62.400 295.200 C 62.911 295.200,63.200 295.467,63.200 295.938 C 63.200 296.344,63.560 297.002,64.000 297.400 C 64.440 297.798,64.800 298.473,64.800 298.899 C 64.800 299.338,65.147 299.766,65.600 299.884 C 66.043 300.000,66.400 300.430,66.400 300.847 C 66.400 301.333,66.683 301.600,67.200 301.600 C 67.697 301.600,68.000 301.867,68.000 302.304 C 68.000 302.691,68.360 303.232,68.800 303.507 C 69.265 303.797,69.600 304.440,69.600 305.041 C 69.600 305.738,69.860 306.143,70.400 306.284 C 70.843 306.400,71.200 306.830,71.200 307.247 C 71.200 307.733,71.483 308.000,72.000 308.000 C 72.533 308.000,72.800 308.267,72.800 308.800 C 72.800 309.333,73.067 309.600,73.600 309.600 C 74.133 309.600,74.400 309.867,74.400 310.400 C 74.400 310.933,74.667 311.200,75.200 311.200 C 75.733 311.200,76.000 311.467,76.000 312.000 C 76.000 312.533,76.267 312.800,76.800 312.800 C 77.333 312.800,77.600 313.067,77.600 313.600 C 77.600 314.133,77.867 314.400,78.400 314.400 C 78.933 314.400,79.200 314.667,79.200 315.200 C 79.200 315.733,79.467 316.000,80.000 316.000 C 80.533 316.000,80.800 316.267,80.800 316.800 C 80.800 317.333,81.067 317.600,81.600 317.600 C 82.133 317.600,82.400 317.867,82.400 318.400 C 82.400 318.933,82.667 319.200,83.200 319.200 C 83.733 319.200,84.000 319.467,84.000 320.000 C 84.000 320.533,84.267 320.800,84.800 320.800 C 85.333 320.800,85.600 321.067,85.600 321.600 C 85.600 322.133,85.867 322.400,86.400 322.400 C 86.933 322.400,87.200 322.667,87.200 323.200 C 87.200 323.733,87.467 324.000,88.000 324.000 C 88.533 324.000,88.800 324.267,88.800 324.800 C 88.800 325.333,89.067 325.600,89.600 325.600 C 90.133 325.600,90.400 325.867,90.400 326.400 C 90.400 326.933,90.667 327.200,91.200 327.200 C 91.733 327.200,92.000 327.467,92.000 328.000 C 92.000 328.517,92.267 328.800,92.753 328.800 C 93.170 328.800,93.600 329.157,93.716 329.600 C 93.834 330.053,94.262 330.400,94.701 330.400 C 95.127 330.400,95.802 330.760,96.200 331.200 C 96.598 331.640,97.256 332.000,97.662 332.000 C 98.133 332.000,98.400 332.289,98.400 332.800 C 98.400 333.333,98.667 333.600,99.200 333.600 C 99.733 333.600,100.000 333.867,100.000 334.400 C 100.000 334.900,100.267 335.200,100.711 335.200 C 101.102 335.200,101.730 335.560,102.107 336.000 C 102.484 336.440,103.244 336.800,103.796 336.800 C 104.533 336.800,104.800 337.013,104.800 337.600 C 104.800 338.117,105.067 338.400,105.553 338.400 C 105.970 338.400,106.400 338.757,106.516 339.200 C 106.676 339.813,107.062 340.000,108.163 340.000 C 109.333 340.000,109.600 340.148,109.600 340.800 C 109.600 341.300,109.867 341.600,110.311 341.600 C 110.702 341.600,111.330 341.960,111.707 342.400 C 112.084 342.840,112.844 343.200,113.396 343.200 C 114.133 343.200,114.400 343.413,114.400 344.000 C 114.400 344.667,114.667 344.800,116.000 344.800 C 117.333 344.800,117.600 344.933,117.600 345.600 C 117.600 346.267,117.867 346.400,119.200 346.400 C 120.533 346.400,120.800 346.533,120.800 347.200 C 120.800 347.787,121.067 348.000,121.800 348.000 C 122.419 348.000,122.800 348.227,122.800 348.595 C 122.800 348.980,123.365 349.281,124.400 349.446 C 125.281 349.587,126.000 349.928,126.000 350.204 C 126.000 350.788,127.249 351.187,129.100 351.195 C 130.132 351.199,130.400 351.365,130.400 352.000 C 130.400 352.667,130.667 352.800,132.000 352.800 C 133.333 352.800,133.600 352.933,133.600 353.600 C 133.600 354.263,133.867 354.400,135.153 354.400 C 136.370 354.400,136.752 354.573,136.916 355.200 C 137.094 355.880,137.462 356.000,139.363 356.000 C 141.333 356.000,141.600 356.095,141.600 356.800 C 141.600 357.477,141.867 357.600,143.338 357.600 C 144.568 357.600,145.288 357.834,145.800 358.400 C 146.367 359.026,147.032 359.200,148.862 359.200 C 150.933 359.200,151.200 359.291,151.200 360.000 C 151.200 360.709,151.467 360.800,153.553 360.800 C 155.570 360.800,155.937 360.914,156.116 361.600 C 156.302 362.310,156.662 362.400,159.316 362.400 C 161.970 362.400,162.330 362.490,162.516 363.200 C 162.706 363.928,163.062 364.000,166.466 364.000 C 169.774 364.000,170.265 364.093,170.707 364.800 C 171.164 365.532,171.640 365.600,176.307 365.600 C 180.974 365.600,181.450 365.668,181.907 366.400 C 182.690 367.654,217.310 367.654,218.093 366.400 C 218.552 365.665,219.026 365.600,223.934 365.600 C 228.938 365.600,229.288 365.550,229.484 364.800 C 229.675 364.071,230.030 364.000,233.484 364.000 C 236.938 364.000,237.293 363.929,237.484 363.200 C 237.670 362.490,238.030 362.400,240.684 362.400 C 243.338 362.400,243.698 362.310,243.884 361.600 C 244.066 360.905,244.430 360.800,246.651 360.800 C 248.713 360.800,249.340 360.645,249.893 360.000 C 250.400 359.408,251.073 359.200,252.486 359.200 C 253.960 359.200,254.507 359.018,254.893 358.400 C 255.239 357.846,255.826 357.600,256.800 357.600 C 257.774 357.600,258.361 357.354,258.707 356.800 C 259.089 356.189,259.640 356.000,261.041 356.000 C 262.538 356.000,262.913 355.853,263.084 355.200 C 263.248 354.573,263.630 354.400,264.847 354.400 C 266.133 354.400,266.400 354.263,266.400 353.600 C 266.400 352.907,266.667 352.800,268.397 352.800 C 269.960 352.800,270.502 352.626,270.893 352.000 C 271.231 351.458,271.826 351.200,272.734 351.200 C 273.738 351.200,274.127 350.999,274.284 350.400 C 274.443 349.794,274.830 349.600,275.884 349.600 C 276.938 349.600,277.325 349.406,277.484 348.800 C 277.632 348.234,278.030 348.000,278.843 348.000 C 279.560 348.000,280.181 347.699,280.493 347.200 C 280.768 346.760,281.309 346.400,281.696 346.400 C 282.133 346.400,282.400 346.097,282.400 345.600 C 282.400 344.933,282.667 344.800,284.000 344.800 C 285.333 344.800,285.600 344.667,285.600 344.000 C 285.600 343.348,285.867 343.200,287.037 343.200 C 288.138 343.200,288.524 343.013,288.684 342.400 C 288.800 341.957,289.230 341.600,289.647 341.600 C 290.133 341.600,290.400 341.317,290.400 340.800 C 290.400 340.148,290.667 340.000,291.837 340.000 C 292.938 340.000,293.324 339.813,293.484 339.200 C 293.600 338.757,294.030 338.400,294.447 338.400 C 294.933 338.400,295.200 338.117,295.200 337.600 C 295.200 336.948,295.467 336.800,296.637 336.800 C 297.738 336.800,298.124 336.613,298.284 336.000 C 298.400 335.557,298.830 335.200,299.247 335.200 C 299.733 335.200,300.000 334.917,300.000 334.400 C 300.000 333.867,300.267 333.600,300.800 333.600 C 301.333 333.600,301.600 333.333,301.600 332.800 C 301.600 332.148,301.867 332.000,303.037 332.000 C 304.138 332.000,304.524 331.813,304.684 331.200 C 304.800 330.757,305.230 330.400,305.647 330.400 C 306.133 330.400,306.400 330.117,306.400 329.600 C 306.400 329.067,306.667 328.800,307.200 328.800 C 307.733 328.800,308.000 328.533,308.000 328.000 C 308.000 327.467,308.267 327.200,308.800 327.200 C 309.333 327.200,309.600 326.933,309.600 326.400 C 309.600 325.867,309.867 325.600,310.400 325.600 C 310.933 325.600,311.200 325.333,311.200 324.800 C 311.200 324.217,311.467 324.000,312.184 324.000 C 312.726 324.000,313.491 323.669,313.884 323.264 C 314.278 322.859,314.915 322.415,315.300 322.277 C 315.685 322.138,316.000 321.749,316.000 321.413 C 316.000 321.076,316.287 320.800,316.637 320.800 C 316.988 320.800,317.369 320.440,317.484 320.000 C 317.599 319.560,317.959 319.200,318.284 319.200 C 318.609 319.200,318.969 318.840,319.084 318.400 C 319.199 317.960,319.559 317.600,319.884 317.600 C 320.209 317.600,320.569 317.240,320.684 316.800 C 320.799 316.360,321.148 316.000,321.459 316.000 C 321.770 316.000,322.138 315.685,322.277 315.300 C 322.415 314.915,322.859 314.278,323.264 313.884 C 323.669 313.491,324.000 312.726,324.000 312.184 C 324.000 311.467,324.217 311.200,324.800 311.200 C 325.333 311.200,325.600 310.933,325.600 310.400 C 325.600 309.867,325.867 309.600,326.400 309.600 C 326.933 309.600,327.200 309.333,327.200 308.800 C 327.200 308.267,327.467 308.000,328.000 308.000 C 328.533 308.000,328.800 307.733,328.800 307.200 C 328.800 306.667,329.067 306.400,329.600 306.400 C 330.117 306.400,330.400 306.133,330.400 305.647 C 330.400 305.230,330.757 304.800,331.200 304.684 C 331.813 304.524,332.000 304.138,332.000 303.037 C 332.000 301.867,332.148 301.600,332.800 301.600 C 333.333 301.600,333.600 301.333,333.600 300.800 C 333.600 300.267,333.867 300.000,334.400 300.000 C 334.917 300.000,335.200 299.733,335.200 299.247 C 335.200 298.830,335.557 298.400,336.000 298.284 C 336.613 298.124,336.800 297.738,336.800 296.637 C 336.800 295.467,336.948 295.200,337.600 295.200 C 338.117 295.200,338.400 294.933,338.400 294.447 C 338.400 294.030,338.757 293.600,339.200 293.484 C 339.813 293.324,340.000 292.938,340.000 291.837 C 340.000 290.667,340.148 290.400,340.800 290.400 C 341.317 290.400,341.600 290.133,341.600 289.647 C 341.600 289.230,341.957 288.800,342.400 288.684 C 343.013 288.524,343.200 288.138,343.200 287.037 C 343.200 285.867,343.348 285.600,344.000 285.600 C 344.622 285.600,344.800 285.333,344.800 284.403 C 344.800 283.640,345.090 283.026,345.600 282.707 C 346.040 282.432,346.400 281.934,346.400 281.600 C 346.400 281.266,346.760 280.768,347.200 280.493 C 347.699 280.181,348.000 279.560,348.000 278.843 C 348.000 278.030,348.234 277.632,348.800 277.484 C 349.406 277.325,349.600 276.938,349.600 275.884 C 349.600 274.830,349.794 274.443,350.400 274.284 C 350.999 274.127,351.200 273.738,351.200 272.734 C 351.200 271.826,351.458 271.231,352.000 270.893 C 352.540 270.555,352.800 269.960,352.800 269.059 C 352.800 268.232,353.105 267.448,353.600 267.000 C 354.127 266.523,354.400 265.768,354.400 264.785 C 354.400 263.630,354.580 263.246,355.200 263.084 C 355.813 262.924,356.000 262.538,356.000 261.437 C 356.000 260.533,356.297 259.703,356.800 259.200 C 357.316 258.684,357.600 257.867,357.600 256.896 C 357.600 255.826,357.830 255.249,358.400 254.893 C 359.018 254.507,359.200 253.960,359.200 252.486 C 359.200 251.073,359.408 250.400,360.000 249.893 C 360.645 249.340,360.800 248.713,360.800 246.651 C 360.800 244.430,360.905 244.066,361.600 243.884 C 362.310 243.698,362.400 243.338,362.400 240.684 C 362.400 238.030,362.490 237.670,363.200 237.484 C 363.929 237.293,364.000 236.938,364.000 233.484 C 364.000 230.030,364.071 229.675,364.800 229.484 C 365.550 229.288,365.600 228.938,365.600 223.934 C 365.600 219.026,365.665 218.552,366.400 218.093 C 367.653 217.311,367.653 183.180,366.400 182.107 C 365.674 181.486,365.600 180.927,365.600 176.074 C 365.600 171.062,365.550 170.712,364.800 170.516 C 364.071 170.325,364.000 169.970,364.000 166.516 C 364.000 163.062,363.929 162.707,363.200 162.516 C 362.490 162.330,362.400 161.970,362.400 159.316 C 362.400 156.662,362.310 156.302,361.600 156.116 C 360.917 155.937,360.800 155.570,360.800 153.615 C 360.800 151.832,360.623 151.163,360.000 150.600 C 359.486 150.134,359.198 149.363,359.195 148.438 C 359.187 146.408,358.798 145.200,358.153 145.200 C 357.764 145.200,357.600 144.666,357.600 143.400 C 357.600 141.867,357.481 141.600,356.800 141.600 C 356.095 141.600,356.000 141.333,356.000 139.363 C 356.000 137.462,355.880 137.094,355.200 136.916 C 354.573 136.752,354.400 136.370,354.400 135.153 C 354.400 133.867,354.263 133.600,353.600 133.600 C 352.939 133.600,352.800 133.333,352.800 132.062 C 352.800 131.032,352.536 130.285,352.000 129.800 C 351.556 129.398,351.200 128.568,351.200 127.934 C 351.200 127.287,350.853 126.495,350.400 126.107 C 349.960 125.730,349.600 125.010,349.600 124.507 C 349.600 124.004,349.240 123.284,348.800 122.907 C 348.360 122.530,348.000 121.946,348.000 121.607 C 348.000 121.269,347.640 120.768,347.200 120.493 C 346.690 120.174,346.400 119.560,346.400 118.797 C 346.400 117.867,346.222 117.600,345.600 117.600 C 344.948 117.600,344.800 117.333,344.800 116.163 C 344.800 115.062,344.613 114.676,344.000 114.516 C 343.434 114.368,343.200 113.970,343.200 113.157 C 343.200 112.440,342.899 111.819,342.400 111.507 C 341.960 111.232,341.600 110.691,341.600 110.304 C 341.600 109.867,341.297 109.600,340.800 109.600 C 340.148 109.600,340.000 109.333,340.000 108.163 C 340.000 107.062,339.813 106.676,339.200 106.516 C 338.757 106.400,338.400 105.970,338.400 105.553 C 338.400 105.067,338.117 104.800,337.600 104.800 C 337.013 104.800,336.800 104.533,336.800 103.796 C 336.800 103.244,336.440 102.484,336.000 102.107 C 335.560 101.730,335.200 101.102,335.200 100.711 C 335.200 100.267,334.900 100.000,334.400 100.000 C 333.867 100.000,333.600 99.733,333.600 99.200 C 333.600 98.667,333.333 98.400,332.800 98.400 C 332.267 98.400,332.000 98.133,332.000 97.600 C 332.000 97.160,331.640 96.440,331.200 96.000 C 330.760 95.560,330.400 94.913,330.400 94.563 C 330.400 94.212,330.040 93.831,329.600 93.716 C 329.157 93.600,328.800 93.170,328.800 92.753 C 328.800 92.267,328.517 92.000,328.000 92.000 C 327.467 92.000,327.200 91.733,327.200 91.200 C 327.200 90.667,326.933 90.400,326.400 90.400 C 325.867 90.400,325.600 90.133,325.600 89.600 C 325.600 89.067,325.333 88.800,324.800 88.800 C 324.267 88.800,324.000 88.533,324.000 88.000 C 324.000 87.467,323.733 87.200,323.200 87.200 C 322.667 87.200,322.400 86.933,322.400 86.400 C 322.400 85.867,322.133 85.600,321.600 85.600 C 321.067 85.600,320.800 85.333,320.800 84.800 C 320.800 84.267,320.533 84.000,320.000 84.000 C 319.560 84.000,319.200 83.738,319.200 83.418 C 319.200 82.664,317.336 80.800,316.582 80.800 C 316.262 80.800,316.000 80.440,316.000 80.000 C 316.000 79.467,315.733 79.200,315.200 79.200 C 314.667 79.200,314.400 78.933,314.400 78.400 C 314.400 77.867,314.133 77.600,313.600 77.600 C 313.067 77.600,312.800 77.333,312.800 76.800 C 312.800 76.267,312.533 76.000,312.000 76.000 C 311.467 76.000,311.200 75.733,311.200 75.200 C 311.200 74.667,310.933 74.400,310.400 74.400 C 309.867 74.400,309.600 74.133,309.600 73.600 C 309.600 73.067,309.333 72.800,308.800 72.800 C 308.267 72.800,308.000 72.533,308.000 72.000 C 308.000 71.483,307.733 71.200,307.247 71.200 C 306.830 71.200,306.400 70.843,306.284 70.400 C 306.124 69.787,305.738 69.600,304.637 69.600 C 303.467 69.600,303.200 69.452,303.200 68.800 C 303.200 68.267,302.933 68.000,302.400 68.000 C 301.867 68.000,301.600 67.733,301.600 67.200 C 301.600 66.683,301.333 66.400,300.847 66.400 C 300.430 66.400,300.000 66.043,299.884 65.600 C 299.743 65.060,299.338 64.800,298.641 64.800 C 298.040 64.800,297.397 64.465,297.107 64.000 C 296.832 63.560,296.291 63.200,295.904 63.200 C 295.467 63.200,295.200 62.897,295.200 62.400 C 295.200 61.903,294.933 61.600,294.496 61.600 C 294.109 61.600,293.568 61.240,293.293 60.800 C 292.974 60.290,292.360 60.000,291.597 60.000 C 290.667 60.000,290.400 59.822,290.400 59.200 C 290.400 58.578,290.133 58.400,289.203 58.400 C 288.440 58.400,287.826 58.110,287.507 57.600 C 287.232 57.160,286.712 56.800,286.350 56.800 C 285.989 56.800,285.599 56.440,285.484 56.000 C 285.324 55.387,284.938 55.200,283.837 55.200 C 282.667 55.200,282.400 55.052,282.400 54.400 C 282.400 53.733,282.133 53.600,280.800 53.600 C 279.467 53.600,279.200 53.467,279.200 52.800 C 279.200 52.133,278.933 52.000,277.600 52.000 C 276.267 52.000,276.000 51.867,276.000 51.200 C 276.000 50.533,275.733 50.400,274.400 50.400 C 273.067 50.400,272.800 50.267,272.800 49.600 C 272.800 48.933,272.533 48.800,271.200 48.800 C 269.867 48.800,269.600 48.667,269.600 48.000 C 269.600 47.337,269.333 47.200,268.047 47.200 C 266.830 47.200,266.448 47.027,266.284 46.400 C 266.127 45.800,265.738 45.600,264.726 45.600 C 263.873 45.600,263.126 45.306,262.693 44.800 C 262.201 44.225,261.513 44.000,260.251 44.000 C 258.830 44.000,258.453 43.847,258.284 43.200 C 258.107 42.523,257.738 42.400,255.884 42.400 C 254.030 42.400,253.661 42.277,253.484 41.600 C 253.307 40.923,252.938 40.800,251.084 40.800 C 249.230 40.800,248.861 40.677,248.684 40.000 C 248.498 39.289,248.138 39.200,245.437 39.200 C 242.667 39.200,242.400 39.130,242.400 38.400 C 242.400 37.668,242.133 37.600,239.247 37.600 C 236.430 37.600,236.071 37.515,235.884 36.800 C 235.693 36.071,235.338 36.000,231.884 36.000 C 228.430 36.000,228.075 35.929,227.884 35.200 C 227.686 34.444,227.338 34.400,221.526 34.400 C 215.873 34.400,215.323 34.336,214.693 33.600 C 214.039 32.836,188.590 32.373,185.900 33.076 M289.322 111.566 C 291.356 112.494,292.514 113.693,293.362 115.749 C 293.935 117.141,293.998 122.632,293.984 169.949 L 293.967 222.600 293.084 224.394 C 292.595 225.385,291.425 226.772,290.469 227.494 L 288.738 228.800 200.069 228.797 C 101.945 228.794,110.754 229.019,108.367 226.457 C 106.314 224.253,106.400 226.726,106.400 170.063 C 106.400 108.929,105.983 114.273,110.965 111.517 C 113.005 110.388,286.846 110.436,289.322 111.566 M117.023 121.289 C 116.198 122.466,116.058 217.898,116.880 218.720 C 117.436 219.276,282.223 219.427,283.097 218.872 C 283.498 218.617,283.828 155.559,283.603 122.129 C 283.591 120.310,287.953 120.400,199.994 120.400 L 117.645 120.400 117.023 121.289 M182.321 137.760 C 184.402 140.018,184.324 142.000,182.154 142.000 C 181.320 142.000,177.200 137.813,177.200 136.966 C 177.200 134.298,179.451 134.647,182.321 137.760 M222.219 135.773 C 223.024 137.001,222.646 137.786,220.073 140.222 C 217.702 142.467,216.000 142.378,216.000 140.009 C 216.000 139.041,220.035 135.232,221.491 134.825 C 221.541 134.811,221.869 135.238,222.219 135.773 M204.367 137.250 C 208.895 138.023,213.988 140.860,216.837 144.196 C 218.923 146.639,220.800 149.372,220.800 149.967 C 220.800 150.149,221.200 151.176,221.690 152.249 C 223.027 155.180,223.033 164.575,221.700 167.112 C 221.205 168.054,220.800 169.025,220.800 169.271 C 220.800 170.755,215.525 176.740,212.100 179.143 C 211.385 179.644,210.800 180.366,210.800 180.747 C 210.800 182.301,210.163 182.400,200.153 182.400 C 189.817 182.400,189.200 182.330,189.200 181.157 C 189.200 180.345,188.416 179.470,186.561 178.213 C 184.060 176.519,179.200 170.827,179.200 169.592 C 179.200 169.390,178.795 168.454,178.300 167.512 C 176.716 164.499,176.991 154.319,178.751 150.800 C 180.912 146.481,181.122 146.167,183.411 143.842 C 189.173 137.987,196.038 135.827,204.367 137.250 M188.600 148.731 C 185.265 151.636,183.107 158.746,184.330 162.801 C 186.067 168.562,188.389 171.591,190.637 171.026 C 191.983 170.689,191.894 169.171,190.435 167.574 C 186.710 163.496,186.727 156.638,190.473 151.848 C 192.154 149.698,192.230 149.482,191.500 148.898 C 190.501 148.098,189.399 148.035,188.600 148.731 M172.426 158.414 C 174.310 159.422,172.832 161.603,170.271 161.595 C 166.931 161.584,165.146 159.907,167.017 158.538 C 167.887 157.902,171.323 157.823,172.426 158.414 M231.520 158.480 C 233.438 160.398,230.222 162.603,227.574 161.186 C 225.687 160.176,226.935 158.000,229.400 158.000 C 230.302 158.000,231.256 158.216,231.520 158.480 M183.923 178.858 C 184.113 180.504,180.386 184.090,178.659 183.922 C 176.487 183.711,176.717 182.120,179.278 179.632 C 181.775 177.206,183.694 176.886,183.923 178.858 M220.748 179.748 C 223.285 182.317,223.472 183.716,221.306 183.925 C 218.979 184.149,214.894 179.239,216.267 177.867 C 217.106 177.028,218.739 177.713,220.748 179.748 M200.340 190.675 C 209.508 195.265,211.184 196.422,210.657 197.797 C 210.404 198.455,208.588 198.627,208.217 198.028 C 208.091 197.823,206.595 196.948,204.894 196.084 C 191.777 189.422,189.650 188.236,189.450 187.470 C 188.836 185.123,189.842 185.419,200.340 190.675 M209.931 186.637 C 210.694 187.171,210.821 187.576,210.720 189.137 C 210.566 191.526,209.748 191.703,206.640 190.021 C 205.398 189.350,204.108 188.800,203.773 188.800 C 203.084 188.800,201.200 187.056,201.200 186.418 C 201.200 185.693,208.858 185.885,209.931 186.637 M194.190 194.458 C 195.735 195.308,198.520 196.745,200.378 197.651 C 203.483 199.164,203.695 199.342,203.001 199.848 C 202.062 200.535,192.357 200.622,190.460 199.961 L 189.200 199.522 189.200 196.228 C 189.200 191.705,189.193 191.708,194.190 194.458 M207.922 204.848 C 208.108 206.459,203.100 209.206,200.000 209.194 C 196.561 209.180,192.000 206.639,192.000 204.737 L 192.000 203.583 199.900 203.692 L 207.800 203.800 207.922 204.848 M292.277 232.818 C 293.199 233.377,296.079 235.816,298.677 238.238 C 301.275 240.659,304.390 243.526,305.600 244.608 C 307.743 246.526,310.125 248.746,318.921 257.029 L 323.200 261.059 323.200 264.371 C 323.200 268.261,322.094 270.764,319.641 272.424 L 318.200 273.400 200.171 273.400 L 82.142 273.400 80.477 272.298 C 78.012 270.667,76.800 268.023,76.800 264.277 L 76.800 261.328 80.100 258.114 C 81.915 256.347,84.480 253.948,85.800 252.783 C 87.120 251.618,88.660 250.200,89.223 249.633 C 89.786 249.065,91.046 247.897,92.023 247.038 C 93.000 246.178,95.163 244.198,96.828 242.638 C 106.287 233.773,107.934 232.410,109.704 231.988 C 110.417 231.818,151.410 231.706,200.800 231.739 L 290.600 231.800 292.277 232.818 M167.454 250.429 C 166.874 250.885,166.400 251.487,166.400 251.767 C 166.400 252.047,166.040 252.602,165.600 253.000 C 165.160 253.398,164.800 253.883,164.800 254.078 C 164.800 254.273,164.419 254.948,163.953 255.578 C 163.487 256.208,163.228 256.921,163.376 257.162 C 163.847 257.923,236.361 257.767,236.653 257.005 C 236.925 256.298,233.060 250.325,232.075 249.928 C 230.050 249.112,168.522 249.589,167.454 250.429 M183.877 261.080 C 181.895 261.594,182.435 264.777,184.647 265.618 C 186.465 266.309,214.633 266.107,216.014 265.393 C 218.143 264.292,218.094 261.479,215.938 261.048 C 214.524 260.765,184.978 260.795,183.877 261.080 " stroke="none" fill="#0c549c" fill-rule="evenodd"></path></g></svg>