<svg id="svg" version="1.1" xmlns="http://www.w3.org/2000/svg" xmlns:xlink="http://www.w3.org/1999/xlink" width="400" height="401.86625194401245" viewBox="0, 0, 400,401.86625194401245"><g id="svgg"><path id="path0" d="M0.000 96.043 C 0.000 148.866,0.034 192.047,0.076 191.999 C 0.118 191.952,0.210 190.513,0.282 188.802 C 0.483 183.964,0.713 181.297,1.462 175.117 C 12.709 82.298,89.993 7.831,182.478 0.699 C 183.333 0.633,184.780 0.509,185.692 0.424 C 186.604 0.338,188.328 0.249,189.522 0.227 C 199.037 0.048,179.403 0.000,95.939 0.000 L 0.000 0.000 0.000 96.043 M208.001 0.077 C 208.048 0.119,209.644 0.213,211.547 0.285 C 213.449 0.358,215.129 0.456,215.279 0.503 C 215.429 0.550,216.392 0.643,217.418 0.709 C 220.059 0.878,222.591 1.154,227.890 1.849 C 316.248 13.448,387.991 86.503,398.552 175.635 C 398.681 176.719,398.820 177.816,398.861 178.074 C 398.903 178.332,398.997 179.405,399.070 180.458 C 399.143 181.512,399.238 182.514,399.280 182.685 C 399.374 183.066,399.590 186.328,399.788 190.358 C 399.869 192.011,399.950 149.857,399.968 96.682 L 400.000 0.000 303.957 0.000 C 251.134 0.000,207.953 0.034,208.001 0.077 M88.440 76.231 C 86.223 76.668,85.572 76.856,84.449 77.386 C 81.826 78.623,79.510 81.171,78.610 83.810 C 78.143 85.179,77.684 87.963,77.839 88.491 C 77.897 88.691,78.002 90.301,78.071 92.068 C 78.140 93.836,78.235 95.516,78.282 95.801 C 78.328 96.086,78.427 97.626,78.501 99.222 C 78.574 100.819,78.665 102.452,78.701 102.851 C 78.738 103.250,78.825 104.930,78.894 106.584 C 78.964 108.237,79.059 109.870,79.106 110.213 C 79.153 110.555,79.246 112.188,79.313 113.841 C 79.380 115.495,79.474 117.128,79.521 117.470 C 79.569 117.812,79.662 119.399,79.728 120.995 C 79.794 122.592,79.888 124.272,79.937 124.728 C 79.986 125.184,80.083 126.724,80.152 128.149 C 80.221 129.575,80.311 131.161,80.352 131.674 C 80.394 132.188,80.485 133.961,80.554 135.614 C 80.624 137.268,80.720 138.901,80.768 139.243 C 80.815 139.585,80.909 141.218,80.975 142.872 C 81.041 144.526,81.135 146.159,81.182 146.501 C 81.230 146.843,81.323 148.429,81.388 150.026 C 81.454 151.623,81.547 153.209,81.595 153.551 C 81.643 153.893,81.736 155.480,81.801 157.076 C 81.866 158.673,81.961 160.353,82.011 160.809 C 82.061 161.265,82.154 162.898,82.218 164.438 C 82.281 165.977,82.375 167.610,82.424 168.066 C 82.474 168.523,82.567 170.062,82.631 171.488 C 82.694 172.913,82.789 174.640,82.842 175.324 C 82.895 176.008,82.989 177.595,83.051 178.849 C 83.113 180.104,83.204 181.690,83.254 182.374 C 83.304 183.059,83.398 184.832,83.463 186.314 C 83.527 187.797,83.622 189.430,83.673 189.943 C 83.724 190.456,83.817 191.996,83.879 193.364 C 83.942 194.733,84.035 196.319,84.086 196.890 C 84.138 197.460,84.278 199.886,84.398 202.281 C 84.760 209.544,84.854 210.121,86.099 212.737 C 87.713 216.125,91.211 218.852,95.016 219.689 C 96.392 219.991,105.766 220.016,200.207 219.964 L 303.888 219.907 305.409 219.351 C 309.443 217.878,312.556 214.720,313.756 210.886 C 314.167 209.571,314.418 207.209,314.658 202.385 C 314.723 201.073,314.821 199.393,314.876 198.652 C 314.930 197.911,315.023 196.325,315.082 195.127 C 315.142 193.929,315.236 192.203,315.291 191.291 C 315.529 187.410,315.614 185.897,315.808 182.167 C 315.920 180.000,316.057 177.667,316.114 176.983 C 316.170 176.299,316.267 174.666,316.329 173.354 C 316.391 172.043,316.485 170.410,316.537 169.725 C 316.589 169.041,316.684 167.315,316.747 165.889 C 316.811 164.463,316.904 162.924,316.953 162.468 C 317.003 162.011,317.099 160.378,317.165 158.839 C 317.232 157.299,317.324 155.526,317.370 154.899 C 317.416 154.272,317.508 152.639,317.574 151.270 C 317.640 149.902,317.734 148.409,317.784 147.952 C 317.834 147.496,317.927 145.863,317.990 144.323 C 318.054 142.784,318.147 141.058,318.197 140.487 C 318.247 139.917,318.338 138.377,318.400 137.066 C 318.461 135.754,318.555 134.121,318.608 133.437 C 318.661 132.753,318.756 131.073,318.819 129.705 C 318.882 128.336,318.976 126.703,319.028 126.076 C 319.080 125.448,319.171 123.909,319.231 122.654 C 319.332 120.535,319.426 118.838,319.645 115.189 C 319.694 114.391,319.787 112.805,319.853 111.664 C 319.918 110.524,320.013 108.937,320.062 108.139 C 320.111 107.341,320.206 105.614,320.272 104.303 C 320.339 102.991,320.429 101.452,320.473 100.881 C 321.067 93.151,321.254 86.913,320.935 85.499 C 319.871 80.791,316.283 77.299,311.594 76.410 C 310.075 76.122,89.891 75.946,88.440 76.231 M298.730 95.127 C 298.669 95.441,298.565 96.770,298.498 98.082 C 298.432 99.393,298.339 100.933,298.293 101.503 C 298.246 102.074,298.152 103.473,298.085 104.614 C 297.952 106.853,297.831 108.843,297.669 111.457 C 297.613 112.369,297.518 113.955,297.457 114.982 C 297.397 116.008,297.305 117.408,297.252 118.092 C 297.199 118.777,297.104 120.410,297.040 121.721 C 296.977 123.033,296.886 124.572,296.838 125.143 C 296.791 125.713,296.698 127.206,296.631 128.460 C 296.565 129.715,296.470 131.115,296.420 131.571 C 296.370 132.027,296.278 133.567,296.215 134.992 C 296.152 136.418,296.059 137.957,296.009 138.414 C 295.959 138.870,295.866 140.316,295.802 141.628 C 295.738 142.939,295.644 144.479,295.593 145.049 C 295.541 145.619,295.449 147.112,295.389 148.367 C 295.328 149.622,295.234 151.255,295.180 151.996 C 295.126 152.737,295.033 154.184,294.974 155.210 C 294.915 156.236,294.821 157.776,294.765 158.631 C 294.709 159.487,294.617 160.980,294.561 161.949 C 294.504 162.919,294.319 165.951,294.149 168.688 C 293.978 171.426,293.791 174.505,293.731 175.531 C 293.672 176.558,293.578 178.051,293.523 178.849 C 293.467 179.647,293.372 181.140,293.312 182.167 C 293.251 183.193,293.157 184.733,293.103 185.588 C 293.049 186.444,292.961 187.890,292.906 188.802 C 292.662 192.914,292.564 194.479,292.485 195.542 C 292.439 196.169,292.336 197.825,292.257 199.222 L 292.113 201.763 199.787 201.763 L 107.462 201.763 107.361 201.235 C 107.305 200.945,107.243 199.855,107.222 198.813 C 107.201 197.770,107.149 196.862,107.108 196.795 C 107.066 196.727,106.966 195.228,106.885 193.463 C 106.805 191.698,106.712 190.206,106.680 190.148 C 106.647 190.090,106.554 188.550,106.473 186.727 C 106.392 184.903,106.300 183.364,106.268 183.307 C 106.235 183.250,106.143 181.757,106.061 179.990 C 105.979 178.222,105.886 176.729,105.853 176.671 C 105.820 176.614,105.726 175.074,105.645 173.250 C 105.563 171.425,105.470 169.886,105.438 169.829 C 105.406 169.772,105.313 168.279,105.232 166.511 C 105.150 164.743,105.057 163.250,105.024 163.193 C 104.992 163.136,104.906 161.737,104.834 160.083 C 104.762 158.429,104.664 156.796,104.617 156.454 C 104.569 156.112,104.478 154.852,104.413 153.655 C 104.349 152.457,104.155 149.191,103.984 146.397 C 103.812 143.603,103.626 140.570,103.571 139.658 C 103.515 138.745,103.424 137.299,103.369 136.444 C 103.313 135.588,103.218 134.049,103.157 133.022 C 103.097 131.996,103.007 130.596,102.958 129.912 C 102.909 129.228,102.816 127.548,102.751 126.179 C 102.686 124.811,102.591 123.318,102.540 122.862 C 102.489 122.405,102.396 120.912,102.332 119.544 C 102.268 118.175,102.175 116.682,102.126 116.226 C 102.076 115.770,101.984 114.323,101.921 113.012 C 101.857 111.700,101.759 110.067,101.702 109.383 C 101.606 108.223,101.333 103.688,101.085 99.119 C 101.026 98.035,100.926 96.566,100.861 95.853 L 100.745 94.557 199.793 94.557 L 298.841 94.557 298.730 95.127 M254.432 127.855 C 247.418 130.295,241.598 132.321,241.498 132.355 C 241.398 132.389,243.004 133.860,245.065 135.623 C 247.127 137.386,248.795 138.933,248.772 139.061 C 248.740 139.239,227.913 160.705,227.772 160.705 C 227.755 160.705,226.757 160.245,225.554 159.682 C 224.352 159.119,217.737 156.094,210.855 152.959 C 203.972 149.825,195.355 145.898,191.706 144.233 C 188.056 142.568,184.960 141.230,184.826 141.261 C 184.692 141.292,179.562 148.491,173.426 157.259 L 162.269 173.201 156.977 173.058 C 154.066 172.979,151.498 172.879,151.270 172.834 C 151.042 172.790,148.802 172.700,146.293 172.635 C 143.784 172.569,141.218 172.473,140.591 172.421 C 139.964 172.369,137.724 172.276,135.614 172.215 C 133.504 172.153,130.612 172.056,129.186 171.999 C 122.960 171.748,121.868 171.702,118.974 171.569 L 115.915 171.428 115.903 172.961 C 115.896 173.805,115.841 175.451,115.780 176.620 L 115.669 178.745 116.777 178.778 C 117.386 178.796,118.118 178.828,118.403 178.850 C 118.688 178.872,120.928 178.953,123.380 179.029 C 125.832 179.105,128.351 179.210,128.979 179.262 C 129.606 179.314,131.846 179.407,133.955 179.467 C 136.065 179.528,138.678 179.622,139.762 179.678 C 140.845 179.733,143.131 179.826,144.842 179.884 C 149.095 180.027,153.388 180.193,155.625 180.299 C 156.651 180.348,159.404 180.448,161.742 180.522 L 165.993 180.656 176.568 165.504 C 182.385 157.170,187.214 150.348,187.301 150.344 C 187.475 150.336,193.597 153.107,218.661 164.537 L 229.441 169.453 237.416 161.295 C 241.801 156.808,247.458 151.048,249.986 148.496 L 254.582 143.856 258.224 147.010 C 260.228 148.745,261.942 150.161,262.035 150.156 C 262.127 150.152,262.455 148.814,262.765 147.184 C 263.075 145.554,263.620 142.680,263.977 140.798 C 264.333 138.917,264.753 136.724,264.909 135.925 C 265.065 135.127,265.484 132.934,265.839 131.052 C 266.195 129.171,266.671 126.710,266.897 125.584 C 267.122 124.458,267.280 123.510,267.246 123.477 C 267.212 123.444,261.446 125.414,254.432 127.855 M399.707 210.524 C 399.625 212.605,399.529 214.541,399.494 214.826 C 399.459 215.111,399.369 216.185,399.295 217.211 C 397.992 235.061,392.928 256.400,385.739 274.339 C 357.346 345.186,289.970 394.475,214.663 399.489 C 213.669 399.555,211.690 399.693,210.264 399.795 C 207.738 399.976,189.523 399.911,188.077 399.716 C 187.678 399.662,186.511 399.563,185.485 399.496 C 183.344 399.355,179.448 399.019,178.227 398.870 C 177.771 398.814,176.558 398.667,175.531 398.542 C 88.474 387.941,17.783 320.807,2.934 234.629 C 2.368 231.348,2.218 230.387,1.664 226.542 C 1.381 224.573,0.836 219.429,0.709 217.522 C 0.651 216.667,0.564 215.708,0.514 215.391 C 0.464 215.074,0.362 213.301,0.287 211.451 C 0.213 209.601,0.118 208.048,0.076 208.001 C 0.034 207.953,0.000 251.553,0.000 304.890 L 0.000 401.866 200.000 401.866 L 400.000 401.866 400.000 304.303 C 400.000 250.643,399.968 206.739,399.928 206.739 C 399.889 206.739,399.789 208.442,399.707 210.524 M95.905 224.463 C 91.939 225.195,88.235 227.668,85.959 231.104 C 84.367 233.508,84.318 233.689,81.908 246.138 C 81.102 250.301,80.169 255.106,79.834 256.817 C 78.721 262.506,76.139 275.821,75.069 281.389 C 74.488 284.412,73.878 287.538,73.713 288.336 C 73.549 289.134,72.849 292.727,72.158 296.319 C 70.962 302.540,69.863 308.180,68.421 315.500 C 66.881 323.317,68.916 327.945,74.713 329.807 L 76.330 330.327 199.263 330.327 L 322.196 330.327 323.617 329.889 C 328.816 328.287,331.799 322.997,330.538 317.614 C 330.426 317.136,329.815 314.038,329.181 310.731 C 328.547 307.424,327.894 304.064,327.730 303.266 C 327.567 302.468,326.916 299.108,326.284 295.801 C 325.652 292.494,325.000 289.134,324.835 288.336 C 324.671 287.538,324.060 284.412,323.479 281.389 C 322.899 278.367,322.106 274.261,321.718 272.265 C 321.330 270.270,320.353 265.231,319.547 261.068 C 318.741 256.905,317.948 252.846,317.784 252.048 C 317.620 251.249,316.967 247.890,316.333 244.583 C 314.310 234.027,314.143 233.419,312.638 231.159 C 310.291 227.636,306.605 225.188,302.540 224.453 C 300.287 224.046,98.113 224.055,95.905 224.463 M254.121 237.410 L 286.470 237.541 287.818 238.017 C 291.827 239.434,295.400 242.941,296.438 246.479 C 296.610 247.066,297.637 252.385,298.720 258.299 C 299.803 264.213,301.622 274.137,302.762 280.353 C 308.385 310.994,307.975 308.327,307.404 310.532 C 306.748 313.070,305.247 314.859,302.748 316.084 L 301.400 316.744 198.341 316.744 L 95.283 316.744 93.897 316.088 C 90.748 314.596,88.685 311.144,89.090 308.045 C 89.284 306.565,89.409 305.860,89.790 304.095 C 90.012 303.069,91.039 298.170,92.071 293.209 C 93.103 288.248,94.130 283.349,94.353 282.322 C 94.575 281.296,95.415 277.284,96.219 273.406 C 97.022 269.528,97.862 265.516,98.084 264.489 C 98.306 263.463,99.145 259.450,99.948 255.573 C 101.831 246.483,101.926 246.101,102.669 244.602 C 104.389 241.134,107.758 238.377,111.560 237.325 C 112.739 236.999,159.937 237.027,254.121 237.410 M119.285 247.596 C 119.028 247.699,118.815 247.903,118.811 248.049 C 118.704 251.987,118.724 254.612,118.864 254.899 C 119.109 255.403,126.900 255.457,127.315 254.957 C 128.147 253.954,127.778 247.925,126.864 247.606 C 126.091 247.337,119.950 247.328,119.285 247.596 M133.126 247.643 C 132.534 247.951,132.191 254.323,132.731 254.975 C 133.032 255.337,140.896 255.400,141.117 255.042 C 141.364 254.642,141.272 247.980,141.016 247.723 C 140.656 247.363,133.800 247.293,133.126 247.643 M146.812 247.643 C 146.232 247.944,145.891 253.900,146.399 254.851 C 146.730 255.469,154.555 255.489,154.885 254.873 C 155.202 254.281,155.070 248.092,154.734 247.755 C 154.344 247.365,147.534 247.268,146.812 247.643 M160.705 247.519 C 159.973 247.796,159.876 248.251,159.876 251.375 C 159.876 255.614,159.461 255.262,164.450 255.262 L 168.595 255.262 168.811 254.693 C 169.127 253.863,168.973 248.101,168.627 247.755 C 168.348 247.476,161.366 247.269,160.705 247.519 M174.432 247.523 C 173.715 247.670,173.561 248.373,173.561 251.497 C 173.561 255.532,173.225 255.262,178.244 255.262 L 182.281 255.262 182.483 254.730 C 182.815 253.858,182.741 248.367,182.391 247.888 C 182.102 247.492,175.962 247.210,174.432 247.523 M187.921 247.589 C 187.372 247.818,187.177 254.486,187.703 255.013 C 188.117 255.427,195.624 255.357,196.045 254.936 C 196.541 254.440,196.527 248.184,196.029 247.770 C 195.618 247.429,188.679 247.274,187.921 247.589 M201.843 247.578 C 201.603 247.679,201.353 247.900,201.288 248.068 C 201.098 248.563,201.182 254.502,201.385 254.899 C 201.650 255.420,209.214 255.453,209.731 254.936 C 210.227 254.440,210.212 248.184,209.715 247.770 C 209.312 247.436,202.575 247.271,201.843 247.578 M215.500 247.587 C 215.244 247.695,215.027 247.903,215.019 248.049 C 214.907 250.049,215.072 254.747,215.262 254.976 C 215.582 255.361,223.112 255.395,223.494 255.013 C 223.853 254.654,223.844 247.887,223.484 247.654 C 223.111 247.412,216.056 247.354,215.500 247.587 M229.180 247.705 C 228.637 248.086,228.451 254.496,228.968 255.013 C 229.144 255.189,230.351 255.262,233.074 255.262 C 237.837 255.262,237.429 255.636,237.429 251.275 L 237.429 247.787 236.897 247.584 C 235.964 247.230,229.719 247.327,229.180 247.705 M243.027 247.643 C 242.435 247.951,242.092 254.323,242.633 254.975 C 242.954 255.361,250.690 255.396,251.073 255.013 C 251.498 254.588,251.415 248.132,250.980 247.770 C 250.494 247.366,243.768 247.259,243.027 247.643 M256.857 247.521 C 256.039 247.747,255.674 253.744,256.414 254.801 C 256.795 255.345,264.237 255.535,264.759 255.013 C 265.184 254.588,265.101 248.132,264.666 247.770 C 264.323 247.485,257.745 247.275,256.857 247.521 M270.451 247.596 C 269.902 247.817,269.706 254.486,270.233 255.013 C 270.496 255.276,277.717 255.385,278.366 255.136 C 278.647 255.028,278.694 254.500,278.694 251.398 L 278.694 247.787 278.162 247.584 C 277.497 247.332,271.084 247.341,270.451 247.596 M119.077 260.038 C 118.619 260.222,118.611 260.288,118.611 263.750 C 118.611 268.051,118.224 267.703,123.009 267.703 C 127.861 267.703,127.527 268.001,127.527 263.668 L 127.527 260.279 126.874 260.051 C 126.090 259.778,119.751 259.767,119.077 260.038 M132.919 260.001 L 132.400 260.153 132.342 263.565 C 132.265 267.992,131.964 267.703,136.661 267.703 C 138.579 267.703,140.389 267.612,140.681 267.501 L 141.213 267.299 141.213 263.781 C 141.213 261.194,141.144 260.219,140.954 260.095 C 140.623 259.881,133.608 259.799,132.919 260.001 M146.656 260.038 C 146.008 260.298,145.916 267.128,146.556 267.470 C 147.079 267.750,153.965 267.774,154.482 267.497 C 154.875 267.287,154.899 267.069,154.899 263.751 L 154.899 260.228 154.367 260.026 C 153.702 259.773,147.290 259.783,146.656 260.038 M160.342 260.029 C 159.646 260.322,159.608 267.131,160.300 267.502 C 160.995 267.873,168.340 267.685,168.589 267.289 C 168.899 266.798,168.848 260.299,168.533 260.095 C 168.160 259.854,160.899 259.796,160.342 260.029 M174.184 260.005 L 173.665 260.153 173.608 263.609 C 173.552 267.006,173.560 267.071,174.023 267.370 C 174.590 267.736,181.033 267.848,181.930 267.507 L 182.478 267.299 182.478 263.764 C 182.478 260.252,182.475 260.227,181.995 260.044 C 181.419 259.826,174.927 259.793,174.184 260.005 M187.869 260.001 L 187.351 260.153 187.292 263.565 C 187.216 267.998,186.904 267.703,191.682 267.703 C 196.493 267.703,196.164 268.000,196.164 263.660 C 196.164 261.170,196.095 260.218,195.905 260.095 C 195.573 259.881,188.558 259.799,187.869 260.001 M201.607 260.038 C 200.930 260.310,200.870 267.129,201.542 267.489 C 202.054 267.763,208.602 267.773,209.318 267.501 L 209.850 267.299 209.850 263.692 L 209.850 260.085 209.072 259.957 C 207.893 259.762,202.138 259.824,201.607 260.038 M215.448 260.001 L 214.930 260.153 214.871 263.565 C 214.795 267.998,214.482 267.703,219.268 267.703 C 223.989 267.703,223.639 268.024,223.639 263.694 C 223.639 261.812,223.562 260.195,223.467 260.100 C 223.250 259.883,216.150 259.795,215.448 260.001 M229.134 260.001 L 228.616 260.153 228.557 263.565 C 228.481 267.992,228.180 267.703,232.876 267.703 C 234.795 267.703,236.604 267.612,236.897 267.501 L 237.429 267.299 237.429 263.781 C 237.429 261.194,237.360 260.219,237.170 260.095 C 236.838 259.881,229.823 259.799,229.134 260.001 M242.820 260.089 L 242.302 260.354 242.302 263.764 L 242.302 267.173 242.820 267.435 C 243.469 267.763,250.116 267.809,250.713 267.489 C 251.086 267.289,251.115 267.021,251.115 263.676 L 251.115 260.077 250.441 259.960 C 249.054 259.718,243.355 259.815,242.820 260.089 M256.558 260.029 C 255.800 260.347,255.833 266.902,256.594 267.401 C 257.234 267.821,264.193 267.773,264.619 267.346 C 264.948 267.017,264.920 260.482,264.588 260.150 C 264.304 259.865,257.203 259.758,256.558 260.029 M270.583 260.024 C 269.705 260.557,269.363 276.527,270.195 278.175 L 270.508 278.797 274.235 278.797 L 277.962 278.797 278.273 278.175 C 278.983 276.753,278.797 260.882,278.061 260.144 C 277.777 259.860,271.033 259.751,270.583 260.024 M254.173 271.875 C 253.639 272.175,253.622 278.695,254.155 279.135 C 254.643 279.538,264.608 279.526,265.096 279.121 C 265.652 278.660,265.575 272.154,265.010 271.852 C 264.479 271.568,254.683 271.589,254.173 271.875 M119.233 272.559 L 118.507 272.820 118.450 276.050 L 118.393 279.280 119.176 279.557 C 120.309 279.958,138.474 279.960,139.606 279.559 L 140.384 279.284 140.384 276.075 L 140.384 272.866 139.665 272.566 C 138.682 272.155,120.369 272.149,119.233 272.559 M143.950 272.514 C 143.591 272.873,143.601 279.433,143.961 279.666 C 144.369 279.930,153.538 279.985,154.488 279.729 L 155.314 279.507 155.314 276.135 C 155.314 273.789,155.238 272.687,155.065 272.514 C 154.884 272.334,153.360 272.265,149.508 272.265 C 145.655 272.265,144.131 272.334,143.950 272.514 M160.546 272.894 C 159.129 273.466,159.300 278.871,160.749 279.289 C 161.718 279.569,247.258 279.581,248.271 279.301 C 249.323 279.011,249.456 278.645,249.456 276.035 C 249.456 274.107,249.396 273.689,249.059 273.273 L 248.663 272.784 204.839 272.744 C 178.773 272.721,160.826 272.782,160.546 272.894 M179.164 290.157 C 178.182 290.654,178.130 291.026,178.126 297.522 C 178.123 304.135,178.198 304.623,179.287 305.037 C 180.092 305.343,216.181 305.302,216.758 304.995 C 217.709 304.488,217.716 304.431,217.716 297.564 C 217.716 290.696,217.709 290.639,216.758 290.132 C 216.078 289.770,179.882 289.794,179.164 290.157 " stroke="none" fill="#fbfbfb" fill-rule="evenodd"></path><path id="path1" d="M191.507 0.229 C 78.126 5.005,-8.704 103.480,0.733 216.589 C 8.693 311.991,83.464 388.635,178.434 398.741 C 296.983 411.357,399.844 318.973,399.829 199.896 C 399.816 86.163,305.162 -4.558,191.507 0.229 M312.265 76.420 C 317.775 77.719,321.332 82.484,321.237 88.440 C 321.148 94.067,314.364 209.182,314.053 210.349 C 312.903 214.660,309.232 218.317,304.614 219.754 C 303.201 220.193,99.558 220.437,96.222 220.004 C 90.644 219.279,86.165 215.257,84.910 209.850 C 84.630 208.641,77.757 91.039,77.760 87.498 C 77.764 82.582,81.795 77.596,86.733 76.400 C 88.512 75.968,310.435 75.989,312.265 76.420 M100.985 95.149 C 100.985 95.474,102.431 119.222,104.199 147.922 C 105.967 176.622,107.413 200.430,107.413 200.830 L 107.413 201.555 199.674 201.555 L 291.935 201.555 292.052 200.467 C 292.117 199.868,293.568 176.423,295.278 148.367 C 296.988 120.311,298.445 96.726,298.515 95.956 L 298.642 94.557 199.814 94.557 L 100.985 94.557 100.985 95.149 M267.371 123.743 C 267.324 123.942,266.165 129.984,264.796 137.170 C 263.427 144.355,262.281 150.314,262.249 150.414 C 262.218 150.513,260.494 149.128,258.419 147.337 C 256.344 145.545,254.563 144.111,254.462 144.150 C 254.360 144.188,248.711 149.912,241.909 156.869 C 235.107 163.826,229.426 169.489,229.286 169.454 C 229.051 169.395,188.390 150.916,187.643 150.529 C 187.377 150.391,185.261 153.295,176.653 165.610 L 165.993 180.862 163.815 180.747 C 162.618 180.683,151.327 180.240,138.725 179.762 C 126.122 179.284,115.755 178.836,115.686 178.767 C 115.554 178.635,115.795 171.530,115.936 171.409 C 115.982 171.370,126.373 171.745,139.029 172.242 C 157.375 172.962,162.090 173.092,162.288 172.886 C 162.424 172.744,167.495 165.537,173.557 156.869 C 179.618 148.201,184.649 141.084,184.736 141.052 C 184.823 141.021,194.545 145.395,206.340 150.774 L 227.786 160.552 233.343 154.874 C 236.399 151.752,241.128 146.906,243.851 144.106 L 248.803 139.015 244.979 135.728 C 242.876 133.919,241.195 132.401,241.243 132.353 C 241.410 132.186,266.773 123.398,267.114 123.389 C 267.338 123.383,267.427 123.507,267.371 123.743 M303.655 224.566 C 308.533 225.813,313.056 230.073,314.450 234.733 C 315.011 236.608,330.784 318.073,330.891 319.647 C 331.199 324.181,328.473 328.254,323.986 329.963 L 322.758 330.430 199.274 330.430 L 75.791 330.430 74.563 329.963 C 70.075 328.254,67.348 324.179,67.659 319.647 C 67.768 318.051,83.600 236.298,84.122 234.629 C 85.561 230.037,90.038 225.826,94.812 224.575 C 97.223 223.944,301.186 223.934,303.655 224.566 M112.789 237.254 C 108.806 237.773,104.689 240.805,102.837 244.583 C 102.074 246.139,89.754 303.446,89.248 307.793 C 88.748 312.083,91.832 315.981,96.263 316.658 C 97.084 316.784,135.010 316.837,199.171 316.801 L 300.778 316.744 301.980 316.290 C 305.434 314.985,307.517 312.003,307.517 308.365 C 307.517 306.618,296.729 247.582,296.111 245.951 C 294.712 242.255,291.081 239.037,287.092 237.959 C 285.797 237.608,285.136 237.605,136.755 237.170 C 124.209 237.134,113.425 237.171,112.789 237.254 M127.355 247.725 C 127.693 248.031,127.735 248.437,127.735 251.446 C 127.735 255.768,128.074 255.469,123.173 255.469 C 118.262 255.469,118.611 255.784,118.611 251.352 C 118.611 248.928,118.686 247.805,118.860 247.631 C 119.286 247.204,126.872 247.288,127.355 247.725 M141.172 247.631 C 141.346 247.805,141.420 248.955,141.420 251.472 L 141.420 255.065 140.889 255.267 C 139.774 255.691,133.176 255.519,132.711 255.054 C 132.152 254.495,132.077 248.617,132.619 247.843 C 133.001 247.298,140.649 247.109,141.172 247.631 M154.857 247.631 C 155.032 247.805,155.106 248.955,155.106 251.472 L 155.106 255.065 154.574 255.267 C 153.594 255.639,147.008 255.524,146.569 255.126 C 146.100 254.702,145.985 248.085,146.439 247.631 C 146.790 247.280,154.506 247.280,154.857 247.631 M168.751 247.631 C 169.055 247.936,169.097 254.579,168.797 255.054 C 168.493 255.536,161.091 255.634,160.377 255.166 C 159.796 254.786,159.575 248.181,160.124 247.631 C 160.476 247.279,168.399 247.279,168.751 247.631 M182.436 247.631 C 182.611 247.805,182.685 248.955,182.685 251.472 L 182.685 255.065 182.153 255.267 C 181.218 255.623,174.562 255.524,174.022 255.146 C 173.401 254.711,173.301 248.428,173.905 247.761 C 174.330 247.291,181.980 247.174,182.436 247.631 M195.970 247.597 C 196.342 247.796,196.371 248.063,196.371 251.317 C 196.371 255.789,196.723 255.469,191.809 255.469 C 186.912 255.469,187.247 255.762,187.247 251.482 C 187.247 247.051,186.883 247.382,191.751 247.382 C 193.986 247.382,195.735 247.471,195.970 247.597 M209.656 247.597 C 210.029 247.796,210.057 248.064,210.057 251.400 L 210.057 254.988 209.529 255.229 C 208.876 255.526,202.437 255.558,201.672 255.267 L 201.140 255.065 201.140 251.472 C 201.140 248.955,201.215 247.805,201.389 247.631 C 201.709 247.311,209.066 247.281,209.656 247.597 M223.627 247.843 C 224.170 248.617,224.095 254.495,223.536 255.054 C 222.974 255.616,216.068 255.693,215.287 255.146 C 214.680 254.721,214.563 248.297,215.152 247.708 C 215.745 247.115,223.201 247.234,223.627 247.843 M237.310 247.708 C 237.580 247.978,237.636 248.619,237.636 251.429 C 237.636 255.771,237.977 255.469,233.074 255.469 C 228.177 255.469,228.512 255.762,228.512 251.482 C 228.512 247.046,228.136 247.382,233.091 247.382 C 236.354 247.382,237.037 247.435,237.310 247.708 M251.228 247.887 C 251.760 248.698,251.589 254.762,251.023 255.175 C 250.479 255.573,243.598 255.594,242.820 255.201 C 242.303 254.940,242.302 254.932,242.245 251.546 C 242.169 247.031,241.777 247.382,246.891 247.382 L 250.898 247.382 251.228 247.887 M264.892 247.843 C 265.341 248.484,265.365 254.355,264.921 254.963 C 264.508 255.529,257.411 255.702,256.593 255.167 C 255.917 254.724,255.795 248.171,256.454 247.671 C 257.170 247.127,264.496 247.276,264.892 247.843 M278.575 247.708 C 278.845 247.978,278.901 248.619,278.901 251.429 C 278.901 255.771,279.242 255.469,274.339 255.469 C 269.442 255.469,269.777 255.762,269.777 251.482 C 269.777 247.046,269.401 247.382,274.356 247.382 C 277.619 247.382,278.302 247.435,278.575 247.708 M127.278 260.073 C 127.452 260.246,127.527 261.363,127.527 263.764 C 127.527 266.164,127.452 267.281,127.278 267.455 C 126.851 267.882,119.265 267.797,118.783 267.360 C 118.219 266.850,118.205 260.375,118.766 260.048 C 119.306 259.733,126.962 259.756,127.278 260.073 M141.220 260.251 C 141.589 260.941,141.403 267.251,141.006 267.501 C 140.411 267.876,132.902 267.752,132.468 267.360 C 131.905 266.850,131.890 260.375,132.452 260.048 C 133.238 259.590,140.962 259.769,141.220 260.251 M154.857 260.073 C 155.175 260.390,155.205 266.717,154.892 267.302 C 154.594 267.858,146.856 267.926,146.308 267.378 C 145.889 266.958,145.820 260.484,146.231 260.073 C 146.583 259.721,154.506 259.721,154.857 260.073 M168.464 259.950 C 168.746 260.058,168.792 260.592,168.792 263.764 C 168.792 266.935,168.746 267.469,168.464 267.578 C 167.633 267.896,160.434 267.710,160.047 267.360 C 159.484 266.850,159.470 260.375,160.031 260.048 C 160.420 259.821,167.903 259.734,168.464 259.950 M182.373 260.163 C 182.851 260.642,182.760 267.192,182.271 267.501 C 181.530 267.968,174.027 267.743,173.677 267.243 C 173.201 266.564,173.204 260.626,173.680 260.150 C 174.176 259.654,181.875 259.666,182.373 260.163 M195.970 260.038 C 196.537 260.342,196.588 266.706,196.028 267.324 C 195.602 267.795,187.953 267.912,187.496 267.455 C 187.135 267.094,187.145 260.107,187.506 259.961 C 188.019 259.754,195.568 259.823,195.970 260.038 M209.808 260.073 C 210.157 260.422,210.157 267.105,209.808 267.455 C 209.330 267.933,201.411 267.793,201.148 267.302 C 200.835 266.717,200.865 260.390,201.182 260.073 C 201.533 259.721,209.457 259.721,209.808 260.073 M223.415 259.950 C 223.839 260.112,223.912 267.037,223.494 267.455 C 223.067 267.882,215.481 267.797,214.998 267.360 C 214.467 266.879,214.421 260.673,214.945 260.150 C 215.279 259.815,222.614 259.642,223.415 259.950 M237.235 260.038 C 237.802 260.342,237.852 266.706,237.293 267.324 C 236.711 267.968,229.085 267.896,228.628 267.243 C 228.152 266.564,228.155 260.626,228.631 260.150 C 229.022 259.758,236.531 259.661,237.235 260.038 M251.073 260.073 C 251.247 260.246,251.322 261.363,251.322 263.764 C 251.322 266.164,251.247 267.281,251.073 267.455 C 250.722 267.806,242.798 267.806,242.447 267.455 C 242.098 267.105,242.098 260.422,242.447 260.073 C 242.798 259.721,250.722 259.721,251.073 260.073 M264.607 260.038 C 264.979 260.238,265.008 260.505,265.008 263.764 C 265.008 268.061,265.429 267.703,260.368 267.703 C 255.549 267.703,255.884 268.008,255.884 263.629 C 255.884 261.039,255.942 260.417,256.210 260.150 C 256.601 259.759,263.903 259.662,264.607 260.038 M278.393 260.543 C 278.777 261.460,278.840 276.968,278.464 278.045 C 278.124 279.021,277.776 279.108,274.235 279.108 C 270.695 279.108,270.346 279.021,270.006 278.045 C 269.631 276.968,269.694 261.460,270.078 260.543 L 270.378 259.824 274.235 259.824 L 278.093 259.824 278.393 260.543 M265.304 271.969 C 265.573 272.238,265.630 272.871,265.630 275.586 C 265.630 279.888,266.192 279.523,259.570 279.523 C 253.071 279.523,253.603 279.882,253.603 275.494 C 253.603 271.255,252.996 271.643,259.616 271.643 C 264.214 271.643,265.025 271.690,265.304 271.969 M139.922 272.533 L 140.601 272.904 140.544 276.143 L 140.487 279.383 139.762 279.645 C 138.751 280.009,120.294 280.029,119.233 279.667 L 118.507 279.419 118.450 276.183 C 118.389 272.694,118.381 272.722,119.544 272.306 C 120.730 271.881,139.103 272.085,139.922 272.533 M155.060 272.381 C 155.730 272.850,155.783 279.368,155.120 279.723 C 154.404 280.106,144.214 280.006,143.820 279.612 C 143.271 279.063,143.346 273.036,143.909 272.473 C 144.475 271.907,154.268 271.826,155.060 272.381 M249.087 273.048 C 250.102 274.063,249.808 278.906,248.705 279.325 C 247.901 279.631,161.014 279.591,160.432 279.285 C 159.714 278.907,159.675 278.736,159.671 275.971 C 159.668 273.145,159.711 273.026,160.847 272.683 C 161.168 272.586,181.047 272.522,205.023 272.541 L 248.615 272.576 249.087 273.048 M217.400 290.529 L 217.937 291.167 217.937 297.564 L 217.937 303.960 217.400 304.598 L 216.863 305.236 198.002 305.236 L 179.141 305.236 178.632 304.727 L 178.123 304.218 178.123 297.564 L 178.123 290.909 178.632 290.400 L 179.141 289.891 198.002 289.891 L 216.863 289.891 217.400 290.529 " stroke="none" fill="#545ca3" fill-rule="evenodd"></path><path id="path2" d="M60.746 56.350 L 60.031 57.128 60.809 56.413 C 61.236 56.020,61.586 55.670,61.586 55.636 C 61.586 55.477,61.411 55.627,60.746 56.350 M341.317 58.580 C 342.281 59.549,343.117 60.342,343.174 60.342 C 343.231 60.342,342.488 59.549,341.524 58.580 C 340.560 57.610,339.724 56.817,339.667 56.817 C 339.610 56.817,340.352 57.610,341.317 58.580 M56.184 60.912 L 55.469 61.690 56.247 60.975 C 56.674 60.582,57.024 60.232,57.024 60.198 C 57.024 60.039,56.849 60.189,56.184 60.912 M247.271 140.643 L 246.242 141.731 247.330 140.702 C 247.929 140.136,248.419 139.647,248.419 139.614 C 248.419 139.459,248.227 139.631,247.271 140.643 M248.827 149.663 L 247.693 150.855 248.885 149.722 C 249.993 148.669,250.173 148.471,250.019 148.471 C 249.986 148.471,249.450 149.007,248.827 149.663 M238.147 149.974 L 237.118 151.063 238.206 150.034 C 238.805 149.468,239.295 148.978,239.295 148.945 C 239.295 148.790,239.103 148.962,238.147 149.974 M239.703 158.994 L 238.569 160.187 239.762 159.053 C 240.869 158.000,241.049 157.802,240.895 157.802 C 240.863 157.802,240.326 158.339,239.703 158.994 M228.817 159.513 L 227.579 160.809 228.875 159.571 C 230.079 158.421,230.266 158.217,230.113 158.217 C 230.081 158.217,229.497 158.800,228.817 159.513 M230.579 168.326 L 229.445 169.518 230.638 168.384 C 231.745 167.332,231.925 167.133,231.771 167.133 C 231.739 167.133,231.202 167.670,230.579 168.326 M58.476 341.420 C 59.440 342.390,60.276 343.183,60.333 343.183 C 60.390 343.183,59.648 342.390,58.683 341.420 C 57.719 340.451,56.883 339.658,56.826 339.658 C 56.769 339.658,57.512 340.451,58.476 341.420 " stroke="none" fill="#9494bc" fill-rule="evenodd"></path><path id="path3" d="M192.172 0.146 C 192.429 0.196,192.849 0.196,193.105 0.146 C 193.362 0.097,193.152 0.056,192.639 0.056 C 192.125 0.056,191.916 0.097,192.172 0.146 M206.897 0.147 C 207.155 0.196,207.528 0.194,207.727 0.142 C 207.925 0.091,207.714 0.050,207.258 0.052 C 206.801 0.055,206.639 0.097,206.897 0.147 M338.414 55.638 C 338.414 55.673,338.717 55.977,339.088 56.312 L 339.762 56.921 339.152 56.247 C 338.585 55.619,338.414 55.478,338.414 55.638 M240.532 147.589 L 239.399 148.782 240.591 147.648 C 241.699 146.595,241.878 146.397,241.724 146.397 C 241.692 146.397,241.155 146.934,240.532 147.589 M119.699 171.631 C 119.899 171.683,120.226 171.683,120.425 171.631 C 120.625 171.579,120.461 171.536,120.062 171.536 C 119.663 171.536,119.500 171.579,119.699 171.631 M141.058 172.460 C 141.257 172.512,141.584 172.512,141.783 172.460 C 141.983 172.408,141.820 172.365,141.420 172.365 C 141.021 172.365,140.858 172.408,141.058 172.460 M151.739 172.879 C 151.997 172.928,152.370 172.926,152.569 172.874 C 152.767 172.823,152.556 172.782,152.100 172.784 C 151.643 172.787,151.481 172.829,151.739 172.879 M127.685 179.307 C 127.943 179.356,128.316 179.355,128.515 179.303 C 128.713 179.251,128.502 179.210,128.046 179.212 C 127.589 179.215,127.427 179.257,127.685 179.307 M138.362 179.718 C 138.561 179.770,138.888 179.770,139.088 179.718 C 139.287 179.666,139.124 179.623,138.725 179.623 C 138.326 179.623,138.162 179.666,138.362 179.718 M0.052 192.742 C 0.055 193.199,0.097 193.361,0.147 193.103 C 0.196 192.845,0.194 192.472,0.142 192.273 C 0.091 192.075,0.050 192.286,0.052 192.742 M399.852 194.194 C 399.854 194.764,399.894 194.973,399.941 194.658 C 399.989 194.342,399.988 193.876,399.939 193.621 C 399.889 193.366,399.850 193.624,399.852 194.194 M399.852 205.806 C 399.854 206.376,399.894 206.585,399.941 206.270 C 399.989 205.955,399.988 205.488,399.939 205.233 C 399.889 204.978,399.850 205.236,399.852 205.806 M0.052 207.258 C 0.055 207.714,0.097 207.876,0.147 207.618 C 0.196 207.360,0.194 206.987,0.142 206.789 C 0.091 206.590,0.050 206.801,0.052 207.258 M218.417 237.377 C 221.020 237.410,225.219 237.410,227.749 237.377 C 230.279 237.344,228.149 237.317,223.017 237.317 C 217.885 237.317,215.815 237.344,218.417 237.377 M187.332 251.322 C 187.332 253.204,187.363 253.974,187.402 253.033 C 187.440 252.092,187.440 250.552,187.402 249.611 C 187.363 248.670,187.332 249.440,187.332 251.322 M269.861 251.426 C 269.861 253.250,269.893 253.969,269.932 253.023 C 269.970 252.076,269.970 250.583,269.931 249.705 C 269.892 248.827,269.861 249.601,269.861 251.426 M278.778 251.426 C 278.778 253.250,278.810 253.969,278.848 253.023 C 278.887 252.076,278.886 250.583,278.848 249.705 C 278.809 248.827,278.777 249.601,278.778 251.426 M196.248 263.660 C 196.248 265.485,196.280 266.203,196.318 265.257 C 196.357 264.311,196.357 262.818,196.318 261.939 C 196.279 261.061,196.247 261.835,196.248 263.660 M209.934 263.660 C 209.934 265.485,209.966 266.203,210.004 265.257 C 210.043 264.311,210.042 262.818,210.004 261.939 C 209.965 261.061,209.933 261.835,209.934 263.660 M118.487 263.764 C 118.487 265.531,118.519 266.255,118.557 265.371 C 118.596 264.487,118.596 263.040,118.557 262.157 C 118.519 261.273,118.487 261.996,118.487 263.764 M265.506 275.583 C 265.506 277.351,265.538 278.074,265.577 277.190 C 265.616 276.306,265.616 274.860,265.577 273.976 C 265.538 273.092,265.506 273.815,265.506 275.583 M217.821 297.564 C 217.821 300.928,217.850 302.304,217.884 300.622 C 217.919 298.940,217.919 296.187,217.884 294.505 C 217.850 292.823,217.821 294.199,217.821 297.564 " stroke="none" fill="#a4a4d4" fill-rule="evenodd"></path><path id="path4" d="M125.091 171.838 C 125.290 171.890,125.617 171.890,125.816 171.838 C 126.016 171.786,125.853 171.743,125.454 171.743 C 125.054 171.743,124.891 171.786,125.091 171.838 M135.874 172.253 C 136.073 172.305,136.400 172.305,136.599 172.253 C 136.799 172.201,136.636 172.158,136.236 172.158 C 135.837 172.158,135.674 172.201,135.874 172.253 M146.449 172.668 C 146.649 172.720,146.975 172.720,147.175 172.668 C 147.374 172.615,147.211 172.573,146.812 172.573 C 146.413 172.573,146.249 172.615,146.449 172.668 M115.756 174.598 C 115.756 174.997,115.798 175.161,115.851 174.961 C 115.903 174.762,115.903 174.435,115.851 174.235 C 115.798 174.036,115.756 174.199,115.756 174.598 M132.970 179.510 C 133.170 179.563,133.497 179.563,133.696 179.510 C 133.896 179.458,133.733 179.416,133.333 179.416 C 132.934 179.416,132.771 179.458,132.970 179.510 M143.546 179.925 C 143.745 179.977,144.072 179.977,144.272 179.925 C 144.471 179.873,144.308 179.830,143.909 179.830 C 143.510 179.830,143.346 179.873,143.546 179.925 M154.329 180.340 C 154.528 180.392,154.855 180.392,155.054 180.340 C 155.254 180.288,155.091 180.245,154.692 180.245 C 154.292 180.245,154.129 180.288,154.329 180.340 M164.904 180.755 C 165.104 180.807,165.430 180.807,165.630 180.755 C 165.829 180.702,165.666 180.660,165.267 180.660 C 164.868 180.660,164.705 180.702,164.904 180.755 M200.000 201.555 L 107.932 201.660 199.936 201.711 C 261.104 201.745,291.983 201.693,292.068 201.555 C 292.139 201.441,292.168 201.371,292.133 201.399 C 292.097 201.428,250.638 201.498,200.000 201.555 M145.115 237.169 C 147.661 237.202,151.766 237.202,154.239 237.169 C 156.712 237.136,154.629 237.109,149.611 237.109 C 144.593 237.109,142.570 237.136,145.115 237.169 M228.596 251.322 C 228.596 253.090,228.627 253.813,228.666 252.929 C 228.705 252.045,228.705 250.599,228.666 249.715 C 228.627 248.831,228.596 249.554,228.596 251.322 M237.505 250.492 C 237.505 251.690,237.540 252.180,237.582 251.581 C 237.623 250.982,237.623 250.003,237.582 249.404 C 237.540 248.805,237.505 249.295,237.505 250.492 M242.278 250.907 C 242.278 252.333,242.311 252.916,242.352 252.203 C 242.392 251.490,242.392 250.324,242.352 249.611 C 242.311 248.898,242.278 249.482,242.278 250.907 M146.066 263.660 C 146.067 265.485,146.098 266.203,146.137 265.257 C 146.175 264.311,146.175 262.818,146.136 261.939 C 146.098 261.061,146.066 261.835,146.066 263.660 M251.199 263.660 C 251.199 265.485,251.230 266.203,251.269 265.257 C 251.308 264.311,251.307 262.818,251.269 261.939 C 251.230 261.061,251.198 261.835,251.199 263.660 M154.982 263.660 C 154.982 265.371,155.014 266.043,155.053 265.154 C 155.092 264.265,155.092 262.865,155.053 262.043 C 155.013 261.222,154.982 261.949,154.982 263.660 M159.752 263.764 C 159.752 265.531,159.783 266.255,159.822 265.371 C 159.861 264.487,159.861 263.040,159.822 262.157 C 159.783 261.273,159.752 261.996,159.752 263.764 M237.512 263.660 C 237.512 265.371,237.544 266.043,237.583 265.154 C 237.622 264.265,237.622 262.865,237.582 262.043 C 237.543 261.222,237.511 261.949,237.512 263.660 M124.351 272.213 C 126.539 272.247,130.178 272.247,132.438 272.213 C 134.698 272.180,132.908 272.152,128.460 272.152 C 124.012 272.152,122.163 272.180,124.351 272.213 M137.221 272.204 C 137.478 272.254,137.898 272.254,138.154 272.204 C 138.411 272.155,138.201 272.115,137.688 272.115 C 137.175 272.115,136.965 272.155,137.221 272.204 M146.564 272.213 C 147.739 272.250,149.605 272.250,150.711 272.213 C 151.817 272.175,150.855 272.145,148.574 272.145 C 146.293 272.145,145.389 272.176,146.564 272.213 M153.292 272.201 C 153.491 272.253,153.818 272.253,154.018 272.201 C 154.217 272.149,154.054 272.106,153.655 272.106 C 153.256 272.106,153.092 272.149,153.292 272.201 M155.394 276.724 C 155.395 278.206,155.428 278.786,155.468 278.011 C 155.508 277.237,155.507 276.023,155.467 275.315 C 155.427 274.607,155.394 275.241,155.394 276.724 M330.798 320.166 C 330.798 320.679,330.838 320.889,330.888 320.632 C 330.937 320.376,330.937 319.956,330.888 319.699 C 330.838 319.443,330.798 319.653,330.798 320.166 M67.652 320.270 C 67.654 320.726,67.697 320.888,67.746 320.630 C 67.796 320.372,67.794 319.999,67.742 319.801 C 67.690 319.602,67.650 319.813,67.652 320.270 M138.258 330.482 C 171.817 330.511,226.731 330.511,260.290 330.482 C 293.849 330.453,266.392 330.430,199.274 330.430 C 132.157 330.430,104.699 330.453,138.258 330.482 M193.833 399.939 C 194.091 399.989,194.465 399.987,194.663 399.935 C 194.861 399.883,194.650 399.843,194.194 399.845 C 193.738 399.847,193.575 399.890,193.833 399.939 M205.443 399.939 C 205.700 399.988,206.120 399.988,206.376 399.939 C 206.633 399.890,206.423 399.849,205.910 399.849 C 205.397 399.849,205.187 399.890,205.443 399.939 " stroke="none" fill="#aca4cc" fill-rule="evenodd"></path><path id="path5" d="M58.470 58.631 L 57.128 60.031 58.528 58.689 C 59.298 57.951,59.927 57.321,59.927 57.290 C 59.927 57.137,59.716 57.331,58.470 58.631 M244.887 143.027 L 243.753 144.220 244.946 143.086 C 246.053 142.033,246.233 141.835,246.079 141.835 C 246.047 141.835,245.510 142.372,244.887 143.027 M251.315 147.175 L 250.181 148.367 251.374 147.234 C 252.481 146.181,252.661 145.982,252.507 145.982 C 252.475 145.982,251.938 146.519,251.315 147.175 M235.763 152.359 L 234.629 153.551 235.822 152.418 C 236.929 151.365,237.109 151.166,236.955 151.166 C 236.923 151.166,236.386 151.703,235.763 152.359 M242.088 156.610 L 240.850 157.906 242.146 156.668 C 243.350 155.518,243.537 155.314,243.384 155.314 C 243.352 155.314,242.769 155.897,242.088 156.610 M232.860 166.045 L 231.726 167.237 232.919 166.104 C 234.026 165.051,234.206 164.852,234.052 164.852 C 234.020 164.852,233.483 165.389,232.860 166.045 " stroke="none" fill="#7475a8" fill-rule="evenodd"></path><path id="path6" d="M121.151 171.631 C 121.350 171.683,121.677 171.683,121.877 171.631 C 122.076 171.579,121.913 171.536,121.514 171.536 C 121.115 171.536,120.951 171.579,121.151 171.631 M126.542 171.838 C 126.742 171.890,127.068 171.890,127.268 171.838 C 127.468 171.786,127.304 171.743,126.905 171.743 C 126.506 171.743,126.343 171.786,126.542 171.838 M137.118 172.253 C 137.317 172.305,137.644 172.305,137.843 172.253 C 138.043 172.201,137.880 172.158,137.481 172.158 C 137.081 172.158,136.918 172.201,137.118 172.253 M142.509 172.460 C 142.709 172.512,143.035 172.512,143.235 172.460 C 143.434 172.408,143.271 172.365,142.872 172.365 C 142.473 172.365,142.309 172.408,142.509 172.460 M147.693 172.668 C 147.893 172.720,148.219 172.720,148.419 172.668 C 148.618 172.615,148.455 172.573,148.056 172.573 C 147.657 172.573,147.494 172.615,147.693 172.668 M153.084 172.875 C 153.284 172.927,153.611 172.927,153.810 172.875 C 154.010 172.823,153.847 172.780,153.447 172.780 C 153.048 172.780,152.885 172.823,153.084 172.875 M158.476 173.082 C 158.675 173.134,159.002 173.134,159.202 173.082 C 159.401 173.030,159.238 172.987,158.839 172.987 C 158.440 172.987,158.276 173.030,158.476 173.082 M115.570 178.331 C 115.595 178.712,115.728 178.856,116.074 178.877 C 116.439 178.898,116.453 178.884,116.138 178.812 C 115.915 178.761,115.689 178.516,115.635 178.266 C 115.552 177.888,115.542 177.899,115.570 178.331 M120.943 179.096 C 121.143 179.148,121.470 179.148,121.669 179.096 C 121.869 179.044,121.706 179.001,121.306 179.001 C 120.907 179.001,120.744 179.044,120.943 179.096 M126.335 179.303 C 126.534 179.355,126.861 179.355,127.061 179.303 C 127.260 179.251,127.097 179.208,126.698 179.208 C 126.299 179.208,126.135 179.251,126.335 179.303 M131.726 179.510 C 131.926 179.563,132.252 179.563,132.452 179.510 C 132.652 179.458,132.488 179.416,132.089 179.416 C 131.690 179.416,131.527 179.458,131.726 179.510 M136.910 179.718 C 137.110 179.770,137.436 179.770,137.636 179.718 C 137.836 179.666,137.672 179.623,137.273 179.623 C 136.874 179.623,136.711 179.666,136.910 179.718 M142.302 179.925 C 142.501 179.977,142.828 179.977,143.027 179.925 C 143.227 179.873,143.064 179.830,142.665 179.830 C 142.265 179.830,142.102 179.873,142.302 179.925 M152.877 180.340 C 153.077 180.392,153.403 180.392,153.603 180.340 C 153.802 180.288,153.639 180.245,153.240 180.245 C 152.841 180.245,152.678 180.288,152.877 180.340 M158.269 180.547 C 158.468 180.599,158.795 180.599,158.994 180.547 C 159.194 180.495,159.031 180.452,158.631 180.452 C 158.232 180.452,158.069 180.495,158.269 180.547 M163.660 180.755 C 163.860 180.807,164.186 180.807,164.386 180.755 C 164.585 180.702,164.422 180.660,164.023 180.660 C 163.624 180.660,163.460 180.702,163.660 180.755 M148.436 220.166 C 176.644 220.195,222.740 220.195,250.872 220.166 C 279.005 220.137,255.925 220.113,199.585 220.113 C 143.245 220.113,120.228 220.137,148.436 220.166 M126.646 237.169 C 129.184 237.202,133.336 237.202,135.874 237.169 C 138.411 237.136,136.335 237.109,131.260 237.109 C 126.185 237.109,124.108 237.136,126.646 237.169 M200.066 237.377 C 202.611 237.410,206.717 237.410,209.190 237.377 C 211.663 237.344,209.580 237.317,204.562 237.317 C 199.544 237.317,197.521 237.344,200.066 237.377 M272.615 237.584 C 274.802 237.617,278.442 237.618,280.702 237.584 C 282.962 237.551,281.172 237.523,276.724 237.523 C 272.276 237.523,270.427 237.550,272.615 237.584 M132.380 251.322 C 132.380 253.090,132.412 253.813,132.451 252.929 C 132.490 252.045,132.490 250.599,132.451 249.715 C 132.412 248.831,132.380 249.554,132.380 251.322 M223.826 251.322 C 223.826 253.090,223.858 253.813,223.897 252.929 C 223.936 252.045,223.936 250.599,223.897 249.715 C 223.858 248.831,223.826 249.554,223.826 251.322 M265.092 251.426 C 265.092 253.250,265.124 253.969,265.162 253.023 C 265.201 252.076,265.201 250.583,265.162 249.705 C 265.123 248.827,265.091 249.601,265.092 251.426 M251.405 251.426 C 251.405 253.136,251.437 253.809,251.476 252.920 C 251.515 252.030,251.515 250.631,251.476 249.809 C 251.436 248.987,251.405 249.715,251.405 251.426 M121.140 255.416 C 122.133 255.454,123.812 255.454,124.873 255.416 C 125.934 255.379,125.122 255.348,123.069 255.347 C 121.016 255.347,120.148 255.378,121.140 255.416 M135.034 255.416 C 136.026 255.454,137.705 255.454,138.766 255.416 C 139.827 255.379,139.015 255.348,136.962 255.347 C 134.909 255.347,134.041 255.378,135.034 255.416 M148.719 255.416 C 149.712 255.454,151.391 255.454,152.452 255.416 C 153.513 255.379,152.701 255.348,150.648 255.347 C 148.595 255.347,147.727 255.378,148.719 255.416 M162.519 255.416 C 163.574 255.454,165.301 255.454,166.356 255.416 C 167.411 255.379,166.547 255.348,164.438 255.348 C 162.328 255.348,161.464 255.379,162.519 255.416 M176.298 255.416 C 177.291 255.454,178.970 255.454,180.031 255.416 C 181.092 255.379,180.280 255.348,178.227 255.347 C 176.174 255.347,175.306 255.378,176.298 255.416 M189.777 255.416 C 190.769 255.454,192.449 255.454,193.509 255.416 C 194.570 255.379,193.758 255.348,191.706 255.347 C 189.653 255.347,188.785 255.378,189.777 255.416 M203.670 255.416 C 204.662 255.454,206.342 255.454,207.403 255.416 C 208.463 255.379,207.652 255.348,205.599 255.347 C 203.546 255.347,202.678 255.378,203.670 255.416 M217.356 255.416 C 218.348 255.454,220.028 255.454,221.089 255.416 C 222.149 255.379,221.337 255.348,219.285 255.347 C 217.232 255.347,216.364 255.378,217.356 255.416 M231.042 255.416 C 232.034 255.454,233.714 255.454,234.774 255.416 C 235.835 255.379,235.023 255.348,232.970 255.347 C 230.918 255.347,230.050 255.378,231.042 255.416 M244.935 255.416 C 245.927 255.454,247.607 255.454,248.668 255.416 C 249.728 255.379,248.917 255.348,246.864 255.347 C 244.811 255.347,243.943 255.378,244.935 255.416 M258.621 255.416 C 259.613 255.454,261.293 255.454,262.353 255.416 C 263.414 255.379,262.602 255.348,260.550 255.347 C 258.497 255.347,257.629 255.378,258.621 255.416 M272.525 255.416 C 273.523 255.454,275.156 255.454,276.153 255.416 C 277.151 255.378,276.335 255.347,274.339 255.347 C 272.343 255.347,271.527 255.378,272.525 255.416 M132.173 263.660 C 132.173 265.485,132.205 266.203,132.244 265.257 C 132.282 264.311,132.282 262.818,132.243 261.939 C 132.204 261.061,132.173 261.835,132.173 263.660 M141.297 263.660 C 141.297 265.485,141.329 266.203,141.367 265.257 C 141.406 264.311,141.406 262.818,141.367 261.939 C 141.328 261.061,141.297 261.835,141.297 263.660 M173.438 263.660 C 173.438 265.485,173.470 266.203,173.509 265.257 C 173.547 264.311,173.547 262.818,173.508 261.939 C 173.469 261.061,173.438 261.835,173.438 263.660 M182.562 263.660 C 182.562 265.485,182.594 266.203,182.632 265.257 C 182.671 264.311,182.671 262.818,182.632 261.939 C 182.593 261.061,182.562 261.835,182.562 263.660 M201.018 263.764 C 201.018 265.645,201.049 266.415,201.087 265.474 C 201.126 264.533,201.126 262.994,201.087 262.053 C 201.049 261.112,201.018 261.882,201.018 263.764 M214.703 263.660 C 214.703 265.485,214.735 266.203,214.773 265.257 C 214.812 264.311,214.812 262.818,214.773 261.939 C 214.734 261.061,214.703 261.835,214.703 263.660 M228.388 263.660 C 228.388 265.371,228.420 266.043,228.459 265.154 C 228.498 264.265,228.498 262.865,228.459 262.043 C 228.419 261.222,228.387 261.949,228.388 263.660 M255.967 263.764 C 255.967 265.531,255.999 266.255,256.038 265.371 C 256.077 264.487,256.077 263.040,256.038 262.157 C 255.999 261.273,255.967 261.996,255.967 263.764 M182.961 272.628 C 194.917 272.658,214.419 272.658,226.300 272.628 C 238.180 272.599,228.398 272.575,204.562 272.575 C 180.726 272.575,171.005 272.599,182.961 272.628 M253.686 275.583 C 253.686 277.351,253.718 278.074,253.757 277.190 C 253.796 276.306,253.796 274.860,253.757 273.976 C 253.718 273.092,253.686 273.815,253.686 275.583 M143.578 276.102 C 143.578 277.926,143.610 278.645,143.648 277.699 C 143.687 276.752,143.687 275.259,143.648 274.381 C 143.609 273.503,143.578 274.277,143.578 276.102 M140.467 276.102 C 140.467 277.812,140.499 278.485,140.538 277.595 C 140.577 276.706,140.577 275.307,140.537 274.485 C 140.498 273.663,140.466 274.391,140.467 276.102 M249.531 276.102 C 249.532 277.242,249.567 277.682,249.609 277.080 C 249.651 276.477,249.650 275.544,249.608 275.006 C 249.565 274.468,249.531 274.961,249.531 276.102 M272.535 279.056 C 273.538 279.094,275.125 279.093,276.060 279.055 C 276.995 279.017,276.174 278.986,274.235 278.986 C 272.297 278.986,271.531 279.017,272.535 279.056 M195.594 399.944 C 196.021 399.988,196.721 399.988,197.149 399.944 C 197.576 399.899,197.227 399.862,196.371 399.862 C 195.516 399.862,195.166 399.899,195.594 399.944 M202.753 399.945 C 203.241 399.989,203.987 399.988,204.412 399.943 C 204.837 399.899,204.438 399.863,203.525 399.864 C 202.613 399.864,202.265 399.901,202.753 399.945 " stroke="none" fill="#7c84b2" fill-rule="evenodd"></path><path id="path7" d="M163.439 237.169 C 165.684 237.203,169.416 237.203,171.733 237.169 C 174.050 237.136,172.214 237.109,167.652 237.108 C 163.090 237.108,161.194 237.136,163.439 237.169 M118.684 250.596 C 118.684 251.623,118.719 252.069,118.762 251.587 C 118.806 251.106,118.806 250.266,118.763 249.721 C 118.720 249.176,118.685 249.570,118.684 250.596 M141.294 251.426 C 141.294 252.908,141.327 253.488,141.367 252.713 C 141.407 251.938,141.407 250.725,141.366 250.017 C 141.326 249.309,141.293 249.943,141.294 251.426 M214.908 251.529 C 214.908 253.069,214.940 253.699,214.980 252.929 C 215.020 252.159,215.020 250.899,214.980 250.130 C 214.940 249.360,214.908 249.990,214.908 251.529 M127.580 253.292 C 127.582 253.748,127.624 253.910,127.674 253.652 C 127.723 253.394,127.722 253.021,127.670 252.823 C 127.618 252.625,127.577 252.836,127.580 253.292 M237.485 253.396 C 237.485 253.909,237.526 254.119,237.575 253.862 C 237.624 253.605,237.624 253.186,237.575 252.929 C 237.526 252.672,237.485 252.882,237.485 253.396 M264.880 263.142 C 264.880 264.567,264.913 265.150,264.954 264.438 C 264.994 263.725,264.994 262.558,264.954 261.846 C 264.913 261.133,264.880 261.716,264.880 263.142 M262.468 279.462 C 262.724 279.511,263.144 279.511,263.401 279.462 C 263.657 279.413,263.447 279.372,262.934 279.372 C 262.421 279.372,262.211 279.413,262.468 279.462 " stroke="none" fill="#a4accc" fill-rule="evenodd"></path><path id="path8" d="M193.938 0.149 C 194.253 0.196,194.719 0.195,194.974 0.146 C 195.229 0.097,194.971 0.058,194.401 0.059 C 193.831 0.061,193.622 0.101,193.938 0.149 M205.135 0.149 C 205.450 0.196,205.917 0.195,206.172 0.146 C 206.427 0.097,206.169 0.058,205.599 0.059 C 205.029 0.061,204.820 0.101,205.135 0.149 M0.059 194.401 C 0.061 194.971,0.101 195.180,0.149 194.865 C 0.196 194.550,0.195 194.083,0.146 193.828 C 0.097 193.573,0.058 193.831,0.059 194.401 M399.865 196.786 C 399.865 197.755,399.901 198.152,399.944 197.667 C 399.988 197.182,399.988 196.389,399.944 195.905 C 399.901 195.420,399.865 195.816,399.865 196.786 M399.865 203.214 C 399.865 204.184,399.901 204.580,399.944 204.095 C 399.988 203.611,399.988 202.818,399.944 202.333 C 399.901 201.848,399.865 202.245,399.865 203.214 M0.059 205.599 C 0.061 206.169,0.101 206.378,0.149 206.062 C 0.196 205.747,0.195 205.281,0.146 205.026 C 0.097 204.771,0.058 205.029,0.059 205.599 " stroke="none" fill="#7c7cc0" fill-rule="evenodd"></path></g></svg>