<svg id="svg" version="1.1" xmlns="http://www.w3.org/2000/svg" xmlns:xlink="http://www.w3.org/1999/xlink" width="400" height="400" viewBox="0, 0, 400,400"><g id="svgg"><path id="path0" d="M190.600 15.991 C 184.342 16.377,175.098 17.464,170.600 18.341 C 169.500 18.555,167.520 18.926,166.200 19.165 C 163.951 19.571,157.586 21.129,152.263 22.574 C 147.255 23.934,139.727 26.452,136.600 27.813 C 135.940 28.101,133.995 28.892,132.278 29.572 C 102.135 41.514,72.989 64.905,52.997 93.199 C 45.425 103.915,37.200 118.965,33.213 129.400 C 33.045 129.840,32.720 130.650,32.491 131.200 C 27.603 142.939,22.731 162.323,21.229 176.000 C 20.171 185.640,20.000 188.656,19.999 197.714 C 19.998 206.851,20.227 211.011,21.225 220.000 C 22.153 228.366,23.898 237.044,26.935 248.400 C 31.507 265.502,42.230 287.788,53.397 303.401 C 55.278 306.031,60.725 313.161,61.189 313.600 C 61.305 313.710,62.385 314.970,63.588 316.400 C 91.400 349.444,131.273 371.580,175.200 378.362 C 187.347 380.238,208.896 380.877,219.200 379.668 C 227.398 378.707,233.337 377.821,238.000 376.864 C 244.530 375.524,246.313 375.129,247.200 374.824 C 247.750 374.635,249.730 374.077,251.600 373.583 C 253.470 373.089,257.340 371.882,260.200 370.900 C 263.060 369.917,265.808 369.022,266.306 368.909 C 266.804 368.797,267.310 368.546,267.430 368.352 C 267.549 368.159,267.901 368.000,268.212 368.000 C 268.522 368.000,269.730 367.564,270.895 367.031 C 272.060 366.498,273.963 365.688,275.123 365.230 C 279.244 363.606,290.895 357.616,295.600 354.702 C 312.884 343.999,327.129 332.167,338.825 318.800 C 340.461 316.930,341.892 315.310,342.005 315.200 C 344.004 313.255,353.869 299.820,356.600 295.323 C 361.630 287.042,365.332 280.088,368.782 272.440 C 370.112 269.493,371.200 266.926,371.200 266.736 C 371.200 266.546,371.540 265.628,371.956 264.696 C 374.421 259.164,376.702 251.984,379.357 241.400 C 383.449 225.088,385.404 205.074,384.418 189.600 C 384.158 185.530,383.813 182.064,383.650 181.897 C 383.487 181.730,371.664 181.640,357.377 181.697 L 331.400 181.800 331.200 208.000 C 330.974 237.603,331.162 235.972,327.782 237.608 C 326.178 238.385,325.136 238.400,271.917 238.400 C 222.834 238.400,217.663 238.460,217.443 239.033 C 217.014 240.150,217.170 259.996,217.614 260.826 C 218.003 261.553,218.530 261.600,226.231 261.600 L 234.434 261.600 234.317 264.700 L 234.200 267.800 202.700 267.902 L 171.200 268.005 171.200 264.802 L 171.200 261.600 178.924 261.600 C 189.088 261.600,188.037 263.004,187.907 249.600 L 187.800 238.600 154.422 238.498 C 118.899 238.389,120.168 238.465,120.666 236.481 C 120.793 235.973,120.921 233.181,120.949 230.278 L 121.000 225.000 222.418 224.800 C 318.416 224.611,323.893 224.562,324.911 223.895 C 326.457 222.882,326.432 223.271,326.311 201.600 L 326.200 181.800 314.055 181.694 L 301.910 181.588 300.255 183.064 C 299.345 183.876,295.082 187.918,290.782 192.048 C 286.482 196.177,282.494 199.926,281.919 200.378 C 280.912 201.170,280.384 201.200,267.537 201.206 C 253.131 201.213,253.767 201.126,252.473 203.257 C 248.864 209.199,241.977 209.468,236.444 203.884 L 234.000 201.417 234.000 198.678 C 234.000 194.565,240.283 186.973,242.999 187.803 C 243.440 187.938,244.700 188.275,245.800 188.552 C 248.912 189.336,252.800 192.039,252.800 193.419 C 252.800 195.074,253.756 195.200,266.341 195.200 L 278.419 195.200 281.909 191.901 C 289.837 184.409,291.961 182.261,291.762 181.939 C 291.647 181.752,277.969 181.600,261.367 181.600 L 231.182 181.600 229.381 183.260 C 228.391 184.173,227.300 185.512,226.956 186.235 C 226.554 187.083,225.953 187.635,225.266 187.788 C 224.216 188.021,221.069 191.053,218.477 194.328 C 217.750 195.248,216.896 196.000,216.579 196.000 C 216.262 196.000,214.628 197.305,212.949 198.900 L 209.895 201.800 204.848 201.687 C 202.071 201.625,198.720 201.585,197.400 201.598 C 193.254 201.639,188.702 201.599,185.838 201.498 L 183.076 201.400 182.238 202.857 C 178.075 210.091,167.869 209.276,164.639 201.451 C 162.132 195.376,168.934 185.974,174.234 188.189 C 175.039 188.525,176.318 188.800,177.075 188.800 C 179.596 188.800,181.393 190.295,182.567 193.370 L 183.292 195.269 185.546 195.022 C 188.279 194.724,189.654 194.725,193.763 195.032 C 195.894 195.191,197.221 195.110,197.831 194.784 C 198.392 194.483,199.241 194.410,200.067 194.591 C 200.800 194.752,202.876 194.967,204.679 195.070 C 208.270 195.275,208.153 195.333,210.087 192.427 C 210.606 191.648,211.500 190.922,212.158 190.747 C 213.672 190.343,215.250 188.798,217.080 185.926 C 218.105 184.317,218.817 183.600,219.390 183.600 C 219.868 183.600,221.146 182.654,222.409 181.365 C 224.943 178.779,225.208 178.535,227.538 176.625 L 229.276 175.200 277.848 175.200 L 326.420 175.200 326.310 168.900 L 326.200 162.600 284.910 162.400 L 243.621 162.200 237.288 155.900 L 230.955 149.600 221.268 149.600 L 211.580 149.600 211.217 150.556 C 207.928 159.207,193.093 156.822,192.731 147.584 C 192.638 145.204,200.854 136.800,203.275 136.800 C 206.039 136.800,209.034 138.692,210.658 141.463 L 211.676 143.200 222.501 143.200 L 233.325 143.200 240.000 149.800 L 246.675 156.400 269.437 156.394 C 281.957 156.391,292.428 156.243,292.707 156.066 C 293.204 155.751,290.452 152.855,283.000 145.852 L 280.200 143.221 271.905 143.211 L 263.610 143.200 262.617 144.774 C 256.844 153.918,243.557 149.801,244.512 139.165 C 245.418 129.075,258.013 127.212,263.205 136.400 C 263.489 136.903,265.106 137.015,273.235 137.094 L 282.926 137.187 285.963 140.081 C 287.633 141.673,290.800 144.702,293.000 146.811 C 295.200 148.921,298.321 151.897,299.935 153.424 L 302.870 156.200 313.732 156.319 C 319.707 156.384,325.005 156.335,325.505 156.209 L 326.416 155.981 326.308 147.490 L 326.200 139.000 313.000 138.800 L 299.800 138.600 297.770 136.600 C 296.654 135.500,292.122 131.135,287.700 126.900 L 279.658 119.200 267.129 119.201 L 254.600 119.201 253.454 121.016 C 250.956 124.970,245.930 126.828,242.065 125.227 C 240.374 124.526,240.462 124.245,242.700 123.204 C 245.750 121.785,250.778 118.255,253.785 115.423 L 256.570 112.800 268.911 112.800 C 283.335 112.800,281.462 112.233,288.000 118.579 C 292.468 122.916,296.648 126.900,300.800 130.781 C 301.570 131.500,302.617 132.249,303.126 132.445 C 304.154 132.839,324.765 132.942,325.767 132.557 C 326.333 132.340,326.400 130.056,326.398 110.857 L 326.396 89.400 325.436 88.200 L 324.476 87.000 295.970 86.892 C 263.732 86.770,266.312 87.090,266.483 83.237 L 266.600 80.600 296.871 80.600 C 326.820 80.600,327.153 80.609,328.246 81.425 C 331.190 83.623,330.988 81.719,331.109 108.381 L 331.218 132.304 332.459 132.552 C 334.393 132.939,370.931 132.831,371.554 132.437 C 373.375 131.284,363.663 111.579,354.168 97.164 C 348.929 89.209,344.805 83.886,337.619 75.804 C 334.728 72.552,326.466 64.401,322.800 61.184 C 320.930 59.543,319.310 58.110,319.200 57.999 C 319.090 57.889,317.740 56.795,316.200 55.568 C 297.939 41.025,278.309 30.644,255.800 23.626 C 247.710 21.104,234.814 18.237,227.800 17.402 C 226.700 17.271,223.643 16.905,221.006 16.589 C 215.188 15.893,197.744 15.549,190.600 15.991 M231.907 47.871 C 235.917 49.546,235.086 51.084,224.325 61.909 C 214.964 71.326,213.969 72.533,213.402 75.166 C 212.407 79.783,213.488 82.001,219.912 88.515 C 227.501 96.210,229.886 97.481,234.485 96.281 C 237.627 95.460,237.234 95.785,247.591 85.451 C 257.805 75.259,258.145 75.028,260.574 76.619 C 263.374 78.454,263.449 89.276,260.718 97.400 C 254.647 115.460,234.954 126.748,216.800 122.574 C 210.906 121.219,217.821 115.127,163.247 169.743 L 115.094 217.932 116.021 221.266 C 117.177 225.426,117.329 235.488,116.292 239.200 C 111.121 257.708,97.090 268.806,78.874 268.798 C 71.848 268.794,69.600 267.843,69.600 264.872 C 69.600 263.608,70.382 262.709,79.050 254.009 C 88.810 244.211,89.047 243.940,89.886 241.600 C 91.554 236.949,90.257 234.132,83.149 226.963 C 72.030 215.748,70.335 215.974,55.565 230.635 C 45.459 240.667,45.383 240.718,42.940 239.228 C 41.370 238.271,40.800 235.995,40.800 230.680 C 40.801 206.012,64.389 187.532,88.156 193.582 L 91.712 194.487 139.883 146.344 L 188.055 98.200 187.851 96.600 C 187.739 95.720,187.367 93.740,187.024 92.200 C 183.496 76.364,192.857 57.616,207.660 50.870 C 215.876 47.125,226.869 45.766,231.907 47.871 M182.200 83.600 L 182.200 86.600 132.200 86.800 C 93.695 86.954,82.003 87.113,81.342 87.492 C 79.593 88.494,79.600 88.279,79.600 139.452 L 79.600 188.385 78.648 188.624 C 78.125 188.755,77.180 188.803,76.548 188.731 L 75.400 188.600 75.299 136.301 L 75.197 84.003 76.766 82.434 C 78.865 80.335,74.043 80.502,131.200 80.554 L 182.200 80.600 182.200 83.600 M251.965 137.313 C 250.130 138.722,249.967 140.829,251.569 142.431 C 253.829 144.691,257.600 143.237,257.600 140.107 C 257.600 137.493,254.034 135.725,251.965 137.313 M331.379 139.311 C 331.271 139.592,331.232 143.507,331.291 148.011 L 331.400 156.200 354.600 156.311 C 381.034 156.437,379.728 156.533,379.375 154.488 C 378.771 150.985,375.472 140.269,374.700 139.300 C 374.111 138.560,331.663 138.571,331.379 139.311 M200.943 143.197 C 197.482 144.593,198.572 149.782,202.326 149.782 C 204.173 149.782,205.416 148.876,205.715 147.312 C 206.270 144.406,203.617 142.118,200.943 143.197 M331.467 162.667 C 331.320 162.813,331.200 165.693,331.200 169.067 L 331.200 175.200 356.976 175.200 C 373.544 175.200,382.840 175.059,382.997 174.804 C 383.132 174.587,383.064 173.372,382.846 172.104 C 382.628 170.837,382.237 168.450,381.977 166.800 C 381.717 165.150,381.340 163.485,381.138 163.100 C 380.762 162.380,332.177 161.956,331.467 162.667 M171.782 195.382 C 170.427 196.737,170.457 198.748,171.855 200.145 C 174.454 202.745,178.364 200.369,177.125 196.944 C 176.229 194.465,173.497 193.666,171.782 195.382 M243.400 195.600 C 242.740 196.008,241.885 196.355,241.500 196.371 C 239.663 196.447,242.106 200.672,244.410 201.403 C 246.173 201.963,248.329 199.366,247.812 197.305 C 247.236 195.009,245.464 194.325,243.400 195.600 M201.062 229.531 C 199.731 231.002,200.653 233.200,202.600 233.200 C 204.582 233.200,205.531 230.786,204.069 229.462 C 203.109 228.594,201.885 228.622,201.062 229.531 M304.735 291.415 L 317.600 304.430 317.600 308.372 C 317.600 311.598,317.485 312.359,316.967 312.557 C 315.141 313.258,89.177 312.805,88.900 312.100 C 88.749 311.715,88.620 309.807,88.613 307.861 L 88.600 304.321 101.735 291.361 L 114.869 278.400 203.370 278.400 L 291.870 278.400 304.735 291.415 M121.142 282.735 C 119.449 284.248,119.897 284.800,122.817 284.800 C 125.334 284.800,128.114 283.155,127.440 282.065 C 126.811 281.048,122.520 281.504,121.142 282.735 M130.254 282.429 C 128.364 283.916,128.830 284.801,131.500 284.794 C 133.954 284.788,135.450 284.240,136.161 283.089 C 137.164 281.463,132.188 280.908,130.254 282.429 M139.273 282.412 C 137.108 283.732,137.675 284.576,140.819 284.716 C 143.635 284.842,145.621 283.674,145.063 282.220 C 144.698 281.268,140.946 281.392,139.273 282.412 M148.226 282.231 C 146.208 284.249,146.560 284.800,149.867 284.800 C 152.470 284.800,154.000 284.002,154.000 282.643 C 154.000 281.451,149.338 281.119,148.226 282.231 M157.054 282.429 C 155.084 283.978,155.620 284.800,158.600 284.800 C 161.273 284.800,162.800 284.016,162.800 282.643 C 162.800 281.325,158.653 281.171,157.054 282.429 M166.557 281.870 C 165.501 282.084,164.480 283.840,165.069 284.429 C 165.999 285.359,170.524 284.688,171.176 283.523 C 172.014 282.024,169.767 281.220,166.557 281.870 M175.156 281.874 C 174.202 282.116,173.408 284.029,174.080 284.467 C 176.147 285.815,181.863 283.730,180.323 282.190 C 180.036 281.903,176.012 281.657,175.156 281.874 M183.900 281.910 C 183.087 282.083,182.515 283.875,183.090 284.450 C 184.037 285.397,188.559 284.673,188.966 283.508 C 189.177 282.907,189.246 282.313,189.121 282.187 C 188.845 281.912,184.884 281.702,183.900 281.910 M192.207 282.250 C 190.663 283.794,191.552 284.600,194.800 284.600 L 197.800 284.600 197.921 283.357 C 198.038 282.157,197.978 282.106,196.165 281.857 C 193.421 281.481,192.927 281.530,192.207 282.250 M201.719 281.880 C 200.650 282.087,200.149 283.415,200.830 284.236 C 201.851 285.466,206.574 284.832,206.732 283.443 C 206.927 281.736,205.215 281.202,201.719 281.880 M210.477 281.905 C 209.706 282.036,209.574 282.271,209.677 283.331 L 209.800 284.600 212.437 284.717 C 214.386 284.803,215.202 284.679,215.565 284.242 C 216.245 283.423,215.448 282.009,214.286 281.972 C 213.799 281.957,212.950 281.900,212.400 281.846 C 211.850 281.792,210.985 281.818,210.477 281.905 M218.427 282.364 C 217.534 284.071,218.604 284.843,221.689 284.718 C 224.787 284.592,225.370 284.132,224.294 282.661 C 223.558 281.655,218.921 281.420,218.427 282.364 M228.300 281.893 C 226.811 282.110,226.671 284.252,228.121 284.616 C 230.239 285.147,233.393 284.650,233.519 283.765 C 233.724 282.335,231.281 281.458,228.300 281.893 M235.848 282.322 C 235.078 283.568,236.658 284.602,239.510 284.718 C 242.601 284.843,242.948 284.571,241.986 282.774 C 241.552 281.963,236.308 281.578,235.848 282.322 M244.648 282.322 C 243.878 283.568,245.458 284.602,248.310 284.718 C 251.401 284.843,251.748 284.571,250.786 282.774 C 250.352 281.963,245.108 281.578,244.648 282.322 M253.200 282.530 C 253.200 283.855,254.991 284.800,257.502 284.800 C 260.288 284.800,260.750 284.429,259.721 283.016 C 258.878 281.857,253.200 281.434,253.200 282.530 M262.000 282.530 C 262.000 283.845,263.792 284.800,266.259 284.800 C 269.131 284.800,269.348 284.646,268.574 283.149 C 267.901 281.849,262.000 281.294,262.000 282.530 M270.800 282.530 C 270.800 283.905,272.585 284.800,275.326 284.800 C 278.292 284.800,278.677 284.375,277.074 282.870 C 275.964 281.827,270.800 281.548,270.800 282.530 M279.600 282.530 C 279.600 283.890,281.387 284.800,284.059 284.800 C 287.237 284.800,287.517 284.574,286.131 283.128 C 284.906 281.849,279.600 281.364,279.600 282.530 M116.680 287.100 C 114.690 288.611,114.995 288.981,118.345 289.118 C 121.109 289.231,121.277 289.185,122.479 287.982 C 124.737 285.725,119.534 284.933,116.680 287.100 M125.991 287.092 C 124.195 288.696,124.664 289.200,127.949 289.200 C 130.615 289.200,133.622 287.489,132.655 286.522 C 131.686 285.553,127.293 285.928,125.991 287.092 M135.143 287.196 C 133.534 288.804,133.941 289.200,137.205 289.200 C 139.627 289.200,140.088 289.076,140.982 288.182 C 142.340 286.824,142.271 286.550,140.500 286.257 C 137.465 285.755,136.396 285.942,135.143 287.196 M145.304 286.440 C 144.340 286.797,143.440 288.218,143.805 288.808 C 144.829 290.465,151.703 288.508,151.110 286.729 C 150.909 286.127,146.713 285.919,145.304 286.440 M154.591 286.306 C 153.587 287.027,152.758 288.809,153.326 289.027 C 156.289 290.164,162.230 287.822,160.000 286.396 C 159.297 285.946,155.187 285.878,154.591 286.306 M164.000 286.296 C 163.320 286.440,162.311 288.333,162.635 288.856 C 163.038 289.509,168.286 289.257,168.993 288.550 C 170.765 286.778,167.872 285.471,164.000 286.296 M173.800 286.259 C 172.805 286.518,172.000 287.517,172.000 288.493 C 172.000 289.848,177.979 289.345,178.775 287.923 C 179.107 287.330,179.248 286.715,179.089 286.556 C 178.727 286.194,174.880 285.979,173.800 286.259 M182.878 286.285 C 181.878 286.476,180.932 288.292,181.524 288.884 C 182.499 289.859,187.722 289.043,188.117 287.854 C 188.685 286.142,186.715 285.552,182.878 286.285 M191.900 286.276 C 191.147 286.472,190.558 288.085,190.986 288.777 C 191.264 289.227,195.902 289.366,196.967 288.957 C 197.335 288.816,197.600 288.247,197.600 287.600 C 197.600 286.109,194.920 285.487,191.900 286.276 M200.613 286.541 C 198.742 287.909,199.979 289.000,203.400 289.000 L 206.600 289.000 206.725 287.700 C 206.794 286.985,206.704 286.380,206.525 286.355 C 204.186 286.031,201.181 286.126,200.613 286.541 M209.718 286.671 C 208.954 288.654,214.858 290.647,216.004 288.793 C 216.458 288.059,215.954 286.405,215.253 286.329 C 212.887 286.074,209.876 286.260,209.718 286.671 M219.300 286.292 C 218.736 286.489,218.642 287.932,219.141 288.719 C 219.735 289.655,225.375 289.195,225.502 288.200 C 225.710 286.579,221.863 285.396,219.300 286.292 M228.900 286.282 C 227.926 286.470,227.760 287.204,228.414 288.426 C 228.864 289.268,234.497 289.614,234.981 288.830 C 236.093 287.031,232.604 285.569,228.900 286.282 M237.594 286.404 C 237.053 286.738,237.430 288.417,238.154 288.894 C 238.399 289.056,239.925 289.191,241.543 289.194 L 244.487 289.200 244.215 288.100 C 244.066 287.495,243.773 286.826,243.565 286.614 C 243.113 286.151,238.277 285.982,237.594 286.404 M247.500 286.287 C 246.232 286.478,246.147 286.842,247.046 288.214 C 247.907 289.528,253.600 289.756,253.600 288.476 C 253.600 286.757,250.871 285.777,247.500 286.287 M256.500 286.320 C 255.420 286.483,255.411 286.556,256.286 288.038 C 257.046 289.325,263.213 289.916,263.191 288.700 C 263.160 286.936,259.964 285.800,256.500 286.320 M265.700 286.302 C 264.587 286.492,264.575 286.806,265.629 288.146 C 266.469 289.213,271.985 289.795,272.553 288.877 C 273.451 287.424,268.979 285.743,265.700 286.302 M275.100 286.327 C 273.742 286.483,273.731 286.718,275.016 288.104 C 276.058 289.227,282.000 289.838,282.000 288.822 C 282.000 287.023,278.875 285.892,275.100 286.327 M283.200 286.678 C 283.200 288.079,285.455 289.200,288.275 289.200 C 291.502 289.200,291.910 288.806,290.274 287.270 C 289.362 286.412,283.200 285.897,283.200 286.678 M111.204 292.244 C 109.149 294.101,109.402 294.400,113.029 294.400 C 116.147 294.400,119.440 292.559,118.640 291.264 C 117.892 290.054,112.900 290.712,111.204 292.244 M121.004 292.223 C 119.142 294.085,119.442 294.400,123.076 294.400 C 126.268 294.400,129.906 292.147,128.329 291.147 C 126.736 290.137,122.462 290.765,121.004 292.223 M130.930 292.190 C 129.082 294.038,129.454 294.400,133.203 294.400 C 136.409 294.400,139.115 292.680,138.211 291.217 C 137.498 290.064,132.372 290.748,130.930 292.190 M140.981 291.858 C 139.116 293.870,139.573 294.400,143.173 294.400 C 146.504 294.400,148.510 293.107,147.850 291.386 C 147.407 290.232,142.153 290.594,140.981 291.858 M150.999 291.764 C 149.019 293.745,149.567 294.400,153.206 294.400 C 156.431 294.400,158.426 293.116,157.866 291.400 C 157.547 290.420,152.052 290.711,150.999 291.764 M161.600 291.088 C 158.544 292.319,159.519 294.400,163.151 294.400 C 166.604 294.400,167.182 294.086,167.320 292.135 C 167.401 290.984,163.589 290.287,161.600 291.088 M171.292 291.068 C 170.607 291.343,169.507 293.526,169.807 294.012 C 169.939 294.225,171.472 294.400,173.213 294.400 C 176.513 294.400,178.154 293.221,177.441 291.364 C 177.227 290.804,172.510 290.577,171.292 291.068 M180.645 291.412 C 180.290 291.767,180.000 292.584,180.000 293.229 L 180.000 294.400 183.151 294.400 C 186.657 294.400,187.345 294.007,187.129 292.124 C 186.968 290.721,181.893 290.164,180.645 291.412 M190.481 291.302 C 189.481 292.508,189.477 293.954,190.473 294.204 C 194.454 295.203,198.436 293.372,196.737 291.324 C 196.158 290.626,191.057 290.608,190.481 291.302 M200.279 291.100 C 198.876 293.601,199.715 294.457,203.435 294.318 L 206.600 294.200 206.730 292.842 C 206.808 292.025,206.648 291.350,206.330 291.148 C 205.671 290.731,200.509 290.690,200.279 291.100 M210.070 291.148 C 209.752 291.350,209.592 292.025,209.670 292.842 L 209.800 294.200 213.200 294.200 L 216.600 294.200 216.729 293.076 C 216.937 291.263,216.226 290.799,213.251 290.806 C 211.793 290.809,210.362 290.963,210.070 291.148 M219.600 291.400 C 219.203 291.878,219.204 292.245,219.606 293.215 L 220.110 294.431 223.355 294.315 L 226.600 294.200 226.487 292.816 C 226.425 292.054,226.155 291.292,225.887 291.122 C 224.969 290.538,220.138 290.752,219.600 291.400 M229.632 291.172 C 229.193 291.449,229.151 291.834,229.446 292.865 L 229.828 294.200 232.976 294.318 C 234.707 294.383,236.302 294.258,236.520 294.040 C 237.119 293.441,236.091 291.318,235.067 291.044 C 233.737 290.687,230.269 290.769,229.632 291.172 M239.270 291.148 C 238.835 291.424,238.849 291.744,239.350 292.942 L 239.959 294.400 243.180 294.400 C 246.720 294.400,247.273 293.824,245.777 291.689 C 245.119 290.749,240.505 290.365,239.270 291.148 M248.932 291.433 C 248.271 293.155,249.746 294.192,253.035 294.318 C 256.717 294.459,257.115 294.187,255.894 292.372 C 254.790 290.730,249.477 290.014,248.932 291.433 M258.516 291.475 C 257.887 293.113,259.961 294.400,263.227 294.400 C 266.838 294.400,267.284 293.871,265.395 291.832 C 264.279 290.629,258.947 290.352,258.516 291.475 M268.700 291.078 C 267.783 291.315,267.810 291.475,269.033 293.078 C 270.085 294.458,275.865 295.034,276.266 293.800 C 276.868 291.947,272.047 290.213,268.700 291.078 M278.064 291.152 C 276.485 292.153,279.911 294.400,283.018 294.400 C 286.543 294.400,286.898 294.018,285.070 292.190 C 283.641 290.761,279.621 290.165,278.064 291.152 M288.005 291.190 C 286.417 292.191,289.892 294.400,293.055 294.400 C 296.500 294.400,296.797 294.110,295.155 292.352 C 293.845 290.950,289.504 290.244,288.005 291.190 M105.391 297.651 C 102.976 299.877,103.066 300.000,107.119 300.000 L 110.638 300.000 112.165 298.436 C 114.150 296.403,113.820 296.000,110.167 296.000 C 107.225 296.000,107.156 296.024,105.391 297.651 M115.955 297.599 C 113.813 299.851,113.926 300.000,117.768 300.000 C 121.104 300.000,121.147 299.987,122.468 298.587 C 124.453 296.482,124.262 296.217,120.655 296.082 L 117.510 295.965 115.955 297.599 M126.365 297.638 C 124.375 299.793,124.570 300.000,128.594 300.000 L 131.942 300.000 133.173 298.506 C 134.848 296.474,134.622 296.218,131.023 296.082 L 127.910 295.965 126.365 297.638 M136.810 297.650 C 135.239 299.819,135.440 300.000,139.419 300.000 L 142.790 300.000 143.809 298.385 C 145.166 296.236,144.905 296.000,141.179 296.000 L 138.005 296.000 136.810 297.650 M147.432 297.322 C 145.595 299.731,145.894 300.048,149.885 299.916 C 153.361 299.800,153.374 299.796,154.295 298.427 C 155.617 296.462,155.343 296.215,151.700 296.084 L 148.465 295.969 147.432 297.322 M158.376 296.685 C 157.566 297.690,156.800 299.113,156.800 299.610 C 156.800 299.881,158.106 299.989,160.496 299.915 C 164.454 299.792,164.838 299.557,165.266 297.000 C 165.460 295.839,159.284 295.556,158.376 296.685 M168.925 296.314 C 168.664 296.480,168.259 297.119,168.025 297.734 C 167.096 300.178,164.352 300.000,203.000 300.000 L 238.400 300.000 238.400 299.180 C 238.400 298.729,238.125 297.829,237.790 297.180 L 237.179 296.000 203.290 296.006 C 184.650 296.009,169.186 296.148,168.925 296.314 M240.931 296.636 C 240.796 296.986,240.979 297.886,241.337 298.636 L 241.987 300.000 245.370 300.000 C 249.290 300.000,249.394 299.920,248.392 297.682 L 247.639 296.000 244.407 296.000 C 241.821 296.000,241.126 296.127,240.931 296.636 M251.331 296.636 C 251.196 296.986,251.379 297.886,251.737 298.636 L 252.387 300.000 256.037 300.000 L 259.687 300.000 259.414 298.900 C 258.754 296.240,252.188 294.401,251.331 296.636 M261.867 296.267 C 260.203 297.930,262.829 300.000,266.604 300.000 C 270.477 300.000,270.703 299.832,269.402 297.917 C 268.196 296.142,263.106 295.027,261.867 296.267 M271.786 296.423 C 271.642 296.656,271.994 297.556,272.568 298.423 L 273.611 300.000 277.206 300.000 C 279.183 300.000,280.800 299.855,280.800 299.678 C 280.800 299.239,278.924 296.726,278.302 296.331 C 277.553 295.855,272.089 295.933,271.786 296.423 M282.000 296.536 C 282.000 296.830,282.495 297.724,283.100 298.521 L 284.200 299.971 287.700 299.985 C 291.748 300.002,291.954 299.753,289.754 297.488 C 288.183 295.871,282.000 295.111,282.000 296.536 M292.210 296.384 C 292.080 296.595,292.630 297.495,293.433 298.384 L 294.893 300.000 298.247 300.000 C 302.192 300.000,302.434 299.647,299.999 297.447 C 298.366 295.972,292.924 295.229,292.210 296.384 " stroke="none" fill="#08b8f7" fill-rule="evenodd"></path><path id="path1" d="M0.000 200.000 L 0.000 400.000 200.000 400.000 L 400.000 400.000 400.000 200.000 L 400.000 0.000 200.000 0.000 L 0.000 0.000 0.000 200.000 M221.006 16.589 C 223.643 16.905,226.700 17.271,227.800 17.402 C 234.814 18.237,247.710 21.104,255.800 23.626 C 278.309 30.644,297.939 41.025,316.200 55.568 C 317.740 56.795,319.090 57.889,319.200 57.999 C 319.310 58.110,320.930 59.543,322.800 61.184 C 326.466 64.401,334.728 72.552,337.619 75.804 C 344.805 83.886,348.929 89.209,354.168 97.164 C 363.663 111.579,373.375 131.284,371.554 132.437 C 370.931 132.831,334.393 132.939,332.459 132.552 L 331.218 132.304 331.109 108.381 C 330.988 81.719,331.190 83.623,328.246 81.425 C 327.153 80.609,326.820 80.600,296.871 80.600 L 266.600 80.600 266.483 83.237 C 266.312 87.090,263.732 86.770,295.970 86.892 L 324.476 87.000 325.436 88.200 L 326.396 89.400 326.398 110.857 C 326.400 130.056,326.333 132.340,325.767 132.557 C 324.765 132.942,304.154 132.839,303.126 132.445 C 302.617 132.249,301.570 131.500,300.800 130.781 C 296.648 126.900,292.468 122.916,288.000 118.579 C 281.462 112.233,283.335 112.800,268.911 112.800 L 256.570 112.800 253.785 115.423 C 250.778 118.255,245.750 121.785,242.700 123.204 C 240.462 124.245,240.374 124.526,242.065 125.227 C 245.930 126.828,250.956 124.970,253.454 121.016 L 254.600 119.201 267.129 119.201 L 279.658 119.200 287.700 126.900 C 292.122 131.135,296.654 135.500,297.770 136.600 L 299.800 138.600 313.000 138.800 L 326.200 139.000 326.308 147.490 L 326.416 155.981 325.505 156.209 C 325.005 156.335,319.707 156.384,313.732 156.319 L 302.870 156.200 299.935 153.424 C 298.321 151.897,295.200 148.921,293.000 146.811 C 290.800 144.702,287.633 141.673,285.963 140.081 L 282.926 137.187 273.235 137.094 C 265.106 137.015,263.489 136.903,263.205 136.400 C 258.013 127.212,245.418 129.075,244.512 139.165 C 243.557 149.801,256.844 153.918,262.617 144.774 L 263.610 143.200 271.905 143.211 L 280.200 143.221 283.000 145.852 C 290.452 152.855,293.204 155.751,292.707 156.066 C 292.428 156.243,281.957 156.391,269.437 156.394 L 246.675 156.400 240.000 149.800 L 233.325 143.200 222.501 143.200 L 211.676 143.200 210.658 141.463 C 209.034 138.692,206.039 136.800,203.275 136.800 C 200.854 136.800,192.638 145.204,192.731 147.584 C 193.093 156.822,207.928 159.207,211.217 150.556 L 211.580 149.600 221.268 149.600 L 230.955 149.600 237.288 155.900 L 243.621 162.200 284.910 162.400 L 326.200 162.600 326.310 168.900 L 326.420 175.200 277.848 175.200 L 229.276 175.200 227.538 176.625 C 225.208 178.535,224.943 178.779,222.409 181.365 C 221.146 182.654,219.868 183.600,219.390 183.600 C 218.817 183.600,218.105 184.317,217.080 185.926 C 215.250 188.798,213.672 190.343,212.158 190.747 C 211.500 190.922,210.606 191.648,210.087 192.427 C 208.153 195.333,208.270 195.275,204.679 195.070 C 202.876 194.967,200.800 194.752,200.067 194.591 C 199.241 194.410,198.392 194.483,197.831 194.784 C 197.221 195.110,195.894 195.191,193.763 195.032 C 189.654 194.725,188.279 194.724,185.546 195.022 L 183.292 195.269 182.567 193.370 C 181.393 190.295,179.596 188.800,177.075 188.800 C 176.318 188.800,175.039 188.525,174.234 188.189 C 168.934 185.974,162.132 195.376,164.639 201.451 C 167.869 209.276,178.075 210.091,182.238 202.857 L 183.076 201.400 185.838 201.498 C 188.702 201.599,193.254 201.639,197.400 201.598 C 198.720 201.585,202.071 201.625,204.848 201.687 L 209.895 201.800 212.949 198.900 C 214.628 197.305,216.262 196.000,216.579 196.000 C 216.896 196.000,217.750 195.248,218.477 194.328 C 221.069 191.053,224.216 188.021,225.266 187.788 C 225.953 187.635,226.554 187.083,226.956 186.235 C 227.300 185.512,228.391 184.173,229.381 183.260 L 231.182 181.600 261.367 181.600 C 277.969 181.600,291.647 181.752,291.762 181.939 C 291.961 182.261,289.837 184.409,281.909 191.901 L 278.419 195.200 266.341 195.200 C 253.756 195.200,252.800 195.074,252.800 193.419 C 252.800 192.039,248.912 189.336,245.800 188.552 C 244.700 188.275,243.440 187.938,242.999 187.803 C 240.283 186.973,234.000 194.565,234.000 198.678 L 234.000 201.417 236.444 203.884 C 241.977 209.468,248.864 209.199,252.473 203.257 C 253.767 201.126,253.131 201.213,267.537 201.206 C 280.384 201.200,280.912 201.170,281.919 200.378 C 282.494 199.926,286.482 196.177,290.782 192.048 C 295.082 187.918,299.345 183.876,300.255 183.064 L 301.910 181.588 314.055 181.694 L 326.200 181.800 326.311 201.600 C 326.432 223.271,326.457 222.882,324.911 223.895 C 323.893 224.562,318.416 224.611,222.418 224.800 L 121.000 225.000 120.949 230.278 C 120.921 233.181,120.793 235.973,120.666 236.481 C 120.168 238.465,118.899 238.389,154.422 238.498 L 187.800 238.600 187.907 249.600 C 188.037 263.004,189.088 261.600,178.924 261.600 L 171.200 261.600 171.200 264.802 L 171.200 268.005 202.700 267.902 L 234.200 267.800 234.317 264.700 L 234.434 261.600 226.231 261.600 C 218.530 261.600,218.003 261.553,217.614 260.826 C 217.170 259.996,217.014 240.150,217.443 239.033 C 217.663 238.460,222.834 238.400,271.917 238.400 C 325.136 238.400,326.178 238.385,327.782 237.608 C 331.162 235.972,330.974 237.603,331.200 208.000 L 331.400 181.800 357.377 181.697 C 371.664 181.640,383.487 181.730,383.650 181.897 C 383.813 182.064,384.158 185.530,384.418 189.600 C 385.404 205.074,383.449 225.088,379.357 241.400 C 376.702 251.984,374.421 259.164,371.956 264.696 C 371.540 265.628,371.200 266.546,371.200 266.736 C 371.200 266.926,370.112 269.493,368.782 272.440 C 365.332 280.088,361.630 287.042,356.600 295.323 C 353.869 299.820,344.004 313.255,342.005 315.200 C 341.892 315.310,340.461 316.930,338.825 318.800 C 327.129 332.167,312.884 343.999,295.600 354.702 C 290.895 357.616,279.244 363.606,275.123 365.230 C 273.963 365.688,272.060 366.498,270.895 367.031 C 269.730 367.564,268.522 368.000,268.212 368.000 C 267.901 368.000,267.549 368.159,267.430 368.352 C 267.310 368.546,266.804 368.797,266.306 368.909 C 265.808 369.022,263.060 369.917,260.200 370.900 C 257.340 371.882,253.470 373.089,251.600 373.583 C 249.730 374.077,247.750 374.635,247.200 374.824 C 246.313 375.129,244.530 375.524,238.000 376.864 C 233.337 377.821,227.398 378.707,219.200 379.668 C 208.896 380.877,187.347 380.238,175.200 378.362 C 131.273 371.580,91.400 349.444,63.588 316.400 C 62.385 314.970,61.305 313.710,61.189 313.600 C 60.725 313.161,55.278 306.031,53.397 303.401 C 42.230 287.788,31.507 265.502,26.935 248.400 C 23.898 237.044,22.153 228.366,21.225 220.000 C 20.227 211.011,19.998 206.851,19.999 197.714 C 20.000 188.656,20.171 185.640,21.229 176.000 C 22.731 162.323,27.603 142.939,32.491 131.200 C 32.720 130.650,33.045 129.840,33.213 129.400 C 35.016 124.681,39.397 115.543,42.668 109.679 C 61.327 76.225,89.062 50.093,123.478 33.540 C 126.600 32.038,130.560 30.253,132.278 29.572 C 133.995 28.892,135.940 28.101,136.600 27.813 C 139.727 26.452,147.255 23.934,152.263 22.574 C 157.586 21.129,163.951 19.571,166.200 19.165 C 167.520 18.926,169.500 18.555,170.600 18.341 C 175.098 17.464,184.342 16.377,190.600 15.991 C 197.744 15.549,215.188 15.893,221.006 16.589 M221.000 47.051 C 198.960 48.994,182.324 71.102,187.024 92.200 C 187.367 93.740,187.739 95.720,187.851 96.600 L 188.055 98.200 139.883 146.344 L 91.712 194.487 88.156 193.582 C 64.389 187.532,40.801 206.012,40.800 230.680 C 40.800 235.995,41.370 238.271,42.940 239.228 C 45.383 240.718,45.459 240.667,55.565 230.635 C 70.335 215.974,72.030 215.748,83.149 226.963 C 90.257 234.132,91.554 236.949,89.886 241.600 C 89.047 243.940,88.810 244.211,79.050 254.009 C 70.382 262.709,69.600 263.608,69.600 264.872 C 69.600 267.843,71.848 268.794,78.874 268.798 C 97.090 268.806,111.121 257.708,116.292 239.200 C 117.329 235.488,117.177 225.426,116.021 221.266 L 115.094 217.932 163.247 169.743 C 217.821 115.127,210.906 121.219,216.800 122.574 C 234.954 126.748,254.647 115.460,260.718 97.400 C 263.449 89.276,263.374 78.454,260.574 76.619 C 258.145 75.028,257.805 75.259,247.591 85.451 C 237.234 95.785,237.627 95.460,234.485 96.281 C 229.886 97.481,227.501 96.210,219.912 88.515 C 213.488 82.001,212.407 79.783,213.402 75.166 C 213.969 72.533,214.964 71.326,224.325 61.909 C 234.272 51.903,234.466 51.633,233.497 49.110 C 232.934 47.640,226.443 46.571,221.000 47.051 M79.268 80.686 C 78.755 80.784,77.630 81.570,76.766 82.434 L 75.197 84.003 75.299 136.301 L 75.400 188.600 76.548 188.731 C 77.180 188.803,78.125 188.755,78.648 188.624 L 79.600 188.385 79.600 139.452 C 79.600 88.279,79.593 88.494,81.342 87.492 C 82.003 87.113,93.695 86.954,132.200 86.800 L 182.200 86.600 182.200 83.600 L 182.200 80.600 131.200 80.554 C 103.150 80.528,79.781 80.588,79.268 80.686 M256.618 137.782 C 258.718 139.882,257.075 143.600,254.047 143.600 C 252.507 143.600,250.400 141.754,250.400 140.404 C 250.400 137.220,254.379 135.542,256.618 137.782 M374.700 139.300 C 375.472 140.269,378.771 150.985,379.375 154.488 C 379.728 156.533,381.034 156.437,354.600 156.311 L 331.400 156.200 331.291 148.011 C 331.232 143.507,331.271 139.592,331.379 139.311 C 331.663 138.571,374.111 138.560,374.700 139.300 M203.976 143.388 C 205.256 144.050,206.012 145.756,205.715 147.312 C 205.217 149.914,201.548 150.750,199.758 148.669 C 197.170 145.660,200.445 141.562,203.976 143.388 M381.138 163.100 C 381.340 163.485,381.717 165.150,381.977 166.800 C 382.237 168.450,382.628 170.837,382.846 172.104 C 383.064 173.372,383.132 174.587,382.997 174.804 C 382.840 175.059,373.544 175.200,356.976 175.200 L 331.200 175.200 331.200 169.067 C 331.200 165.693,331.320 162.813,331.467 162.667 C 332.177 161.956,380.762 162.380,381.138 163.100 M175.526 194.962 C 177.765 196.120,177.936 200.125,175.782 200.952 C 172.217 202.320,169.135 198.029,171.782 195.382 C 172.896 194.267,173.954 194.149,175.526 194.962 M246.790 195.590 C 248.978 197.778,247.139 202.269,244.410 201.403 C 242.106 200.672,239.663 196.447,241.500 196.371 C 241.885 196.355,242.740 196.008,243.400 195.600 C 244.972 194.629,245.826 194.626,246.790 195.590 M204.069 229.462 C 205.531 230.786,204.582 233.200,202.600 233.200 C 200.653 233.200,199.731 231.002,201.062 229.531 C 201.885 228.622,203.109 228.594,204.069 229.462 M101.735 291.361 L 88.600 304.321 88.613 307.861 C 88.620 309.807,88.749 311.715,88.900 312.100 C 89.177 312.805,315.141 313.258,316.967 312.557 C 317.485 312.359,317.600 311.598,317.600 308.372 L 317.600 304.430 304.735 291.415 L 291.870 278.400 203.370 278.400 L 114.869 278.400 101.735 291.361 M127.440 282.065 C 128.114 283.155,125.334 284.800,122.817 284.800 C 119.897 284.800,119.449 284.248,121.142 282.735 C 122.520 281.504,126.811 281.048,127.440 282.065 M136.000 281.995 C 137.613 283.023,134.780 284.786,131.500 284.794 C 129.493 284.799,129.200 284.702,129.200 284.029 C 129.200 282.146,133.990 280.713,136.000 281.995 M145.063 282.220 C 145.201 282.579,144.907 283.260,144.366 283.837 C 143.177 285.102,138.315 285.159,138.077 283.911 C 137.742 282.157,144.419 280.541,145.063 282.220 M153.367 281.843 C 155.569 282.688,153.069 284.800,149.867 284.800 C 147.044 284.800,146.654 284.620,147.211 283.579 C 148.193 281.744,151.028 280.945,153.367 281.843 M162.167 281.843 C 163.029 282.174,162.962 283.038,162.000 284.000 C 160.834 285.166,156.000 285.189,156.000 284.029 C 156.000 282.261,159.772 280.924,162.167 281.843 M171.515 282.181 C 172.492 283.158,170.507 284.603,168.027 284.721 C 164.674 284.880,163.446 282.500,166.557 281.870 C 167.707 281.637,171.189 281.856,171.515 282.181 M180.323 282.190 C 181.863 283.730,176.147 285.815,174.080 284.467 C 173.408 284.029,174.202 282.116,175.156 281.874 C 176.012 281.657,180.036 281.903,180.323 282.190 M189.121 282.187 C 189.246 282.313,189.177 282.907,188.966 283.508 C 188.559 284.673,184.037 285.397,183.090 284.450 C 182.515 283.875,183.087 282.083,183.900 281.910 C 184.884 281.702,188.845 281.912,189.121 282.187 M196.165 281.857 C 197.978 282.106,198.038 282.157,197.921 283.357 L 197.800 284.600 194.800 284.600 C 192.046 284.600,191.790 284.530,191.679 283.750 C 191.421 281.942,192.737 281.387,196.165 281.857 M206.332 281.950 C 208.021 283.020,206.672 284.597,203.963 284.717 C 200.570 284.867,198.674 282.470,201.719 281.880 C 203.320 281.569,205.791 281.607,206.332 281.950 M214.286 281.972 C 215.448 282.009,216.245 283.423,215.565 284.242 C 215.202 284.679,214.386 284.803,212.437 284.717 L 209.800 284.600 209.677 283.331 C 209.545 281.970,210.175 281.627,212.400 281.846 C 212.950 281.900,213.799 281.957,214.286 281.972 M224.294 282.661 C 225.370 284.132,224.787 284.592,221.689 284.718 C 218.604 284.843,217.534 284.071,218.427 282.364 C 218.921 281.420,223.558 281.655,224.294 282.661 M233.119 282.520 C 234.959 283.974,231.441 285.449,228.121 284.616 C 226.671 284.252,226.811 282.110,228.300 281.893 C 229.809 281.673,232.489 282.022,233.119 282.520 M241.986 282.774 C 242.948 284.571,242.601 284.843,239.510 284.718 C 236.658 284.602,235.078 283.568,235.848 282.322 C 236.308 281.578,241.552 281.963,241.986 282.774 M250.786 282.774 C 251.748 284.571,251.401 284.843,248.310 284.718 C 245.458 284.602,243.878 283.568,244.648 282.322 C 245.108 281.578,250.352 281.963,250.786 282.774 M259.721 283.016 C 260.750 284.429,260.288 284.800,257.502 284.800 C 254.991 284.800,253.200 283.855,253.200 282.530 C 253.200 281.434,258.878 281.857,259.721 283.016 M268.574 283.149 C 269.348 284.646,269.131 284.800,266.259 284.800 C 263.792 284.800,262.000 283.845,262.000 282.530 C 262.000 281.294,267.901 281.849,268.574 283.149 M277.074 282.870 C 278.677 284.375,278.292 284.800,275.326 284.800 C 272.585 284.800,270.800 283.905,270.800 282.530 C 270.800 281.548,275.964 281.827,277.074 282.870 M286.131 283.128 C 287.517 284.574,287.237 284.800,284.059 284.800 C 281.387 284.800,279.600 283.890,279.600 282.530 C 279.600 281.364,284.906 281.849,286.131 283.128 M123.166 286.371 C 123.622 286.659,123.487 286.974,122.479 287.982 C 121.193 289.268,115.681 289.746,115.348 288.600 C 114.869 286.953,121.224 285.141,123.166 286.371 M132.655 286.522 C 133.622 287.489,130.615 289.200,127.949 289.200 C 124.664 289.200,124.195 288.696,125.991 287.092 C 127.293 285.928,131.686 285.553,132.655 286.522 M140.500 286.257 C 142.271 286.550,142.340 286.824,140.982 288.182 C 139.898 289.266,134.774 289.729,134.197 288.796 C 133.221 287.216,137.027 285.683,140.500 286.257 M151.110 286.729 C 151.558 288.075,149.576 289.200,146.754 289.200 C 143.843 289.200,143.311 288.887,144.008 287.586 C 144.792 286.120,150.670 285.410,151.110 286.729 M160.000 286.396 C 162.230 287.822,156.289 290.164,153.326 289.027 C 152.758 288.809,153.587 287.027,154.591 286.306 C 155.187 285.878,159.297 285.946,160.000 286.396 M169.521 287.050 C 169.771 288.804,163.602 290.422,162.635 288.856 C 162.311 288.333,163.320 286.440,164.000 286.296 C 166.305 285.805,169.404 286.228,169.521 287.050 M179.089 286.556 C 180.206 287.673,178.129 289.002,175.086 289.117 C 171.800 289.241,171.203 288.778,172.500 287.110 C 173.303 286.078,178.199 285.666,179.089 286.556 M187.949 286.360 C 188.361 286.621,188.403 286.993,188.117 287.854 C 187.722 289.043,182.499 289.859,181.524 288.884 C 180.932 288.292,181.878 286.476,182.878 286.285 C 184.554 285.965,187.391 286.007,187.949 286.360 M196.967 286.243 C 197.335 286.384,197.600 286.953,197.600 287.600 C 197.600 288.247,197.335 288.816,196.967 288.957 C 195.902 289.366,191.264 289.227,190.986 288.777 C 190.558 288.085,191.147 286.472,191.900 286.276 C 192.982 285.993,196.261 285.972,196.967 286.243 M206.525 286.355 C 206.704 286.380,206.794 286.985,206.725 287.700 L 206.600 289.000 203.400 289.000 C 200.311 289.000,200.195 288.966,200.062 288.022 C 199.818 286.296,202.011 285.730,206.525 286.355 M215.253 286.329 C 215.954 286.405,216.458 288.059,216.004 288.793 C 215.409 289.756,209.817 289.119,209.668 288.071 C 209.413 286.269,210.769 285.846,215.253 286.329 M225.253 286.859 C 226.257 288.405,225.521 288.995,222.435 289.119 C 219.297 289.245,218.818 289.009,218.806 287.333 C 218.797 285.994,224.423 285.580,225.253 286.859 M232.856 286.250 C 234.304 286.489,235.518 287.963,234.981 288.830 C 234.497 289.614,228.864 289.268,228.414 288.426 C 227.326 286.393,228.941 285.602,232.856 286.250 M243.565 286.614 C 243.773 286.826,244.066 287.495,244.215 288.100 L 244.487 289.200 241.543 289.194 C 239.925 289.191,238.399 289.056,238.154 288.894 C 237.430 288.417,237.053 286.738,237.594 286.404 C 238.277 285.982,243.113 286.151,243.565 286.614 M253.100 287.122 C 254.359 288.710,253.780 289.200,250.646 289.200 C 247.690 289.200,246.400 288.483,246.400 286.841 C 246.400 285.847,252.285 286.095,253.100 287.122 M262.491 287.343 C 263.774 288.934,263.429 289.200,260.086 289.200 C 257.043 289.200,255.600 288.385,255.600 286.666 C 255.600 285.702,261.647 286.296,262.491 287.343 M271.876 287.518 C 273.103 288.968,272.763 289.200,269.405 289.200 C 266.514 289.200,264.800 288.297,264.800 286.774 C 264.800 285.577,270.764 286.204,271.876 287.518 M281.100 287.421 C 282.480 288.991,282.235 289.200,279.016 289.200 C 276.133 289.200,274.000 288.150,274.000 286.731 C 274.000 285.627,280.039 286.215,281.100 287.421 M290.274 287.270 C 291.910 288.806,291.502 289.200,288.275 289.200 C 285.455 289.200,283.200 288.079,283.200 286.678 C 283.200 285.897,289.362 286.412,290.274 287.270 M118.640 291.264 C 119.440 292.559,116.147 294.400,113.029 294.400 C 109.402 294.400,109.149 294.101,111.204 292.244 C 112.900 290.712,117.892 290.054,118.640 291.264 M128.329 291.147 C 129.906 292.147,126.268 294.400,123.076 294.400 C 119.442 294.400,119.142 294.085,121.004 292.223 C 122.462 290.765,126.736 290.137,128.329 291.147 M138.211 291.217 C 139.115 292.680,136.409 294.400,133.203 294.400 C 129.454 294.400,129.082 294.038,130.930 292.190 C 132.372 290.748,137.498 290.064,138.211 291.217 M147.850 291.386 C 148.510 293.107,146.504 294.400,143.173 294.400 C 139.573 294.400,139.116 293.870,140.981 291.858 C 142.153 290.594,147.407 290.232,147.850 291.386 M157.866 291.400 C 158.426 293.116,156.431 294.400,153.206 294.400 C 149.567 294.400,149.019 293.745,150.999 291.764 C 152.052 290.711,157.547 290.420,157.866 291.400 M167.320 292.135 C 167.182 294.086,166.604 294.400,163.151 294.400 C 159.793 294.400,159.121 293.779,160.513 291.965 C 161.827 290.252,167.443 290.392,167.320 292.135 M177.441 291.364 C 178.154 293.221,176.513 294.400,173.213 294.400 C 169.685 294.400,169.295 294.150,170.175 292.448 C 171.048 290.761,176.876 289.891,177.441 291.364 M187.129 292.124 C 187.345 294.007,186.657 294.400,183.151 294.400 L 180.000 294.400 180.000 293.229 C 180.000 290.528,186.825 289.470,187.129 292.124 M196.737 291.324 C 198.436 293.372,194.454 295.203,190.473 294.204 C 189.477 293.954,189.481 292.508,190.481 291.302 C 191.057 290.608,196.158 290.626,196.737 291.324 M206.330 291.148 C 206.648 291.350,206.808 292.025,206.730 292.842 L 206.600 294.200 203.435 294.318 C 199.715 294.457,198.876 293.601,200.279 291.100 C 200.509 290.690,205.671 290.731,206.330 291.148 M216.380 291.376 C 216.643 291.693,216.800 292.458,216.729 293.076 L 216.600 294.200 213.200 294.200 L 209.800 294.200 209.670 292.842 C 209.592 292.025,209.752 291.350,210.070 291.148 C 210.998 290.560,215.848 290.735,216.380 291.376 M225.887 291.122 C 226.155 291.292,226.425 292.054,226.487 292.816 L 226.600 294.200 223.355 294.315 L 220.110 294.431 219.606 293.215 C 218.827 291.335,219.527 290.799,222.749 290.806 C 224.207 290.809,225.619 290.952,225.887 291.122 M235.067 291.044 C 236.091 291.318,237.119 293.441,236.520 294.040 C 236.302 294.258,234.707 294.383,232.976 294.318 L 229.828 294.200 229.446 292.865 C 228.903 290.967,231.564 290.104,235.067 291.044 M245.777 291.689 C 247.273 293.824,246.720 294.400,243.180 294.400 L 239.959 294.400 239.350 292.942 C 238.566 291.065,238.933 290.814,242.477 290.806 C 244.794 290.801,245.238 290.920,245.777 291.689 M255.894 292.372 C 257.115 294.187,256.717 294.459,253.035 294.318 C 249.746 294.192,248.271 293.155,248.932 291.433 C 249.477 290.014,254.790 290.730,255.894 292.372 M265.395 291.832 C 267.284 293.871,266.838 294.400,263.227 294.400 C 259.961 294.400,257.887 293.113,258.516 291.475 C 258.947 290.352,264.279 290.629,265.395 291.832 M275.465 292.237 C 276.806 293.912,276.494 294.186,273.101 294.316 C 270.161 294.429,268.000 293.232,268.000 291.492 C 268.000 290.235,274.373 290.872,275.465 292.237 M285.070 292.190 C 286.898 294.018,286.543 294.400,283.018 294.400 C 279.911 294.400,276.485 292.153,278.064 291.152 C 279.621 290.165,283.641 290.761,285.070 292.190 M295.155 292.352 C 296.797 294.110,296.500 294.400,293.055 294.400 C 289.892 294.400,286.417 292.191,288.005 291.190 C 289.504 290.244,293.845 290.950,295.155 292.352 M113.422 296.436 C 113.571 296.676,113.005 297.576,112.165 298.436 L 110.638 300.000 107.119 300.000 C 103.066 300.000,102.976 299.877,105.391 297.651 C 107.244 295.943,112.615 295.130,113.422 296.436 M123.800 296.687 C 123.800 298.566,121.189 300.000,117.768 300.000 C 113.926 300.000,113.813 299.851,115.955 297.599 L 117.510 295.965 120.655 296.082 C 122.796 296.162,123.800 296.356,123.800 296.687 M134.270 296.606 C 134.344 296.830,133.850 297.685,133.173 298.506 L 131.942 300.000 128.594 300.000 C 124.570 300.000,124.375 299.793,126.365 297.638 L 127.910 295.965 131.023 296.082 C 132.735 296.147,134.196 296.383,134.270 296.606 M144.591 296.385 C 144.722 296.597,144.370 297.497,143.809 298.385 L 142.790 300.000 139.419 300.000 C 135.440 300.000,135.239 299.819,136.810 297.650 L 138.005 296.000 141.179 296.000 C 142.925 296.000,144.460 296.173,144.591 296.385 M155.077 296.627 C 155.655 298.376,153.410 299.799,149.885 299.916 C 145.894 300.048,145.595 299.731,147.432 297.322 L 148.465 295.969 151.700 296.084 C 153.539 296.150,154.997 296.384,155.077 296.627 M165.266 297.000 C 164.838 299.557,164.454 299.792,160.496 299.915 C 156.619 300.036,156.391 299.920,157.300 298.295 C 158.553 296.052,158.750 295.963,162.176 296.085 C 165.148 296.191,165.390 296.263,165.266 297.000 M237.790 297.180 C 238.125 297.829,238.400 298.729,238.400 299.180 L 238.400 300.000 203.000 300.000 C 164.352 300.000,167.096 300.178,168.025 297.734 C 168.697 295.966,167.755 296.013,203.290 296.006 L 237.179 296.000 237.790 297.180 M248.392 297.682 C 249.394 299.920,249.290 300.000,245.370 300.000 L 241.987 300.000 241.337 298.636 C 240.260 296.378,240.700 296.000,244.407 296.000 L 247.639 296.000 248.392 297.682 M258.301 296.900 C 258.763 297.395,259.264 298.295,259.414 298.900 L 259.687 300.000 256.037 300.000 L 252.387 300.000 251.737 298.636 C 250.680 296.421,251.124 296.000,254.518 296.000 C 257.054 296.000,257.577 296.124,258.301 296.900 M267.787 296.250 C 268.598 296.562,270.439 299.214,270.159 299.667 C 269.530 300.684,263.263 300.012,262.427 298.838 C 261.585 297.656,261.387 296.746,261.867 296.267 C 262.204 295.929,266.916 295.916,267.787 296.250 M278.302 296.331 C 278.924 296.726,280.800 299.239,280.800 299.678 C 280.800 299.855,279.183 300.000,277.206 300.000 L 273.611 300.000 272.568 298.423 C 271.994 297.556,271.642 296.656,271.786 296.423 C 272.089 295.933,277.553 295.855,278.302 296.331 M289.754 297.488 C 291.954 299.753,291.748 300.002,287.700 299.985 L 284.200 299.971 283.100 298.521 C 281.363 296.232,281.552 296.000,285.154 296.000 C 288.269 296.000,288.327 296.019,289.754 297.488 M299.999 297.447 C 302.434 299.647,302.192 300.000,298.247 300.000 L 294.893 300.000 293.433 298.384 C 291.555 296.305,291.810 296.000,295.422 296.000 C 298.279 296.000,298.462 296.058,299.999 297.447 " stroke="none" fill="#fbfbfb" fill-rule="evenodd"></path></g></svg>