<svg id="svg" version="1.1" xmlns="http://www.w3.org/2000/svg" xmlns:xlink="http://www.w3.org/1999/xlink" width="400" height="400" viewBox="0, 0, 400,400"><g id="svgg"><path id="path0" d="M117.440 106.682 C 116.362 107.011,115.228 107.487,114.919 107.740 C 112.811 109.468,111.211 111.249,110.373 112.800 L 109.400 114.600 109.289 176.146 C 109.206 222.080,109.295 237.832,109.638 238.246 C 110.324 239.072,304.471 239.078,305.157 238.251 C 305.494 237.845,305.585 221.764,305.506 176.351 L 305.400 115.000 304.491 113.029 C 303.708 111.331,302.061 109.431,299.914 107.748 C 297.609 105.943,300.585 105.997,207.138 106.042 C 130.467 106.078,119.153 106.159,117.440 106.682 M288.567 122.643 C 289.401 122.963,289.552 221.488,288.720 222.320 C 288.021 223.019,126.779 223.019,126.080 222.320 C 125.364 221.604,125.384 122.954,126.100 122.665 C 126.820 122.374,287.810 122.352,288.567 122.643 M185.054 132.900 C 184.744 133.395,184.374 134.430,184.232 135.200 C 183.937 136.797,182.180 139.509,181.017 140.161 C 180.586 140.402,179.988 140.825,179.688 141.100 C 178.940 141.786,174.961 141.731,173.662 141.016 C 173.078 140.696,171.734 140.056,170.676 139.595 L 168.752 138.758 165.731 141.778 C 162.855 144.655,162.723 144.866,162.974 146.199 C 163.118 146.970,163.401 147.600,163.603 147.600 C 163.804 147.600,164.161 148.312,164.395 149.183 C 164.630 150.054,164.997 150.874,165.211 151.007 C 166.109 151.562,165.614 154.588,164.300 156.571 C 162.989 158.548,161.767 159.373,157.300 161.293 L 155.200 162.195 155.200 166.028 C 155.200 170.328,155.689 171.236,158.304 171.789 C 163.472 172.883,166.970 178.130,165.070 181.938 C 164.779 182.522,164.149 183.756,163.670 184.679 C 162.387 187.155,162.536 187.613,165.561 190.534 C 168.949 193.806,169.226 193.825,174.495 191.152 C 175.447 190.669,178.800 190.706,178.800 191.200 C 178.800 191.420,179.115 191.607,179.500 191.616 C 181.040 191.652,184.400 195.912,184.400 197.829 C 184.400 199.965,185.973 200.800,190.000 200.800 C 194.321 200.800,195.142 200.286,195.750 197.200 C 196.120 195.327,197.952 192.748,199.414 192.042 C 200.066 191.728,200.913 191.319,201.295 191.135 C 202.229 190.684,204.647 190.710,205.505 191.181 C 210.557 193.949,211.165 193.909,214.368 190.606 C 217.654 187.217,217.628 187.342,215.800 183.772 C 212.994 178.292,215.309 173.357,221.400 171.837 C 223.756 171.249,224.000 170.703,223.995 166.038 L 223.991 161.800 222.495 161.130 C 221.673 160.761,220.550 160.362,220.000 160.243 C 216.348 159.454,212.333 151.022,215.161 150.080 C 215.402 149.999,215.600 149.721,215.600 149.461 C 215.600 149.201,215.960 148.316,216.400 147.496 C 217.602 145.253,217.446 144.824,214.291 141.690 C 210.883 138.305,211.491 138.448,207.945 140.200 C 204.913 141.699,201.415 142.111,200.312 141.100 C 200.012 140.825,199.414 140.402,198.983 140.161 C 197.775 139.484,196.042 136.767,195.756 135.100 C 195.614 134.275,195.353 133.600,195.176 133.600 C 194.999 133.600,194.740 133.240,194.600 132.800 C 194.188 131.501,185.877 131.588,185.054 132.900 M193.540 153.830 C 196.888 155.273,197.786 155.881,199.628 157.947 C 200.692 159.140,201.675 160.629,201.812 161.254 C 201.949 161.879,202.228 162.494,202.431 162.619 C 203.784 163.456,202.609 170.350,200.593 173.400 C 193.687 183.847,177.200 178.768,177.200 166.194 C 177.200 161.827,180.616 155.600,183.011 155.600 C 183.288 155.600,183.618 155.330,183.745 155.000 C 183.871 154.670,184.386 154.394,184.887 154.386 C 185.389 154.378,186.250 154.114,186.800 153.800 C 188.138 153.035,191.733 153.051,193.540 153.830 M234.956 178.300 C 233.774 182.082,230.501 183.971,228.176 182.213 C 226.951 181.286,226.068 181.490,224.419 183.080 L 222.884 184.560 223.642 185.974 C 224.990 188.490,223.907 192.400,221.862 192.400 C 218.847 192.400,218.169 197.429,220.998 198.799 C 224.179 200.339,225.184 202.688,223.798 205.346 C 222.620 207.604,225.413 211.139,227.364 209.860 C 230.103 208.066,233.717 209.522,234.893 212.895 C 235.563 214.816,239.197 214.547,240.233 212.500 C 241.910 209.185,244.693 208.161,247.600 209.788 C 249.634 210.926,252.453 206.961,250.987 205.024 C 249.414 202.944,251.447 199.131,254.450 198.530 C 255.555 198.309,255.600 198.211,255.600 196.021 L 255.600 193.742 253.702 192.794 C 250.627 191.258,249.266 188.239,251.000 186.800 C 253.037 185.110,249.092 180.587,246.976 182.187 C 244.748 183.873,241.807 182.524,240.246 179.100 C 239.448 177.349,235.443 176.743,234.956 178.300 M241.287 190.119 C 245.676 193.714,245.457 198.860,240.789 201.807 C 235.295 205.275,227.867 198.393,231.230 192.952 C 233.510 189.263,238.519 187.852,241.287 190.119 M107.292 250.779 C 106.579 251.867,105.813 253.172,105.589 253.679 C 105.364 254.185,104.748 255.320,104.220 256.200 C 103.691 257.080,102.782 258.745,102.200 259.900 C 101.618 261.055,100.975 262.000,100.771 262.000 C 100.567 262.000,100.400 262.349,100.400 262.776 C 100.400 263.203,100.202 263.675,99.959 263.825 C 99.717 263.975,99.261 264.661,98.946 265.349 C 98.632 266.037,98.023 267.140,97.593 267.800 C 97.163 268.460,96.618 269.446,96.381 269.992 C 96.144 270.537,95.823 271.077,95.667 271.192 C 95.511 271.306,95.164 271.850,94.895 272.400 C 94.626 272.950,94.237 273.670,94.032 274.000 C 93.826 274.330,93.553 274.870,93.424 275.200 C 93.296 275.530,92.835 276.340,92.400 277.000 C 91.965 277.660,91.384 278.650,91.109 279.200 C 90.834 279.750,90.382 280.438,90.105 280.729 C 89.827 281.019,89.600 281.570,89.600 281.952 C 89.600 282.334,89.336 282.996,89.013 283.424 C 87.678 285.189,88.904 294.400,90.474 294.400 C 90.653 294.400,90.800 294.614,90.800 294.875 C 90.800 295.531,94.057 298.375,94.824 298.389 C 95.166 298.395,95.796 298.664,96.224 298.987 C 97.400 299.877,317.400 299.877,318.576 298.987 C 319.004 298.664,319.660 298.400,320.036 298.400 C 321.044 298.400,324.529 294.813,325.530 292.744 C 327.452 288.775,326.133 281.117,322.942 277.715 C 322.691 277.447,322.087 276.456,321.601 275.514 C 321.115 274.571,320.298 273.080,319.785 272.200 C 319.272 271.320,318.353 269.655,317.743 268.500 C 317.132 267.345,316.490 266.400,316.316 266.400 C 316.142 266.400,316.000 266.154,316.000 265.854 C 316.000 265.554,315.640 264.850,315.200 264.291 C 314.760 263.731,314.400 263.086,314.400 262.857 C 314.400 262.628,313.880 261.666,313.244 260.720 C 311.828 258.613,309.746 254.984,309.102 253.500 C 308.839 252.895,308.484 252.400,308.312 252.400 C 308.141 252.400,308.000 252.186,308.000 251.925 C 308.000 251.663,307.595 250.855,307.100 250.127 L 306.200 248.805 207.394 248.803 L 108.587 248.800 107.292 250.779 M226.672 268.300 C 226.807 268.685,227.251 269.755,227.659 270.678 C 228.067 271.601,228.400 272.653,228.400 273.016 C 228.400 273.379,228.645 274.154,228.945 274.738 C 230.560 277.887,231.280 281.850,230.344 282.443 C 229.736 282.829,185.627 282.939,184.633 282.557 C 183.732 282.212,183.856 280.639,185.040 277.400 C 185.603 275.860,186.223 273.958,186.417 273.174 C 186.612 272.389,187.046 271.219,187.383 270.574 C 187.720 269.928,187.996 269.100,187.998 268.733 C 188.001 267.670,188.092 267.665,207.713 267.632 C 225.190 267.602,226.441 267.646,226.672 268.300 " stroke="none" fill="#fafafb" fill-rule="evenodd"></path><path id="path1" d="M116.422 106.387 C 112.694 107.863,109.789 111.532,108.813 116.000 C 107.981 119.806,108.288 238.175,109.131 238.938 C 110.330 240.023,304.758 239.951,305.741 238.866 C 306.355 238.187,306.396 233.527,306.289 177.166 C 306.168 113.942,306.151 113.287,304.573 111.978 C 304.258 111.716,304.000 111.292,304.000 111.036 C 304.000 110.179,300.203 107.121,298.189 106.356 C 295.195 105.219,119.297 105.249,116.422 106.387 M297.107 106.648 C 298.334 107.005,299.597 107.500,299.914 107.748 C 302.061 109.431,303.708 111.331,304.491 113.029 L 305.400 115.000 305.506 176.351 C 305.585 221.764,305.494 237.845,305.157 238.251 C 304.471 239.078,110.324 239.072,109.638 238.246 C 109.295 237.832,109.206 222.080,109.289 176.146 L 109.400 114.600 110.373 112.800 C 111.211 111.249,112.811 109.468,114.919 107.740 C 116.991 106.042,114.613 106.086,207.138 106.042 C 286.929 106.004,295.079 106.059,297.107 106.648 M126.100 122.665 C 125.384 122.954,125.364 221.604,126.080 222.320 C 126.779 223.019,288.021 223.019,288.720 222.320 C 289.552 221.488,289.401 122.963,288.567 122.643 C 287.810 122.352,126.820 122.374,126.100 122.665 M288.302 171.923 C 288.371 205.192,288.270 221.095,287.988 221.623 C 287.473 222.585,127.839 222.879,126.880 221.920 C 126.356 221.396,126.145 123.588,126.668 123.066 C 126.815 122.918,163.220 122.843,207.568 122.899 L 288.200 123.000 288.302 171.923 M184.870 132.126 C 184.391 132.635,184.000 133.365,184.000 133.748 C 184.000 136.062,181.702 139.351,179.332 140.431 C 176.995 141.496,176.061 141.408,172.627 139.800 C 168.676 137.950,168.654 137.955,165.300 141.340 C 162.095 144.575,161.805 145.465,163.123 148.006 C 166.391 154.303,164.867 157.626,157.400 160.485 L 155.000 161.404 155.000 166.187 C 155.000 171.587,154.743 171.160,158.857 172.589 C 164.348 174.495,165.961 178.384,163.471 183.713 C 161.659 187.591,161.582 187.270,165.208 190.984 L 168.480 194.336 169.940 193.810 C 170.743 193.520,171.935 192.999,172.589 192.652 C 177.595 190.000,182.666 192.730,184.143 198.872 C 184.643 200.948,185.278 201.200,190.000 201.200 C 194.901 201.200,195.610 200.804,196.184 197.745 C 197.281 191.897,201.890 190.314,209.000 193.344 L 211.400 194.367 214.328 191.484 C 218.254 187.617,218.272 187.575,217.080 185.068 C 214.893 180.465,214.696 178.957,215.957 176.484 C 217.055 174.334,220.695 172.000,222.951 172.000 C 224.310 172.000,224.800 170.383,224.800 165.905 L 224.800 161.588 223.570 160.841 C 222.894 160.429,221.679 159.986,220.870 159.856 C 215.736 159.030,213.798 153.219,216.859 147.827 C 218.334 145.228,218.211 144.830,214.908 141.507 C 211.378 137.957,211.138 137.895,207.645 139.641 C 202.177 142.373,197.956 140.658,196.317 135.036 C 195.282 131.490,194.804 131.200,189.995 131.200 C 186.064 131.200,185.673 131.271,184.870 132.126 M194.600 132.800 C 194.740 133.240,194.999 133.600,195.176 133.600 C 195.353 133.600,195.614 134.275,195.756 135.100 C 196.042 136.767,197.775 139.484,198.983 140.161 C 199.414 140.402,200.012 140.825,200.312 141.100 C 201.415 142.111,204.913 141.699,207.945 140.200 C 211.491 138.448,210.883 138.305,214.291 141.690 C 217.446 144.824,217.602 145.253,216.400 147.496 C 215.960 148.316,215.600 149.201,215.600 149.461 C 215.600 149.721,215.402 149.999,215.161 150.080 C 212.333 151.022,216.348 159.454,220.000 160.243 C 220.550 160.362,221.673 160.761,222.495 161.130 L 223.991 161.800 223.995 166.038 C 224.000 170.703,223.756 171.249,221.400 171.837 C 215.309 173.357,212.994 178.292,215.800 183.772 C 217.628 187.342,217.654 187.217,214.368 190.606 C 211.165 193.909,210.557 193.949,205.505 191.181 C 204.647 190.710,202.229 190.684,201.295 191.135 C 200.913 191.319,200.066 191.728,199.414 192.042 C 197.952 192.748,196.120 195.327,195.750 197.200 C 194.799 202.029,184.400 202.605,184.400 197.829 C 184.400 195.912,181.040 191.652,179.500 191.616 C 179.115 191.607,178.800 191.420,178.800 191.200 C 178.800 190.706,175.447 190.669,174.495 191.152 C 169.226 193.825,168.949 193.806,165.561 190.534 C 162.536 187.613,162.387 187.155,163.670 184.679 C 164.149 183.756,164.779 182.522,165.070 181.938 C 166.970 178.130,163.472 172.883,158.304 171.789 C 155.689 171.236,155.200 170.328,155.200 166.028 L 155.200 162.195 157.300 161.293 C 161.767 159.373,162.989 158.548,164.300 156.571 C 165.614 154.588,166.109 151.562,165.211 151.007 C 164.997 150.874,164.630 150.054,164.395 149.183 C 164.161 148.312,163.804 147.600,163.603 147.600 C 163.401 147.600,163.118 146.970,162.974 146.199 C 162.723 144.866,162.855 144.655,165.731 141.778 L 168.752 138.758 170.676 139.595 C 171.734 140.056,173.078 140.696,173.662 141.016 C 174.961 141.731,178.940 141.786,179.688 141.100 C 179.988 140.825,180.586 140.402,181.017 140.161 C 182.180 139.509,183.937 136.797,184.232 135.200 C 184.789 132.178,185.109 132.000,189.982 132.000 C 193.995 132.000,194.367 132.064,194.600 132.800 M186.800 153.800 C 186.250 154.114,185.389 154.378,184.887 154.386 C 184.386 154.394,183.871 154.670,183.745 155.000 C 183.618 155.330,183.288 155.600,183.011 155.600 C 180.616 155.600,177.200 161.827,177.200 166.194 C 177.200 178.768,193.687 183.847,200.593 173.400 C 202.609 170.350,203.784 163.456,202.431 162.619 C 202.228 162.494,201.949 161.879,201.812 161.254 C 201.012 157.611,194.475 153.184,189.940 153.214 C 188.763 153.222,187.350 153.486,186.800 153.800 M193.200 154.483 C 202.967 156.934,205.457 171.196,197.007 176.286 C 183.206 184.600,170.105 166.432,182.682 156.419 C 183.800 155.528,185.049 154.786,185.457 154.770 C 185.866 154.753,186.830 154.495,187.600 154.196 C 189.033 153.639,190.047 153.691,193.200 154.483 M235.000 177.506 C 234.780 177.668,234.240 178.505,233.800 179.368 C 232.559 181.800,231.102 182.701,229.491 182.034 C 226.638 180.853,225.727 180.973,223.996 182.756 C 222.158 184.651,222.188 184.505,223.200 186.600 C 224.392 189.069,223.436 192.000,221.438 192.000 C 219.858 192.000,218.800 193.613,218.800 196.022 L 218.800 198.387 220.772 199.386 C 223.758 200.899,224.720 202.766,223.462 204.611 C 221.423 207.602,225.390 212.295,228.176 210.187 C 230.268 208.605,232.540 209.632,234.159 212.893 C 235.637 215.871,241.200 215.238,241.200 212.092 C 241.200 210.068,245.105 208.798,246.976 210.213 C 248.204 211.142,248.913 210.922,250.757 209.043 C 252.617 207.148,252.655 206.791,251.281 204.099 C 250.378 202.329,251.189 200.958,253.942 199.600 L 255.969 198.600 255.984 195.866 L 256.000 193.131 254.026 192.297 C 251.093 191.058,250.327 189.463,251.519 187.076 C 252.675 184.762,252.660 184.669,250.847 182.800 C 249.107 181.007,248.597 180.910,245.933 181.865 C 243.678 182.673,242.318 182.059,241.378 179.809 C 240.388 177.439,236.836 176.157,235.000 177.506 M240.246 179.100 C 241.807 182.524,244.748 183.873,246.976 182.187 C 249.092 180.587,253.037 185.110,251.000 186.800 C 249.266 188.239,250.627 191.258,253.702 192.794 L 255.600 193.742 255.600 196.021 C 255.600 198.211,255.555 198.309,254.450 198.530 C 251.447 199.131,249.414 202.944,250.987 205.024 C 252.453 206.961,249.634 210.926,247.600 209.788 C 244.693 208.161,241.910 209.185,240.233 212.500 C 239.197 214.547,235.563 214.816,234.893 212.895 C 233.717 209.522,230.103 208.066,227.364 209.860 C 225.413 211.139,222.620 207.604,223.798 205.346 C 225.184 202.688,224.179 200.339,220.998 198.799 C 218.169 197.429,218.847 192.400,221.862 192.400 C 223.907 192.400,224.990 188.490,223.642 185.974 L 222.884 184.560 224.419 183.080 C 226.068 181.490,226.951 181.286,228.176 182.213 C 230.501 183.971,233.774 182.082,234.956 178.300 C 235.443 176.743,239.448 177.349,240.246 179.100 M233.521 190.405 C 229.716 193.541,229.441 197.433,232.787 200.820 C 236.968 205.052,244.400 201.829,244.400 195.785 C 244.400 190.364,237.631 187.017,233.521 190.405 M240.554 190.426 C 243.274 192.031,245.182 197.673,243.226 198.325 C 242.992 198.403,242.800 198.706,242.800 198.998 C 242.800 202.155,235.998 203.085,233.131 200.320 C 227.936 195.311,234.349 186.765,240.554 190.426 M107.090 250.100 C 106.326 251.255,105.184 253.145,104.551 254.301 C 103.918 255.457,103.130 256.897,102.799 257.501 C 102.116 258.750,97.303 267.082,96.041 269.200 C 95.582 269.970,94.982 271.050,94.708 271.600 C 94.434 272.150,93.181 274.357,91.922 276.504 C 88.288 282.704,87.930 283.700,87.917 287.655 C 87.898 293.039,90.070 296.603,94.844 299.022 L 96.773 300.000 207.460 300.000 L 318.147 300.000 319.963 299.121 C 324.644 296.855,326.940 293.060,326.932 287.600 C 326.925 283.145,326.425 281.918,321.306 273.785 C 321.034 273.353,320.543 272.460,320.214 271.800 C 319.885 271.140,319.445 270.330,319.235 270.000 C 319.025 269.670,317.930 267.780,316.800 265.800 C 315.670 263.820,314.581 261.930,314.379 261.600 C 314.177 261.270,313.740 260.460,313.407 259.800 C 313.074 259.140,312.454 258.060,312.029 257.400 C 311.604 256.740,310.771 255.300,310.177 254.200 C 309.584 253.100,308.474 251.255,307.710 250.100 L 306.322 248.000 207.400 248.000 L 108.478 248.000 107.090 250.100 M307.100 250.127 C 307.595 250.855,308.000 251.663,308.000 251.925 C 308.000 252.186,308.141 252.400,308.312 252.400 C 308.484 252.400,308.839 252.895,309.102 253.500 C 309.746 254.984,311.828 258.613,313.244 260.720 C 313.880 261.666,314.400 262.628,314.400 262.857 C 314.400 263.086,314.760 263.731,315.200 264.291 C 315.640 264.850,316.000 265.554,316.000 265.854 C 316.000 266.154,316.142 266.400,316.316 266.400 C 316.490 266.400,317.132 267.345,317.743 268.500 C 318.353 269.655,319.272 271.320,319.785 272.200 C 320.298 273.080,321.115 274.571,321.601 275.514 C 322.087 276.456,322.691 277.447,322.942 277.715 C 326.133 281.117,327.452 288.775,325.530 292.744 C 324.529 294.813,321.044 298.400,320.036 298.400 C 319.660 298.400,319.004 298.664,318.576 298.987 C 317.400 299.877,97.400 299.877,96.224 298.987 C 95.796 298.664,95.166 298.395,94.824 298.389 C 94.057 298.375,90.800 295.531,90.800 294.875 C 90.800 294.614,90.653 294.400,90.474 294.400 C 88.904 294.400,87.678 285.189,89.013 283.424 C 89.336 282.996,89.600 282.334,89.600 281.952 C 89.600 281.570,89.827 281.019,90.105 280.729 C 90.382 280.438,90.834 279.750,91.109 279.200 C 91.384 278.650,91.965 277.660,92.400 277.000 C 92.835 276.340,93.296 275.530,93.424 275.200 C 93.553 274.870,93.826 274.330,94.032 274.000 C 94.237 273.670,94.626 272.950,94.895 272.400 C 95.164 271.850,95.511 271.306,95.667 271.192 C 95.823 271.077,96.144 270.537,96.381 269.992 C 96.618 269.446,97.163 268.460,97.593 267.800 C 98.023 267.140,98.632 266.037,98.946 265.349 C 99.261 264.661,99.717 263.975,99.959 263.825 C 100.202 263.675,100.400 263.203,100.400 262.776 C 100.400 262.349,100.567 262.000,100.771 262.000 C 100.975 262.000,101.618 261.055,102.200 259.900 C 102.782 258.745,103.691 257.080,104.220 256.200 C 104.748 255.320,105.364 254.185,105.589 253.679 C 105.813 253.172,106.579 251.867,107.292 250.779 L 108.587 248.800 207.394 248.803 L 306.200 248.805 307.100 250.127 M188.500 267.865 C 188.225 267.976,187.999 268.367,187.998 268.733 C 187.996 269.100,187.720 269.928,187.383 270.574 C 187.046 271.219,186.612 272.389,186.417 273.174 C 186.223 273.958,185.603 275.860,185.040 277.400 C 183.856 280.639,183.732 282.212,184.633 282.557 C 185.627 282.939,229.736 282.829,230.344 282.443 C 231.280 281.850,230.560 277.887,228.945 274.738 C 228.645 274.154,228.400 273.379,228.400 273.016 C 228.400 272.653,228.067 271.601,227.659 270.678 C 227.251 269.755,226.807 268.685,226.672 268.300 C 226.432 267.619,190.134 267.206,188.500 267.865 M226.503 269.400 C 226.706 270.060,227.126 271.167,227.436 271.860 C 227.746 272.554,228.001 273.364,228.001 273.660 C 228.002 273.957,228.542 275.524,229.201 277.141 C 231.236 282.135,233.824 281.600,207.633 281.600 C 182.981 281.600,184.057 281.705,185.026 279.400 C 185.304 278.740,185.934 276.940,186.425 275.400 C 188.179 269.907,188.640 268.746,189.216 268.379 C 189.559 268.161,197.290 268.047,207.967 268.104 L 226.133 268.200 226.503 269.400 " stroke="none" fill="#a4b4dc" fill-rule="evenodd"></path><path id="path2" d="M118.400 105.067 C 118.070 105.180,117.233 105.526,116.540 105.836 C 115.846 106.146,115.101 106.400,114.882 106.400 C 114.664 106.400,114.382 106.670,114.255 107.000 C 114.129 107.330,113.760 107.600,113.436 107.600 C 112.658 107.600,109.322 111.961,108.967 113.440 C 108.815 114.078,108.490 114.853,108.245 115.161 C 107.544 116.046,107.618 238.978,108.320 239.680 C 109.172 240.532,304.568 240.644,305.867 239.793 L 306.800 239.182 306.787 177.691 C 306.773 111.641,306.793 112.331,304.831 111.677 C 304.594 111.598,304.400 111.285,304.400 110.981 C 304.400 110.244,302.055 107.600,301.401 107.600 C 301.118 107.600,300.782 107.330,300.655 107.000 C 300.529 106.670,300.149 106.400,299.811 106.400 C 299.473 106.400,298.525 106.040,297.704 105.600 C 296.271 104.832,120.625 104.310,118.400 105.067 M298.189 106.356 C 300.203 107.121,304.000 110.179,304.000 111.036 C 304.000 111.292,304.258 111.716,304.573 111.978 C 306.151 113.287,306.168 113.942,306.289 177.166 C 306.396 233.527,306.355 238.187,305.741 238.866 C 304.758 239.951,110.330 240.023,109.131 238.938 C 108.288 238.175,107.981 119.806,108.813 116.000 C 109.789 111.532,112.694 107.863,116.422 106.387 C 119.297 105.249,295.195 105.219,298.189 106.356 M126.668 123.066 C 126.145 123.588,126.356 221.396,126.880 221.920 C 127.839 222.879,287.473 222.585,287.988 221.623 C 288.270 221.095,288.371 205.192,288.302 171.923 L 288.200 123.000 207.568 122.899 C 163.220 122.843,126.815 122.918,126.668 123.066 M287.600 172.400 L 287.600 221.600 207.443 221.600 C 134.719 221.600,127.263 221.541,127.043 220.967 C 126.909 220.619,126.800 198.479,126.800 171.767 L 126.800 123.200 207.200 123.200 L 287.600 123.200 287.600 172.400 M184.618 131.418 C 183.912 132.124,183.617 132.829,183.654 133.718 C 183.701 134.809,183.736 134.851,183.890 134.000 C 184.310 131.670,185.339 131.200,190.024 131.200 C 194.641 131.200,195.170 131.463,196.060 134.200 C 196.280 134.875,196.326 134.833,196.360 133.931 C 196.383 133.318,195.958 132.336,195.364 131.631 L 194.329 130.400 189.983 130.400 C 185.859 130.400,185.584 130.452,184.618 131.418 M182.873 135.687 C 182.613 135.947,182.394 136.439,182.387 136.780 C 182.371 137.589,180.594 139.600,179.896 139.600 C 179.597 139.600,179.004 139.864,178.576 140.187 C 177.575 140.945,176.379 140.950,174.946 140.202 C 174.316 139.874,173.507 139.604,173.149 139.602 C 172.791 139.601,172.274 139.330,172.000 139.000 C 171.726 138.670,171.119 138.407,170.651 138.417 C 169.407 138.441,175.168 141.149,176.522 141.177 C 179.030 141.228,181.687 139.431,182.943 136.835 C 183.655 135.363,183.629 134.931,182.873 135.687 M196.400 135.371 C 196.400 139.798,202.360 142.167,207.445 139.761 C 208.727 139.155,209.546 138.582,209.265 138.488 C 208.984 138.395,208.435 138.606,208.045 138.959 C 207.656 139.312,207.019 139.600,206.630 139.600 C 206.241 139.600,205.404 139.907,204.769 140.282 C 202.745 141.477,198.378 139.446,197.771 137.027 C 197.543 136.120,196.400 134.739,196.400 135.371 M164.754 141.069 C 161.079 144.646,160.787 146.091,163.167 148.930 C 165.098 151.234,163.250 158.400,160.725 158.400 C 160.026 158.400,159.364 159.097,159.722 159.455 C 160.251 159.985,163.314 157.435,164.022 155.876 C 165.150 153.390,164.902 151.355,163.035 147.800 C 161.699 145.256,165.533 139.144,169.000 138.290 C 169.695 138.119,169.676 138.087,168.854 138.046 C 168.182 138.013,166.995 138.889,164.754 141.069 M210.800 138.285 C 211.355 138.382,213.173 139.816,214.888 141.509 C 218.189 144.768,218.351 145.247,216.920 147.535 C 216.299 148.528,216.352 148.937,217.041 148.478 C 217.271 148.325,217.734 147.351,218.070 146.313 L 218.682 144.426 215.390 141.213 C 212.724 138.611,211.879 138.010,210.949 138.054 C 209.870 138.106,209.861 138.120,210.800 138.285 M215.680 150.528 C 214.240 154.511,216.854 159.210,220.870 159.856 C 221.679 159.986,222.894 160.429,223.570 160.841 L 224.800 161.588 224.800 165.905 C 224.800 170.383,224.310 172.000,222.951 172.000 C 220.695 172.000,217.055 174.334,215.957 176.484 C 214.696 178.957,214.893 180.465,217.080 185.068 C 218.272 187.575,218.254 187.617,214.328 191.484 L 211.400 194.367 209.000 193.344 C 202.773 190.691,199.659 191.198,197.084 195.286 C 196.209 196.675,196.163 197.494,197.000 196.800 C 197.330 196.526,197.600 196.033,197.600 195.705 C 197.600 193.219,205.141 191.002,206.800 193.000 C 207.074 193.330,207.602 193.600,207.973 193.600 C 208.344 193.600,208.996 193.864,209.424 194.187 C 210.437 194.954,211.964 194.960,212.255 194.200 C 212.382 193.870,212.619 193.600,212.782 193.600 C 213.114 193.600,217.600 189.196,217.600 188.871 C 217.600 188.756,217.873 188.361,218.208 187.992 C 218.750 187.392,218.750 187.196,218.210 186.160 C 217.877 185.522,217.604 184.840,217.602 184.644 C 217.601 184.448,217.288 184.060,216.906 183.781 C 216.343 183.369,216.211 182.633,216.206 179.864 C 216.199 175.935,217.164 174.364,220.064 173.583 C 220.890 173.360,221.674 173.003,221.807 172.789 C 221.939 172.575,222.455 172.400,222.954 172.400 C 224.981 172.400,225.600 170.955,225.600 166.220 C 225.600 161.257,224.952 160.105,221.934 159.700 C 221.097 159.588,220.207 159.250,219.957 158.948 C 219.707 158.647,219.262 158.400,218.969 158.400 C 217.223 158.400,216.206 156.305,216.203 152.700 C 216.201 150.775,216.191 149.200,216.180 149.200 C 216.170 149.200,215.945 149.798,215.680 150.528 M187.600 154.196 C 186.830 154.495,185.866 154.753,185.457 154.770 C 182.385 154.895,178.075 160.971,177.708 165.694 C 177.277 171.243,182.976 178.410,187.800 178.386 C 188.356 178.383,188.174 178.185,187.200 177.735 C 182.705 175.659,180.400 174.027,180.400 172.921 C 180.400 172.656,180.159 172.296,179.865 172.120 C 179.325 171.797,178.498 169.320,178.115 166.875 C 177.889 165.435,178.970 161.390,179.854 160.369 C 180.154 160.021,180.409 159.571,180.419 159.369 C 180.430 159.166,181.427 158.193,182.634 157.206 C 187.187 153.484,193.554 153.685,197.776 157.686 C 198.423 158.299,199.098 158.800,199.276 158.800 C 199.454 158.800,199.600 159.048,199.600 159.351 C 199.600 159.654,199.841 160.102,200.135 160.346 C 201.768 161.701,201.785 170.685,200.157 172.035 C 199.851 172.290,199.600 172.752,199.600 173.062 C 199.600 173.371,199.337 173.726,199.015 173.850 C 198.694 173.973,198.327 174.399,198.201 174.797 C 198.075 175.195,197.528 175.632,196.986 175.768 C 196.444 175.904,196.000 176.192,196.000 176.408 C 196.000 176.623,195.685 176.806,195.300 176.814 C 194.370 176.832,191.210 178.369,192.067 178.386 C 193.297 178.411,197.269 176.350,198.622 174.985 C 204.116 169.441,203.194 160.486,196.675 156.069 C 193.980 154.243,189.735 153.367,187.600 154.196 M156.700 159.876 C 156.315 159.976,156.000 160.204,156.000 160.383 C 156.000 160.561,155.640 160.801,155.200 160.916 C 154.454 161.111,154.400 161.462,154.400 166.134 C 154.400 171.646,154.683 172.400,156.752 172.400 C 157.354 172.400,158.196 172.664,158.624 172.987 C 159.051 173.310,159.670 173.581,160.000 173.589 C 160.330 173.597,161.320 174.265,162.200 175.073 L 163.800 176.543 163.776 179.937 C 163.754 183.086,163.788 183.232,164.246 181.965 C 165.712 177.909,163.601 174.236,158.857 172.589 C 154.743 171.160,155.000 171.587,155.000 166.188 L 155.000 161.407 157.200 160.516 C 159.193 159.709,158.879 159.306,156.700 159.876 M233.814 178.293 C 233.256 179.114,232.800 179.992,232.800 180.244 C 232.800 181.252,230.672 181.653,228.402 181.072 C 223.971 179.938,220.623 183.829,222.961 187.396 C 224.010 188.997,222.863 191.600,221.108 191.600 C 219.351 191.600,218.400 193.155,218.400 196.029 C 218.400 197.553,218.552 198.800,218.739 198.800 C 218.925 198.800,219.493 199.160,220.000 199.600 C 220.507 200.040,221.181 200.400,221.497 200.400 C 222.975 200.400,224.280 203.653,223.000 204.145 C 222.620 204.290,222.417 204.857,222.446 205.687 C 222.477 206.555,222.561 206.729,222.694 206.200 C 222.805 205.760,223.145 205.045,223.448 204.611 C 224.728 202.782,223.766 200.903,220.772 199.386 L 218.800 198.387 218.800 196.022 C 218.800 193.613,219.858 192.000,221.438 192.000 C 223.436 192.000,224.392 189.069,223.200 186.600 C 222.188 184.505,222.158 184.651,223.996 182.756 C 225.727 180.973,226.638 180.853,229.491 182.034 C 231.102 182.701,232.559 181.800,233.800 179.368 C 235.543 175.952,239.872 176.204,241.378 179.809 C 242.318 182.059,243.678 182.673,245.933 181.865 C 248.844 180.822,250.628 181.586,252.325 184.600 C 252.665 185.203,252.779 185.246,252.788 184.773 C 252.802 184.040,250.561 181.475,249.400 180.895 C 248.840 180.615,247.944 180.665,246.415 181.061 C 243.525 181.810,242.129 181.295,241.763 179.346 C 241.190 176.291,235.671 175.560,233.814 178.293 M162.390 184.700 C 162.175 185.305,161.807 186.132,161.573 186.538 C 161.070 187.406,161.244 187.644,165.496 191.900 C 168.814 195.220,168.738 195.200,171.736 193.600 C 176.135 191.252,182.400 192.702,182.400 196.068 C 182.400 196.417,182.670 196.926,183.000 197.200 C 183.330 197.474,183.600 198.176,183.600 198.760 C 183.600 201.247,184.355 201.600,189.666 201.600 C 195.150 201.600,196.414 201.033,196.359 198.600 L 196.331 197.400 195.989 198.543 C 195.269 200.945,194.691 201.200,189.967 201.200 C 185.280 201.200,184.642 200.945,184.143 198.872 C 182.666 192.730,177.595 190.000,172.589 192.652 C 171.935 192.999,170.743 193.520,169.940 193.810 L 168.480 194.336 165.208 190.984 C 161.715 187.406,161.713 187.400,163.010 184.700 C 163.301 184.095,163.368 183.600,163.159 183.600 C 162.951 183.600,162.605 184.095,162.390 184.700 M251.423 187.239 C 250.347 189.473,251.182 191.096,254.026 192.297 L 256.000 193.131 255.984 195.866 L 255.969 198.600 253.942 199.600 C 251.318 200.895,250.422 202.296,251.210 203.873 C 251.519 204.493,251.896 205.360,252.046 205.800 C 252.280 206.483,252.326 206.443,252.360 205.529 C 252.382 204.939,252.128 204.185,251.796 203.853 C 251.035 203.093,252.178 200.426,253.271 200.410 C 253.641 200.404,254.181 200.165,254.471 199.878 C 254.762 199.590,255.315 199.236,255.700 199.090 C 256.280 198.871,256.400 198.316,256.400 195.862 C 256.400 192.619,256.145 192.169,254.073 191.755 C 252.222 191.384,250.955 189.146,251.836 187.801 C 252.183 187.272,252.406 186.566,252.333 186.232 C 252.255 185.875,251.880 186.289,251.423 187.239 M233.883 190.836 C 229.629 194.342,230.515 199.812,235.671 201.875 C 238.058 202.830,242.800 200.916,242.800 198.998 C 242.800 198.706,242.992 198.403,243.226 198.325 C 244.240 197.987,244.123 194.952,243.023 193.076 C 240.906 189.463,236.777 188.451,233.883 190.836 M239.705 190.500 C 241.107 191.283,242.400 192.493,242.400 193.021 C 242.400 193.285,242.670 193.726,243.000 194.000 C 243.330 194.274,243.600 195.084,243.600 195.800 C 243.600 196.516,243.330 197.326,243.000 197.600 C 242.670 197.874,242.400 198.346,242.400 198.649 C 242.400 201.185,234.634 202.517,233.721 200.138 C 233.607 199.842,233.275 199.600,232.982 199.600 C 232.303 199.600,231.816 196.512,232.157 194.376 C 232.685 191.074,236.879 188.920,239.705 190.500 M250.843 208.841 C 248.992 210.906,248.244 211.172,246.976 210.213 C 245.105 208.798,241.200 210.068,241.200 212.092 C 241.200 215.238,235.637 215.871,234.159 212.893 C 232.540 209.632,230.268 208.605,228.176 210.187 C 226.876 211.171,225.912 210.884,223.914 208.915 C 222.861 207.878,222.000 207.167,222.000 207.334 C 222.000 209.396,226.525 211.652,228.546 210.598 C 230.730 209.458,232.230 209.999,233.150 212.258 C 234.736 216.151,241.600 216.350,241.600 212.503 C 241.600 210.473,244.789 209.261,246.576 210.613 C 248.105 211.769,252.800 209.212,252.800 207.223 C 252.800 206.649,252.831 206.624,250.843 208.841 M107.054 249.122 C 106.474 249.958,106.000 250.858,106.000 251.122 C 106.000 251.385,105.832 251.600,105.627 251.600 C 105.422 251.600,105.128 251.997,104.974 252.481 C 104.820 252.966,104.448 253.609,104.147 253.910 C 103.846 254.211,103.600 254.785,103.600 255.186 C 103.600 255.587,103.330 256.018,103.000 256.145 C 102.670 256.271,102.400 256.675,102.400 257.041 C 102.400 257.875,103.371 256.629,104.770 254.000 C 105.297 253.010,106.347 251.255,107.103 250.100 L 108.478 248.000 207.400 248.000 L 306.322 248.000 307.710 250.100 C 308.474 251.255,309.584 253.100,310.177 254.200 C 310.771 255.300,311.604 256.740,312.029 257.400 C 312.454 258.060,313.074 259.140,313.407 259.800 C 313.740 260.460,314.177 261.270,314.379 261.600 C 314.581 261.930,315.670 263.820,316.800 265.800 C 317.930 267.780,319.025 269.670,319.235 270.000 C 319.445 270.330,319.885 271.140,320.214 271.800 C 320.543 272.460,321.034 273.353,321.306 273.785 C 326.425 281.918,326.925 283.145,326.932 287.600 C 326.940 293.060,324.644 296.855,319.963 299.121 L 318.147 300.000 207.460 300.000 L 96.773 300.000 94.844 299.022 C 91.028 297.089,88.513 293.789,87.967 290.000 L 87.707 288.200 87.653 290.153 C 87.605 291.914,88.573 294.399,89.619 295.200 C 89.763 295.310,90.085 295.790,90.336 296.266 C 90.587 296.742,91.917 297.867,93.293 298.766 L 95.793 300.400 207.264 300.400 L 318.734 300.400 320.689 299.418 C 322.699 298.409,326.000 295.170,326.000 294.208 C 326.000 293.910,326.184 293.605,326.409 293.530 C 326.902 293.366,327.689 289.621,327.697 287.400 C 327.706 284.912,326.952 282.259,325.619 280.093 C 324.949 279.003,324.400 277.915,324.400 277.676 C 324.400 277.436,324.173 277.096,323.896 276.920 C 323.619 276.744,322.884 275.610,322.264 274.400 C 321.644 273.190,320.794 271.660,320.374 271.000 C 319.955 270.340,319.418 269.354,319.181 268.808 C 318.944 268.263,318.623 267.723,318.467 267.608 C 318.311 267.494,317.962 266.950,317.691 266.400 C 317.420 265.850,316.566 264.320,315.792 263.000 C 315.019 261.680,314.168 260.150,313.901 259.600 C 313.635 259.050,313.188 258.456,312.908 258.280 C 312.629 258.104,312.400 257.620,312.400 257.204 C 312.400 256.788,312.217 256.334,311.994 256.196 C 311.771 256.058,311.321 255.373,310.995 254.673 C 310.669 253.973,310.044 252.860,309.607 252.200 C 309.170 251.540,308.622 250.565,308.391 250.034 C 307.225 247.359,317.230 247.600,207.193 247.600 L 108.109 247.600 107.054 249.122 M101.441 258.863 C 101.088 259.366,100.800 260.008,100.800 260.289 C 100.800 260.570,100.638 260.800,100.439 260.800 C 100.241 260.800,99.880 261.295,99.638 261.900 C 99.396 262.505,98.838 263.540,98.398 264.200 C 97.958 264.860,97.331 265.973,97.005 266.673 C 96.679 267.373,96.229 268.058,96.006 268.196 C 95.783 268.334,95.600 268.788,95.600 269.204 C 95.600 269.620,95.371 270.104,95.092 270.280 C 94.812 270.456,94.365 271.050,94.099 271.600 C 93.832 272.150,92.982 273.680,92.210 275.000 C 91.437 276.320,90.613 277.846,90.378 278.392 C 90.142 278.937,89.816 279.477,89.653 279.592 C 88.832 280.168,87.600 283.406,87.600 284.989 C 87.600 285.959,87.417 286.866,87.193 287.004 C 86.970 287.142,86.911 287.456,87.062 287.701 C 87.427 288.292,87.935 286.979,87.972 285.351 C 88.008 283.748,89.070 281.371,91.922 276.504 C 93.181 274.357,94.432 272.150,94.702 271.600 C 94.973 271.050,95.372 270.330,95.590 270.000 C 98.475 265.627,103.793 255.505,101.441 258.863 M189.114 268.496 C 188.756 268.773,188.282 269.630,188.060 270.400 C 187.839 271.170,187.198 273.060,186.637 274.600 C 186.076 276.140,185.619 277.670,185.622 278.000 C 185.629 278.869,187.168 275.553,187.199 274.600 C 187.214 274.160,187.490 273.451,187.813 273.024 C 188.136 272.596,188.400 271.825,188.400 271.309 C 188.400 270.794,188.691 269.928,189.046 269.386 L 189.692 268.400 207.841 268.400 L 225.991 268.400 226.238 269.945 C 226.515 271.682,227.026 272.707,227.418 272.315 C 227.562 272.171,227.527 271.816,227.340 271.527 C 227.153 271.237,226.814 270.370,226.587 269.600 L 226.175 268.200 207.969 268.096 C 193.809 268.015,189.619 268.104,189.114 268.496 M227.641 273.824 C 227.618 274.496,227.864 275.396,228.187 275.824 C 228.510 276.251,228.781 276.960,228.790 277.400 C 228.798 277.840,229.079 278.726,229.414 279.368 C 230.379 281.218,230.455 281.212,207.580 281.103 L 185.808 281.000 185.604 279.822 L 185.400 278.644 184.961 279.622 C 184.042 281.667,183.277 281.600,207.633 281.600 C 233.668 281.600,231.173 282.062,229.358 277.576 C 228.785 276.159,228.174 274.460,227.999 273.800 L 227.682 272.600 227.641 273.824 " stroke="none" fill="#8299ce" fill-rule="evenodd"></path><path id="path3" d="M176.800 6.600 C 176.800 7.091,176.057 7.208,172.700 7.246 C 167.302 7.307,167.391 7.292,167.456 8.100 C 167.505 8.723,167.079 8.800,163.598 8.800 C 160.489 8.800,159.638 8.923,159.455 9.400 C 159.283 9.849,158.566 10.000,156.613 10.000 C 154.557 10.000,154.000 10.128,154.000 10.600 C 154.000 11.143,152.193 11.415,149.300 11.307 C 149.025 11.297,148.800 11.629,148.800 12.044 C 148.800 12.706,148.483 12.800,146.243 12.800 C 144.384 12.800,143.625 12.958,143.464 13.377 C 143.324 13.742,142.537 14.000,141.321 14.077 C 140.047 14.159,139.434 14.368,139.500 14.700 C 139.570 15.048,138.979 15.200,137.563 15.200 C 135.862 15.200,135.491 15.332,135.316 16.000 C 135.148 16.643,134.770 16.800,133.396 16.800 C 132.245 16.800,131.610 16.996,131.455 17.400 C 131.321 17.751,130.721 18.000,130.013 18.000 C 129.201 18.000,128.800 18.199,128.800 18.600 C 128.800 19.016,128.381 19.200,127.433 19.200 C 125.671 19.200,124.800 19.545,124.800 20.243 C 124.800 20.613,124.330 20.800,123.400 20.800 C 122.422 20.800,122.000 20.981,122.000 21.400 C 122.000 21.819,121.578 22.000,120.600 22.000 C 119.622 22.000,119.200 22.181,119.200 22.600 C 119.200 22.979,118.818 23.200,118.163 23.200 C 117.462 23.200,117.057 23.459,116.916 24.000 C 116.743 24.662,116.370 24.800,114.753 24.800 C 113.284 24.800,112.800 24.949,112.800 25.400 C 112.800 25.733,112.444 26.000,112.000 26.000 C 111.556 26.000,111.200 26.267,111.200 26.600 C 111.200 26.979,110.818 27.200,110.163 27.200 C 109.462 27.200,109.057 27.459,108.916 28.000 C 108.759 28.601,108.370 28.800,107.353 28.800 C 106.417 28.800,106.000 28.985,106.000 29.400 C 106.000 29.800,105.600 30.000,104.800 30.000 C 104.000 30.000,103.600 30.200,103.600 30.600 C 103.600 30.930,103.255 31.200,102.833 31.200 C 101.641 31.200,100.800 31.631,100.800 32.243 C 100.800 32.549,100.524 32.800,100.187 32.800 C 99.851 32.800,99.471 33.070,99.345 33.400 C 99.213 33.742,98.617 34.000,97.957 34.000 C 97.195 34.000,96.800 34.205,96.800 34.600 C 96.800 34.930,96.455 35.200,96.033 35.200 C 94.841 35.200,94.000 35.631,94.000 36.243 C 94.000 36.549,93.730 36.800,93.400 36.800 C 93.070 36.800,92.800 37.070,92.800 37.400 C 92.800 37.801,92.399 38.000,91.587 38.000 C 90.879 38.000,90.279 38.249,90.145 38.600 C 90.018 38.930,89.664 39.200,89.357 39.200 C 89.051 39.200,88.800 39.560,88.800 40.000 C 88.800 40.533,88.533 40.800,88.000 40.800 C 87.556 40.800,87.200 41.067,87.200 41.400 C 87.200 41.800,86.800 42.000,86.000 42.000 C 85.200 42.000,84.800 42.200,84.800 42.600 C 84.800 42.930,84.513 43.200,84.163 43.200 C 83.812 43.200,83.431 43.560,83.316 44.000 C 83.168 44.567,82.770 44.800,81.953 44.800 C 81.238 44.800,80.800 45.010,80.800 45.353 C 80.800 45.658,80.422 46.006,79.960 46.126 C 79.497 46.247,79.238 46.538,79.383 46.773 C 79.538 47.023,79.305 47.200,78.824 47.200 C 78.267 47.200,78.000 47.459,78.000 48.000 C 78.000 48.444,77.733 48.800,77.400 48.800 C 77.070 48.800,76.800 49.070,76.800 49.400 C 76.800 49.730,76.539 50.000,76.220 50.000 C 75.901 50.000,75.482 50.281,75.290 50.625 C 74.989 51.163,74.340 51.443,73.100 51.569 C 72.935 51.586,72.800 51.870,72.800 52.200 C 72.800 52.530,72.446 52.800,72.013 52.800 C 71.477 52.800,71.299 52.992,71.455 53.400 C 71.615 53.816,71.428 54.000,70.843 54.000 C 70.252 54.000,70.000 54.252,70.000 54.843 C 70.000 55.428,69.816 55.615,69.400 55.455 C 68.992 55.299,68.800 55.477,68.800 56.013 C 68.800 56.453,68.530 56.800,68.187 56.800 C 67.851 56.800,67.471 57.070,67.345 57.400 C 67.218 57.730,66.864 58.000,66.557 58.000 C 66.251 58.000,66.000 58.251,66.000 58.557 C 66.000 58.864,65.730 59.218,65.400 59.345 C 65.070 59.471,64.800 59.851,64.800 60.187 C 64.800 60.524,64.524 60.800,64.187 60.800 C 63.851 60.800,63.471 61.070,63.345 61.400 C 63.218 61.730,62.864 62.000,62.557 62.000 C 62.251 62.000,62.000 62.251,62.000 62.557 C 62.000 62.864,61.730 63.218,61.400 63.345 C 61.070 63.471,60.800 63.851,60.800 64.187 C 60.800 64.524,60.524 64.800,60.187 64.800 C 59.851 64.800,59.471 65.070,59.345 65.400 C 59.218 65.730,58.864 66.000,58.557 66.000 C 58.251 66.000,58.000 66.251,58.000 66.557 C 58.000 66.864,57.730 67.218,57.400 67.345 C 57.070 67.471,56.800 67.851,56.800 68.187 C 56.800 68.530,56.453 68.800,56.013 68.800 C 55.477 68.800,55.299 68.992,55.455 69.400 C 55.615 69.816,55.428 70.000,54.843 70.000 C 54.353 70.000,54.000 70.256,54.000 70.613 C 54.000 70.949,53.730 71.329,53.400 71.455 C 53.070 71.582,52.800 71.936,52.800 72.243 C 52.800 72.549,52.526 72.800,52.190 72.800 C 51.832 72.800,51.481 73.296,51.340 74.000 C 51.208 74.660,50.853 75.200,50.550 75.200 C 50.248 75.200,50.000 75.560,50.000 76.000 C 50.000 76.444,49.733 76.800,49.400 76.800 C 49.070 76.800,48.800 77.070,48.800 77.400 C 48.800 77.730,48.596 78.000,48.346 78.000 C 47.555 78.000,46.000 80.002,46.000 81.021 C 46.000 81.588,45.767 82.000,45.447 82.000 C 45.142 82.000,44.798 82.365,44.681 82.811 C 44.564 83.258,44.228 83.573,43.934 83.511 C 43.641 83.450,43.450 83.641,43.511 83.934 C 43.573 84.228,43.258 84.564,42.811 84.681 C 42.242 84.830,42.000 85.224,42.000 86.004 C 42.000 86.622,41.734 87.216,41.400 87.345 C 41.070 87.471,40.800 87.830,40.800 88.141 C 40.800 88.452,40.435 88.802,39.989 88.919 C 39.542 89.036,39.204 89.282,39.236 89.466 C 39.408 90.444,39.131 91.200,38.600 91.200 C 38.267 91.200,38.000 91.556,38.000 92.000 C 38.000 92.444,37.733 92.800,37.400 92.800 C 37.005 92.800,36.800 93.195,36.800 93.953 C 36.800 94.770,36.567 95.168,36.000 95.316 C 35.560 95.431,35.200 95.812,35.200 96.163 C 35.200 96.513,34.930 96.800,34.600 96.800 C 34.200 96.800,34.000 97.200,34.000 98.000 C 34.000 98.800,33.800 99.200,33.400 99.200 C 32.981 99.200,32.800 99.622,32.800 100.600 C 32.800 101.733,32.648 102.000,32.000 102.000 C 31.548 102.000,31.200 102.267,31.200 102.613 C 31.200 102.949,30.930 103.329,30.600 103.455 C 30.258 103.587,30.000 104.183,30.000 104.843 C 30.000 105.605,29.795 106.000,29.400 106.000 C 28.985 106.000,28.800 106.417,28.800 107.353 C 28.800 108.377,28.602 108.758,27.989 108.919 C 27.542 109.036,27.204 109.282,27.236 109.466 C 27.430 110.568,27.122 111.600,26.600 111.600 C 26.200 111.600,26.000 112.000,26.000 112.800 C 26.000 113.600,25.800 114.000,25.400 114.000 C 24.985 114.000,24.800 114.417,24.800 115.353 C 24.800 116.313,24.594 116.761,24.090 116.892 C 23.691 116.997,23.348 117.496,23.308 118.031 C 23.268 118.556,22.958 119.188,22.618 119.436 C 22.238 119.715,22.000 120.508,22.000 121.501 C 22.000 122.566,21.796 123.193,21.400 123.345 C 21.057 123.476,20.800 124.073,20.800 124.741 C 20.800 125.576,20.570 125.967,19.989 126.119 C 19.542 126.236,19.204 126.482,19.236 126.666 C 19.489 128.107,19.128 130.000,18.600 130.000 C 18.181 130.000,18.000 130.422,18.000 131.400 C 18.000 132.378,17.819 132.800,17.400 132.800 C 16.948 132.800,16.800 133.286,16.800 134.771 C 16.800 136.321,16.652 136.770,16.108 136.875 C 15.727 136.948,15.398 137.366,15.376 137.804 C 15.244 140.486,15.162 140.800,14.600 140.800 C 14.128 140.800,14.000 141.356,14.000 143.400 C 14.000 145.444,13.872 146.000,13.400 146.000 C 12.947 146.000,12.800 146.489,12.800 148.000 C 12.800 149.443,12.645 150.000,12.243 150.000 C 11.436 150.000,11.200 150.912,11.200 154.033 C 11.200 156.226,11.076 156.800,10.600 156.800 C 10.117 156.800,10.000 157.422,10.000 160.000 C 10.000 162.544,9.880 163.200,9.414 163.200 C 8.945 163.200,8.805 164.018,8.714 167.300 C 8.621 170.627,8.487 171.400,8.000 171.400 C 7.500 171.400,7.379 172.367,7.274 177.199 C 7.176 181.723,7.022 183.068,6.574 183.318 C 5.690 183.813,5.716 215.200,6.600 215.200 C 7.107 215.200,7.200 216.133,7.200 221.200 C 7.200 226.933,7.236 227.200,8.000 227.200 C 8.747 227.200,8.800 227.467,8.800 231.200 C 8.800 234.489,8.907 235.200,9.400 235.200 C 9.886 235.200,10.000 235.844,10.000 238.600 C 10.000 241.356,10.114 242.000,10.600 242.000 C 11.080 242.000,11.200 242.600,11.200 244.997 C 11.200 247.560,11.316 248.065,12.000 248.493 C 12.618 248.879,12.800 249.426,12.800 250.896 C 12.800 252.322,12.951 252.800,13.400 252.800 C 13.866 252.800,14.000 253.331,14.000 255.180 C 14.000 256.840,14.175 257.658,14.578 257.884 C 14.915 258.072,15.199 258.939,15.260 259.962 C 15.336 261.260,15.551 261.767,16.082 261.905 C 16.649 262.054,16.800 262.504,16.800 264.047 C 16.800 265.516,16.949 266.000,17.400 266.000 C 17.819 266.000,18.000 266.422,18.000 267.400 C 18.000 268.378,18.181 268.800,18.600 268.800 C 19.046 268.800,19.200 269.271,19.200 270.637 C 19.200 272.138,19.346 272.513,20.000 272.684 C 20.567 272.832,20.800 273.230,20.800 274.047 C 20.800 274.805,21.005 275.200,21.400 275.200 C 21.853 275.200,22.000 275.689,22.000 277.200 C 22.000 278.711,22.147 279.200,22.600 279.200 C 23.122 279.200,23.430 280.232,23.236 281.334 C 23.204 281.518,23.542 281.764,23.989 281.881 C 24.570 282.033,24.800 282.424,24.800 283.259 C 24.800 283.927,25.057 284.524,25.400 284.655 C 25.742 284.787,26.000 285.383,26.000 286.043 C 26.000 286.805,26.205 287.200,26.600 287.200 C 27.122 287.200,27.430 288.232,27.236 289.334 C 27.204 289.518,27.542 289.764,27.989 289.881 C 28.570 290.033,28.800 290.424,28.800 291.259 C 28.800 291.927,29.057 292.524,29.400 292.655 C 29.742 292.787,30.000 293.383,30.000 294.043 C 30.000 294.805,30.205 295.200,30.600 295.200 C 30.930 295.200,31.200 295.487,31.200 295.837 C 31.200 296.188,31.560 296.569,32.000 296.684 C 32.567 296.832,32.800 297.230,32.800 298.047 C 32.800 298.805,33.005 299.200,33.400 299.200 C 33.786 299.200,34.002 299.592,34.007 300.300 C 34.014 301.391,35.479 303.200,36.356 303.200 C 36.600 303.200,36.800 303.830,36.800 304.600 C 36.800 305.578,36.981 306.000,37.400 306.000 C 37.730 306.000,38.000 306.270,38.000 306.600 C 38.000 306.930,38.270 307.200,38.600 307.200 C 39.122 307.200,39.430 308.232,39.236 309.334 C 39.204 309.518,39.542 309.764,39.989 309.881 C 40.435 309.998,40.800 310.342,40.800 310.647 C 40.800 310.951,41.070 311.200,41.400 311.200 C 41.801 311.200,42.000 311.601,42.000 312.413 C 42.000 313.121,42.249 313.721,42.600 313.855 C 42.930 313.982,43.200 314.336,43.200 314.643 C 43.200 314.949,43.560 315.200,44.000 315.200 C 44.533 315.200,44.800 315.467,44.800 316.000 C 44.800 316.444,45.067 316.800,45.400 316.800 C 45.800 316.800,46.000 317.200,46.000 318.000 C 46.000 318.927,46.179 319.200,46.787 319.200 C 47.336 319.200,47.502 319.389,47.335 319.824 C 47.176 320.241,47.379 320.522,47.948 320.671 C 48.417 320.793,48.800 321.142,48.800 321.447 C 48.800 321.751,49.070 322.000,49.400 322.000 C 49.730 322.000,50.000 322.270,50.000 322.600 C 50.000 322.930,50.270 323.200,50.600 323.200 C 50.930 323.200,51.223 323.470,51.250 323.800 C 51.278 324.130,51.345 324.580,51.400 324.800 C 51.455 325.020,51.523 325.380,51.550 325.600 C 51.578 325.820,51.870 326.000,52.200 326.000 C 52.530 326.000,52.800 326.270,52.800 326.600 C 52.800 326.930,53.070 327.200,53.400 327.200 C 53.730 327.200,54.003 327.425,54.007 327.700 C 54.015 328.310,55.742 330.000,56.356 330.000 C 56.600 330.000,56.800 330.270,56.800 330.600 C 56.800 330.930,57.070 331.200,57.400 331.200 C 57.730 331.200,58.000 331.539,58.000 331.953 C 58.000 332.382,58.362 332.801,58.840 332.926 C 59.303 333.047,59.562 333.338,59.417 333.573 C 59.262 333.823,59.495 334.000,59.976 334.000 C 60.442 334.000,60.800 334.261,60.800 334.600 C 60.800 334.930,61.070 335.200,61.400 335.200 C 61.730 335.200,62.000 335.539,62.000 335.953 C 62.000 336.382,62.362 336.801,62.840 336.926 C 63.303 337.047,63.562 337.338,63.417 337.573 C 63.262 337.823,63.495 338.000,63.976 338.000 C 64.442 338.000,64.800 338.261,64.800 338.600 C 64.800 338.930,65.070 339.200,65.400 339.200 C 65.730 339.200,66.000 339.539,66.000 339.953 C 66.000 340.382,66.362 340.801,66.840 340.926 C 67.303 341.047,67.562 341.338,67.417 341.573 C 67.262 341.823,67.495 342.000,67.976 342.000 C 68.442 342.000,68.800 342.261,68.800 342.600 C 68.800 342.930,69.070 343.200,69.400 343.200 C 69.730 343.200,70.003 343.425,70.007 343.700 C 70.015 344.310,71.742 346.000,72.356 346.000 C 72.600 346.000,72.800 346.270,72.800 346.600 C 72.800 347.000,73.200 347.200,74.000 347.200 C 74.831 347.200,75.200 347.396,75.200 347.837 C 75.200 348.188,75.560 348.569,76.000 348.684 C 76.440 348.799,76.800 349.142,76.800 349.447 C 76.800 349.751,77.070 350.000,77.400 350.000 C 77.730 350.000,78.000 350.270,78.000 350.600 C 78.000 350.930,78.270 351.200,78.600 351.200 C 78.930 351.200,79.200 351.487,79.200 351.837 C 79.200 352.188,79.560 352.569,80.000 352.684 C 80.440 352.799,80.800 353.142,80.800 353.447 C 80.800 353.790,81.239 354.000,81.957 354.000 C 82.617 354.000,83.213 354.258,83.345 354.600 C 83.471 354.930,83.851 355.200,84.187 355.200 C 84.533 355.200,84.800 355.548,84.800 356.000 C 84.800 356.622,85.067 356.800,86.000 356.800 C 86.800 356.800,87.200 357.000,87.200 357.400 C 87.200 357.733,87.556 358.000,88.000 358.000 C 88.444 358.000,88.800 358.267,88.800 358.600 C 88.800 358.930,89.070 359.200,89.400 359.200 C 89.730 359.200,90.000 359.451,90.000 359.757 C 90.000 360.369,90.841 360.800,92.033 360.800 C 92.455 360.800,92.800 361.070,92.800 361.400 C 92.800 361.730,93.070 362.000,93.400 362.000 C 93.730 362.000,94.000 362.270,94.000 362.600 C 94.000 363.019,94.422 363.200,95.400 363.200 C 96.533 363.200,96.800 363.352,96.800 364.000 C 96.800 364.622,97.067 364.800,98.000 364.800 C 98.800 364.800,99.200 365.000,99.200 365.400 C 99.200 365.733,99.556 366.000,100.000 366.000 C 100.440 366.000,100.800 366.259,100.800 366.575 C 100.800 366.931,101.295 367.197,102.100 367.275 C 102.933 367.355,103.400 367.615,103.400 368.000 C 103.400 368.385,103.867 368.645,104.700 368.725 C 105.505 368.803,106.000 369.069,106.000 369.425 C 106.000 369.815,106.450 370.000,107.400 370.000 C 108.378 370.000,108.800 370.181,108.800 370.600 C 108.800 371.000,109.200 371.200,110.000 371.200 C 110.831 371.200,111.200 371.396,111.200 371.837 C 111.200 372.188,111.560 372.569,112.000 372.684 C 112.440 372.799,112.800 373.142,112.800 373.447 C 112.800 373.844,113.364 374.000,114.800 374.000 C 116.311 374.000,116.800 374.147,116.800 374.600 C 116.800 374.997,117.197 375.200,117.973 375.200 C 118.795 375.200,119.222 375.440,119.400 376.000 C 119.578 376.560,120.005 376.800,120.827 376.800 C 121.603 376.800,122.000 377.003,122.000 377.400 C 122.000 377.819,122.422 378.000,123.400 378.000 C 124.378 378.000,124.800 378.181,124.800 378.600 C 124.800 379.053,125.289 379.200,126.800 379.200 C 128.533 379.200,128.800 379.307,128.800 380.000 C 128.800 380.624,129.067 380.800,130.013 380.800 C 130.721 380.800,131.321 381.049,131.455 381.400 C 131.617 381.820,132.272 382.000,133.643 382.000 C 134.995 382.000,135.569 382.154,135.500 382.500 C 135.434 382.830,136.033 383.041,137.259 383.120 C 138.706 383.214,139.162 383.413,139.321 384.020 C 139.486 384.651,139.878 384.800,141.375 384.800 C 142.651 384.800,143.297 384.986,143.455 385.400 C 143.627 385.847,144.339 386.000,146.243 386.000 C 148.249 386.000,148.800 386.129,148.800 386.600 C 148.800 387.071,149.350 387.200,151.353 387.200 C 153.570 387.200,153.934 387.305,154.116 388.000 C 154.296 388.690,154.662 388.800,156.775 388.800 C 158.584 388.800,159.285 388.957,159.455 389.400 C 159.639 389.878,160.499 390.000,163.686 390.000 C 167.077 390.000,167.651 390.091,167.455 390.600 C 167.259 391.113,167.916 391.200,171.966 391.200 C 176.370 391.200,176.722 391.257,176.916 392.000 C 177.245 393.260,222.755 393.260,223.084 392.000 C 223.278 391.257,223.630 391.200,228.047 391.200 C 232.005 391.200,232.800 391.100,232.800 390.600 C 232.800 390.109,233.484 390.000,236.557 390.000 C 239.528 390.000,240.363 389.874,240.545 389.400 C 240.715 388.957,241.416 388.800,243.225 388.800 C 245.338 388.800,245.704 388.690,245.884 388.000 C 246.066 387.305,246.430 387.200,248.647 387.200 C 250.650 387.200,251.200 387.071,251.200 386.600 C 251.200 386.129,251.751 386.000,253.757 386.000 C 255.661 386.000,256.373 385.847,256.545 385.400 C 256.703 384.986,257.349 384.800,258.625 384.800 C 260.138 384.800,260.513 384.655,260.684 384.000 C 260.853 383.352,261.230 383.200,262.659 383.200 C 263.860 383.200,264.499 383.008,264.655 382.600 C 264.810 382.196,265.445 382.000,266.600 382.000 C 267.755 382.000,268.390 381.804,268.545 381.400 C 268.679 381.049,269.279 380.800,269.987 380.800 C 270.933 380.800,271.200 380.624,271.200 380.000 C 271.200 379.307,271.467 379.200,273.200 379.200 C 274.711 379.200,275.200 379.053,275.200 378.600 C 275.200 378.181,275.622 378.000,276.600 378.000 C 277.578 378.000,278.000 377.819,278.000 377.400 C 278.000 376.996,278.404 376.800,279.237 376.800 C 280.138 376.800,280.532 376.583,280.684 376.000 C 280.832 375.433,281.230 375.200,282.047 375.200 C 282.805 375.200,283.200 374.995,283.200 374.600 C 283.200 374.147,283.689 374.000,285.200 374.000 C 286.636 374.000,287.200 373.844,287.200 373.447 C 287.200 373.142,287.560 372.799,288.000 372.684 C 288.440 372.569,288.800 372.188,288.800 371.837 C 288.800 371.396,289.169 371.200,290.000 371.200 C 290.800 371.200,291.200 371.000,291.200 370.600 C 291.200 370.181,291.622 370.000,292.600 370.000 C 293.578 370.000,294.000 369.819,294.000 369.400 C 294.000 368.996,294.404 368.800,295.237 368.800 C 296.138 368.800,296.532 368.583,296.684 368.000 C 296.832 367.433,297.230 367.200,298.047 367.200 C 298.805 367.200,299.200 366.995,299.200 366.600 C 299.200 366.267,299.556 366.000,300.000 366.000 C 300.444 366.000,300.800 365.733,300.800 365.400 C 300.800 365.000,301.200 364.800,302.000 364.800 C 302.933 364.800,303.200 364.622,303.200 364.000 C 303.200 363.352,303.467 363.200,304.600 363.200 C 305.578 363.200,306.000 363.019,306.000 362.600 C 306.000 362.270,306.270 362.000,306.600 362.000 C 306.930 362.000,307.200 361.730,307.200 361.400 C 307.200 361.070,307.545 360.800,307.967 360.800 C 309.159 360.800,310.000 360.369,310.000 359.757 C 310.000 359.451,310.270 359.200,310.600 359.200 C 310.930 359.200,311.200 358.930,311.200 358.600 C 311.200 358.267,311.556 358.000,312.000 358.000 C 312.444 358.000,312.800 357.733,312.800 357.400 C 312.800 357.000,313.200 356.800,314.000 356.800 C 314.933 356.800,315.200 356.622,315.200 356.000 C 315.200 355.467,315.467 355.200,316.000 355.200 C 316.444 355.200,316.800 354.933,316.800 354.600 C 316.800 354.200,317.200 354.000,318.000 354.000 C 318.755 354.000,319.200 353.795,319.200 353.447 C 319.200 353.142,319.560 352.799,320.000 352.684 C 320.440 352.569,320.800 352.188,320.800 351.837 C 320.800 351.487,321.070 351.200,321.400 351.200 C 321.730 351.200,322.000 350.930,322.000 350.600 C 322.000 350.270,322.270 350.000,322.600 350.000 C 322.930 350.000,323.200 349.751,323.200 349.447 C 323.200 349.142,323.560 348.799,324.000 348.684 C 324.440 348.569,324.800 348.188,324.800 347.837 C 324.800 347.396,325.169 347.200,326.000 347.200 C 326.800 347.200,327.200 347.000,327.200 346.600 C 327.200 346.270,327.400 346.000,327.644 346.000 C 328.258 346.000,329.985 344.310,329.993 343.700 C 329.997 343.425,330.270 343.200,330.600 343.200 C 330.930 343.200,331.200 342.930,331.200 342.600 C 331.200 342.267,331.556 342.000,332.000 342.000 C 332.444 342.000,332.800 341.733,332.800 341.400 C 332.800 341.070,333.070 340.800,333.400 340.800 C 333.733 340.800,334.000 340.444,334.000 340.000 C 334.000 339.556,334.267 339.200,334.600 339.200 C 334.930 339.200,335.200 338.930,335.200 338.600 C 335.200 338.267,335.556 338.000,336.000 338.000 C 336.444 338.000,336.800 337.733,336.800 337.400 C 336.800 337.070,337.070 336.800,337.400 336.800 C 337.733 336.800,338.000 336.444,338.000 336.000 C 338.000 335.556,338.267 335.200,338.600 335.200 C 338.930 335.200,339.200 334.930,339.200 334.600 C 339.200 334.267,339.556 334.000,340.000 334.000 C 340.444 334.000,340.800 333.733,340.800 333.400 C 340.800 333.070,341.070 332.800,341.400 332.800 C 341.733 332.800,342.000 332.444,342.000 332.000 C 342.000 331.556,342.267 331.200,342.600 331.200 C 342.930 331.200,343.200 330.930,343.200 330.600 C 343.200 330.270,343.400 330.000,343.644 330.000 C 344.258 330.000,345.985 328.310,345.993 327.700 C 345.997 327.425,346.270 327.200,346.600 327.200 C 346.930 327.200,347.200 326.930,347.200 326.600 C 347.200 326.270,347.451 326.000,347.757 326.000 C 348.369 326.000,348.800 325.159,348.800 323.967 C 348.800 323.545,349.070 323.200,349.400 323.200 C 349.730 323.200,350.000 322.930,350.000 322.600 C 350.000 322.270,350.270 322.000,350.600 322.000 C 350.930 322.000,351.200 321.751,351.200 321.447 C 351.200 321.142,351.560 320.799,352.000 320.684 C 352.440 320.569,352.800 320.188,352.800 319.837 C 352.800 319.487,353.070 319.200,353.400 319.200 C 353.800 319.200,354.000 318.800,354.000 318.000 C 354.000 317.200,354.200 316.800,354.600 316.800 C 354.933 316.800,355.200 316.444,355.200 316.000 C 355.200 315.467,355.467 315.200,356.000 315.200 C 356.440 315.200,356.800 314.949,356.800 314.643 C 356.800 314.336,357.070 313.982,357.400 313.855 C 357.751 313.721,358.000 313.121,358.000 312.413 C 358.000 311.601,358.199 311.200,358.600 311.200 C 358.930 311.200,359.200 310.951,359.200 310.647 C 359.200 310.342,359.560 309.999,360.000 309.884 C 360.583 309.732,360.800 309.338,360.800 308.437 C 360.800 307.604,360.996 307.200,361.400 307.200 C 361.730 307.200,362.000 306.930,362.000 306.600 C 362.000 306.270,362.270 306.000,362.600 306.000 C 363.019 306.000,363.200 305.578,363.200 304.600 C 363.200 303.467,363.352 303.200,364.000 303.200 C 364.440 303.200,364.800 302.949,364.800 302.643 C 364.800 302.336,365.070 301.982,365.400 301.855 C 365.751 301.721,366.000 301.121,366.000 300.413 C 366.000 299.601,366.199 299.200,366.600 299.200 C 366.995 299.200,367.200 298.805,367.200 298.047 C 367.200 297.230,367.433 296.832,368.000 296.684 C 368.440 296.569,368.800 296.188,368.800 295.837 C 368.800 295.487,369.070 295.200,369.400 295.200 C 369.795 295.200,370.000 294.805,370.000 294.043 C 370.000 293.383,370.258 292.787,370.600 292.655 C 370.943 292.524,371.200 291.927,371.200 291.259 C 371.200 290.430,371.431 290.033,372.000 289.884 C 372.583 289.732,372.800 289.338,372.800 288.437 C 372.800 287.604,372.996 287.200,373.400 287.200 C 373.795 287.200,374.000 286.805,374.000 286.043 C 374.000 285.383,374.258 284.787,374.600 284.655 C 374.943 284.524,375.200 283.927,375.200 283.259 C 375.200 282.430,375.431 282.033,376.000 281.884 C 376.583 281.732,376.800 281.338,376.800 280.437 C 376.800 279.604,376.996 279.200,377.400 279.200 C 377.853 279.200,378.000 278.711,378.000 277.200 C 378.000 275.689,378.147 275.200,378.600 275.200 C 378.995 275.200,379.200 274.805,379.200 274.047 C 379.200 273.230,379.433 272.832,380.000 272.684 C 380.654 272.513,380.800 272.138,380.800 270.637 C 380.800 269.271,380.954 268.800,381.400 268.800 C 381.819 268.800,382.000 268.378,382.000 267.400 C 382.000 266.422,382.181 266.000,382.600 266.000 C 383.051 266.000,383.200 265.516,383.200 264.047 C 383.200 262.430,383.338 262.057,384.000 261.884 C 384.650 261.714,384.800 261.338,384.800 259.880 C 384.800 258.654,384.990 258.013,385.400 257.855 C 385.842 257.686,386.000 256.988,386.000 255.213 C 386.000 253.335,386.133 252.800,386.600 252.800 C 387.049 252.800,387.200 252.322,387.200 250.896 C 387.200 249.426,387.382 248.879,388.000 248.493 C 388.684 248.065,388.800 247.560,388.800 244.997 C 388.800 242.600,388.920 242.000,389.400 242.000 C 389.886 242.000,390.000 241.356,390.000 238.600 C 390.000 235.844,390.114 235.200,390.600 235.200 C 391.093 235.200,391.200 234.489,391.200 231.200 C 391.200 227.467,391.253 227.200,392.000 227.200 C 392.764 227.200,392.800 226.933,392.800 221.200 C 392.800 216.133,392.893 215.200,393.400 215.200 C 394.297 215.200,394.308 183.812,393.412 183.310 C 392.944 183.049,392.800 181.787,392.712 177.191 C 392.618 172.360,392.501 171.400,392.000 171.400 C 391.513 171.400,391.379 170.627,391.286 167.300 C 391.195 164.018,391.055 163.200,390.586 163.200 C 390.120 163.200,390.000 162.544,390.000 160.000 C 390.000 157.422,389.883 156.800,389.400 156.800 C 388.924 156.800,388.800 156.226,388.800 154.033 C 388.800 150.912,388.564 150.000,387.757 150.000 C 387.355 150.000,387.200 149.443,387.200 148.000 C 387.200 146.489,387.053 146.000,386.600 146.000 C 386.128 146.000,386.000 145.444,386.000 143.400 C 386.000 141.356,385.872 140.800,385.400 140.800 C 384.954 140.800,384.800 140.329,384.800 138.963 C 384.800 137.462,384.654 137.087,384.000 136.916 C 383.338 136.743,383.200 136.370,383.200 134.753 C 383.200 133.284,383.051 132.800,382.600 132.800 C 382.181 132.800,382.000 132.378,382.000 131.400 C 382.000 130.422,381.819 130.000,381.400 130.000 C 380.954 130.000,380.800 129.529,380.800 128.163 C 380.800 126.662,380.654 126.287,380.000 126.116 C 379.431 125.967,379.200 125.570,379.200 124.741 C 379.200 124.073,378.943 123.476,378.600 123.345 C 378.196 123.190,378.000 122.555,378.000 121.400 C 378.000 120.245,377.804 119.610,377.400 119.455 C 377.070 119.329,376.800 118.753,376.800 118.175 C 376.800 117.462,376.544 117.058,376.000 116.916 C 375.399 116.759,375.200 116.370,375.200 115.353 C 375.200 114.417,375.015 114.000,374.600 114.000 C 374.199 114.000,374.000 113.599,374.000 112.787 C 374.000 112.079,373.751 111.479,373.400 111.345 C 373.070 111.218,372.800 110.667,372.800 110.120 C 372.800 109.462,372.529 109.054,372.000 108.916 C 371.399 108.759,371.200 108.370,371.200 107.353 C 371.200 106.417,371.015 106.000,370.600 106.000 C 370.205 106.000,370.000 105.605,370.000 104.843 C 370.000 104.183,369.742 103.587,369.400 103.455 C 369.070 103.329,368.800 102.949,368.800 102.613 C 368.800 102.267,368.452 102.000,368.000 102.000 C 367.352 102.000,367.200 101.733,367.200 100.600 C 367.200 99.622,367.019 99.200,366.600 99.200 C 366.200 99.200,366.000 98.800,366.000 98.000 C 366.000 97.245,365.795 96.800,365.447 96.800 C 365.142 96.800,364.799 96.440,364.684 96.000 C 364.569 95.560,364.188 95.200,363.837 95.200 C 363.396 95.200,363.200 94.831,363.200 94.000 C 363.200 93.200,363.000 92.800,362.600 92.800 C 362.267 92.800,362.000 92.444,362.000 92.000 C 362.000 91.556,361.733 91.200,361.400 91.200 C 361.021 91.200,360.800 90.818,360.800 90.163 C 360.800 89.462,360.541 89.057,360.000 88.916 C 359.560 88.801,359.200 88.452,359.200 88.141 C 359.200 87.830,358.930 87.471,358.600 87.345 C 358.258 87.213,358.000 86.617,358.000 85.957 C 358.000 85.239,357.790 84.800,357.447 84.800 C 357.142 84.800,356.794 84.422,356.674 83.960 C 356.544 83.463,356.268 83.234,356.000 83.400 C 355.732 83.566,355.456 83.337,355.326 82.840 C 355.206 82.378,354.858 82.000,354.553 82.000 C 354.233 82.000,354.000 81.588,354.000 81.021 C 354.000 80.002,352.445 78.000,351.654 78.000 C 351.404 78.000,351.200 77.730,351.200 77.400 C 351.200 77.070,350.930 76.800,350.600 76.800 C 350.267 76.800,350.000 76.444,350.000 76.000 C 350.000 75.560,349.753 75.200,349.450 75.200 C 349.148 75.200,348.792 74.660,348.660 74.000 C 348.519 73.296,348.168 72.800,347.810 72.800 C 347.475 72.800,347.200 72.549,347.200 72.243 C 347.200 71.936,346.930 71.582,346.600 71.455 C 346.270 71.329,346.000 70.949,346.000 70.613 C 346.000 70.276,345.730 70.000,345.400 70.000 C 345.070 70.000,344.800 69.730,344.800 69.400 C 344.800 69.067,344.444 68.800,344.000 68.800 C 343.548 68.800,343.200 68.533,343.200 68.187 C 343.200 67.851,342.930 67.471,342.600 67.345 C 342.270 67.218,342.000 66.864,342.000 66.557 C 342.000 66.251,341.730 66.000,341.400 66.000 C 341.070 66.000,340.800 65.730,340.800 65.400 C 340.800 65.067,340.444 64.800,340.000 64.800 C 339.548 64.800,339.200 64.533,339.200 64.187 C 339.200 63.851,338.930 63.471,338.600 63.345 C 338.270 63.218,338.000 62.864,338.000 62.557 C 338.000 62.251,337.730 62.000,337.400 62.000 C 337.070 62.000,336.800 61.730,336.800 61.400 C 336.800 61.067,336.444 60.800,336.000 60.800 C 335.548 60.800,335.200 60.533,335.200 60.187 C 335.200 59.851,334.930 59.471,334.600 59.345 C 334.270 59.218,334.000 58.864,334.000 58.557 C 334.000 58.251,333.730 58.000,333.400 58.000 C 333.070 58.000,332.800 57.730,332.800 57.400 C 332.800 57.067,332.444 56.800,332.000 56.800 C 331.471 56.800,331.200 56.533,331.200 56.013 C 331.200 55.477,331.008 55.299,330.600 55.455 C 330.184 55.615,330.000 55.428,330.000 54.843 C 330.000 54.360,329.743 54.000,329.400 54.000 C 329.070 54.000,328.800 53.730,328.800 53.400 C 328.800 53.067,328.444 52.800,328.000 52.800 C 327.556 52.800,327.200 52.533,327.200 52.200 C 327.200 51.870,327.020 51.578,326.800 51.550 C 326.580 51.523,326.220 51.455,326.000 51.400 C 325.780 51.345,325.420 51.278,325.200 51.250 C 324.980 51.223,324.800 50.930,324.800 50.600 C 324.800 50.267,324.444 50.000,324.000 50.000 C 323.556 50.000,323.200 49.733,323.200 49.400 C 323.200 49.070,322.930 48.800,322.600 48.800 C 322.267 48.800,322.000 48.444,322.000 48.000 C 322.000 47.560,321.749 47.200,321.443 47.200 C 321.136 47.200,320.782 46.930,320.655 46.600 C 320.529 46.270,320.149 46.000,319.813 46.000 C 319.476 46.000,319.200 45.730,319.200 45.400 C 319.200 45.000,318.800 44.800,318.000 44.800 C 317.169 44.800,316.800 44.604,316.800 44.163 C 316.800 43.812,316.440 43.431,316.000 43.316 C 315.560 43.201,315.200 42.858,315.200 42.553 C 315.200 42.205,314.755 42.000,314.000 42.000 C 313.200 42.000,312.800 41.800,312.800 41.400 C 312.800 41.067,312.444 40.800,312.000 40.800 C 311.467 40.800,311.200 40.533,311.200 40.000 C 311.200 39.560,310.949 39.200,310.643 39.200 C 310.336 39.200,309.982 38.930,309.855 38.600 C 309.721 38.249,309.121 38.000,308.413 38.000 C 307.601 38.000,307.200 37.801,307.200 37.400 C 307.200 37.070,306.930 36.800,306.600 36.800 C 306.270 36.800,306.000 36.549,306.000 36.243 C 306.000 35.631,305.159 35.200,303.967 35.200 C 303.545 35.200,303.200 34.930,303.200 34.600 C 303.200 34.200,302.800 34.000,302.000 34.000 C 301.200 34.000,300.800 33.800,300.800 33.400 C 300.800 33.067,300.444 32.800,300.000 32.800 C 299.550 32.800,299.200 32.533,299.200 32.190 C 299.200 31.835,298.709 31.482,298.026 31.345 C 297.380 31.216,296.755 30.860,296.638 30.555 C 296.521 30.250,295.879 30.000,295.213 30.000 C 294.401 30.000,294.000 29.801,294.000 29.400 C 294.000 28.985,293.583 28.800,292.647 28.800 C 291.630 28.800,291.241 28.601,291.084 28.000 C 290.943 27.459,290.538 27.200,289.837 27.200 C 289.182 27.200,288.800 26.979,288.800 26.600 C 288.800 26.267,288.444 26.000,288.000 26.000 C 287.556 26.000,287.200 25.733,287.200 25.400 C 287.200 24.949,286.716 24.800,285.247 24.800 C 283.630 24.800,283.257 24.662,283.084 24.000 C 282.943 23.459,282.538 23.200,281.837 23.200 C 281.182 23.200,280.800 22.979,280.800 22.600 C 280.800 22.181,280.378 22.000,279.400 22.000 C 278.422 22.000,278.000 21.819,278.000 21.400 C 278.000 20.981,277.578 20.800,276.600 20.800 C 275.670 20.800,275.200 20.613,275.200 20.243 C 275.200 19.545,274.329 19.200,272.567 19.200 C 271.619 19.200,271.200 19.016,271.200 18.600 C 271.200 18.199,270.799 18.000,269.987 18.000 C 269.279 18.000,268.679 17.751,268.545 17.400 C 268.390 16.996,267.755 16.800,266.604 16.800 C 265.230 16.800,264.852 16.643,264.684 16.000 C 264.514 15.350,264.138 15.200,262.680 15.200 C 261.454 15.200,260.813 15.010,260.655 14.600 C 260.497 14.188,259.853 14.000,258.600 14.000 C 257.347 14.000,256.703 13.812,256.545 13.400 C 256.373 12.953,255.661 12.800,253.757 12.800 C 251.517 12.800,251.200 12.706,251.200 12.044 C 251.200 11.629,250.975 11.297,250.700 11.307 C 247.807 11.415,246.000 11.143,246.000 10.600 C 246.000 10.128,245.443 10.000,243.387 10.000 C 241.434 10.000,240.717 9.849,240.545 9.400 C 240.363 8.926,239.533 8.800,236.604 8.800 C 233.193 8.800,232.876 8.733,232.678 7.975 C 232.559 7.522,232.223 7.183,231.931 7.223 C 229.339 7.574,223.200 7.136,223.200 6.600 C 223.200 6.074,220.356 6.000,200.000 6.000 C 179.644 6.000,176.800 6.074,176.800 6.600 M297.704 105.600 C 298.525 106.040,299.473 106.400,299.811 106.400 C 300.149 106.400,300.529 106.670,300.655 107.000 C 300.782 107.330,301.118 107.600,301.401 107.600 C 302.055 107.600,304.400 110.244,304.400 110.981 C 304.400 111.285,304.594 111.598,304.831 111.677 C 306.793 112.331,306.773 111.641,306.787 177.691 L 306.800 239.182 305.867 239.793 C 304.568 240.644,109.172 240.532,108.320 239.680 C 107.618 238.978,107.544 116.046,108.245 115.161 C 108.490 114.853,108.815 114.078,108.967 113.440 C 109.322 111.961,112.658 107.600,113.436 107.600 C 113.760 107.600,114.129 107.330,114.255 107.000 C 114.382 106.670,114.664 106.400,114.882 106.400 C 115.101 106.400,115.846 106.146,116.540 105.836 C 117.233 105.526,118.070 105.180,118.400 105.067 C 120.625 104.310,296.271 104.832,297.704 105.600 M126.800 171.767 C 126.800 198.479,126.909 220.619,127.043 220.967 C 127.263 221.541,134.719 221.600,207.443 221.600 L 287.600 221.600 287.600 172.400 L 287.600 123.200 207.200 123.200 L 126.800 123.200 126.800 171.767 M195.364 131.631 C 195.939 132.314,196.400 133.360,196.400 133.982 C 196.400 134.598,196.652 135.311,196.961 135.567 C 197.269 135.823,197.634 136.480,197.771 137.027 C 198.378 139.446,202.745 141.477,204.769 140.282 C 205.404 139.907,206.241 139.600,206.630 139.600 C 207.019 139.600,207.626 139.339,207.979 139.019 C 210.023 137.169,211.767 137.677,215.338 141.163 L 218.682 144.426 218.066 146.313 C 217.727 147.351,217.169 148.410,216.825 148.668 C 214.803 150.180,216.614 158.400,218.969 158.400 C 219.262 158.400,219.707 158.647,219.957 158.948 C 220.207 159.250,221.097 159.588,221.934 159.700 C 226.595 160.326,227.565 172.400,222.954 172.400 C 222.455 172.400,221.939 172.575,221.807 172.789 C 221.674 173.003,220.890 173.360,220.064 173.583 C 217.164 174.364,216.199 175.935,216.206 179.864 C 216.211 182.513,216.354 183.377,216.848 183.738 C 217.198 183.994,217.622 184.652,217.791 185.202 C 217.960 185.751,218.281 186.428,218.504 186.708 C 218.790 187.064,218.716 187.430,218.255 187.939 C 217.895 188.337,217.600 188.756,217.600 188.871 C 217.600 189.196,213.114 193.600,212.782 193.600 C 212.619 193.600,212.382 193.870,212.255 194.200 C 211.964 194.960,210.437 194.954,209.424 194.187 C 208.996 193.864,208.344 193.600,207.973 193.600 C 207.602 193.600,207.074 193.330,206.800 193.000 C 205.141 191.002,197.600 193.219,197.600 195.705 C 197.600 196.033,197.330 196.526,197.000 196.800 C 196.670 197.074,196.397 197.861,196.393 198.549 C 196.379 201.048,195.163 201.600,189.666 201.600 C 184.355 201.600,183.600 201.247,183.600 198.760 C 183.600 198.176,183.330 197.474,183.000 197.200 C 182.670 196.926,182.400 196.417,182.400 196.068 C 182.400 192.702,176.135 191.252,171.736 193.600 C 168.738 195.200,168.814 195.220,165.496 191.900 C 160.991 187.391,161.078 187.525,161.790 186.160 C 162.123 185.522,162.396 184.784,162.398 184.520 C 162.399 184.256,162.704 183.869,163.076 183.661 C 163.624 183.355,163.757 182.645,163.776 179.913 L 163.800 176.543 162.200 175.073 C 161.320 174.265,160.330 173.597,160.000 173.589 C 159.670 173.581,159.051 173.310,158.624 172.987 C 158.196 172.664,157.354 172.400,156.752 172.400 C 154.685 172.400,154.400 171.644,154.400 166.159 C 154.400 161.777,154.485 161.144,155.100 160.917 C 155.485 160.775,155.905 160.504,156.032 160.315 C 156.160 160.126,156.970 159.861,157.832 159.725 C 158.695 159.590,159.544 159.236,159.720 158.939 C 159.896 158.643,160.346 158.400,160.721 158.400 C 163.250 158.400,165.100 151.237,163.167 148.930 C 160.781 146.084,161.076 144.648,164.792 141.033 L 167.983 137.927 169.692 138.207 C 170.631 138.361,171.670 138.717,172.000 138.999 C 172.330 139.281,173.183 139.635,173.895 139.786 C 174.608 139.938,175.294 140.228,175.419 140.431 C 175.768 140.996,177.705 140.846,178.576 140.187 C 179.004 139.864,179.597 139.600,179.896 139.600 C 180.607 139.600,182.371 137.582,182.387 136.749 C 182.394 136.391,182.670 135.874,183.000 135.600 C 183.330 135.326,183.600 134.502,183.600 133.769 C 183.600 131.114,184.953 130.400,189.983 130.400 L 194.329 130.400 195.364 131.631 M186.719 154.948 C 184.922 155.380,180.465 158.508,180.419 159.369 C 180.409 159.571,180.154 160.021,179.854 160.369 C 178.970 161.390,177.889 165.435,178.115 166.875 C 178.498 169.320,179.325 171.797,179.865 172.120 C 180.159 172.296,180.400 172.656,180.400 172.921 C 180.400 174.548,187.249 178.415,190.078 178.386 C 190.805 178.379,192.120 178.025,193.000 177.600 C 193.880 177.175,194.915 176.821,195.300 176.814 C 195.685 176.806,196.000 176.623,196.000 176.408 C 196.000 176.192,196.444 175.904,196.986 175.768 C 197.528 175.632,198.075 175.195,198.201 174.797 C 198.327 174.399,198.694 173.973,199.015 173.850 C 199.337 173.726,199.600 173.371,199.600 173.062 C 199.600 172.752,199.851 172.290,200.157 172.035 C 201.785 170.685,201.768 161.701,200.135 160.346 C 199.841 160.102,199.600 159.654,199.600 159.351 C 199.600 159.048,199.454 158.800,199.276 158.800 C 199.098 158.800,198.423 158.299,197.776 157.686 C 195.850 155.860,194.610 155.251,191.936 154.818 C 189.047 154.349,189.226 154.344,186.719 154.948 M240.665 177.390 C 241.128 177.715,241.623 178.595,241.763 179.346 C 242.129 181.295,243.525 181.810,246.415 181.061 C 250.887 179.903,254.148 184.066,251.758 187.882 C 250.963 189.150,252.310 191.402,254.073 191.755 C 256.145 192.169,256.400 192.619,256.400 195.862 C 256.400 198.316,256.280 198.871,255.700 199.090 C 255.315 199.236,254.762 199.590,254.471 199.878 C 254.181 200.165,253.641 200.404,253.271 200.410 C 252.178 200.426,251.035 203.093,251.796 203.853 C 252.128 204.185,252.400 204.880,252.400 205.396 C 252.400 205.912,252.507 206.613,252.638 206.954 C 253.349 208.807,248.255 211.882,246.576 210.613 C 244.789 209.261,241.600 210.473,241.600 212.503 C 241.600 216.350,234.736 216.151,233.150 212.258 C 232.230 209.999,230.730 209.458,228.546 210.598 C 224.988 212.453,219.895 206.522,223.014 204.156 C 224.158 203.289,222.991 200.400,221.497 200.400 C 221.181 200.400,220.507 200.040,220.000 199.600 C 219.493 199.160,218.925 198.800,218.739 198.800 C 218.552 198.800,218.400 197.553,218.400 196.029 C 218.400 193.155,219.351 191.600,221.108 191.600 C 222.863 191.600,224.010 188.997,222.961 187.396 C 220.623 183.829,223.971 179.938,228.402 181.072 C 230.672 181.653,232.800 181.252,232.800 180.244 C 232.800 177.471,238.057 175.564,240.665 177.390 M234.809 190.721 C 233.005 191.956,232.414 192.771,232.157 194.376 C 231.816 196.512,232.303 199.600,232.982 199.600 C 233.275 199.600,233.607 199.842,233.721 200.138 C 234.634 202.517,242.400 201.185,242.400 198.649 C 242.400 198.346,242.670 197.874,243.000 197.600 C 243.330 197.326,243.600 196.516,243.600 195.800 C 243.600 195.084,243.330 194.274,243.000 194.000 C 242.670 193.726,242.400 193.285,242.400 193.021 C 242.400 192.493,241.107 191.283,239.705 190.500 C 238.456 189.802,235.988 189.913,234.809 190.721 M307.123 248.334 C 307.589 248.737,308.159 249.502,308.391 250.034 C 308.622 250.565,309.170 251.540,309.607 252.200 C 310.044 252.860,310.669 253.973,310.995 254.673 C 311.321 255.373,311.771 256.058,311.994 256.196 C 312.217 256.334,312.400 256.788,312.400 257.204 C 312.400 257.620,312.629 258.104,312.908 258.280 C 313.188 258.456,313.635 259.050,313.901 259.600 C 314.168 260.150,315.019 261.680,315.792 263.000 C 316.566 264.320,317.420 265.850,317.691 266.400 C 317.962 266.950,318.311 267.494,318.467 267.608 C 318.623 267.723,318.944 268.263,319.181 268.808 C 319.418 269.354,319.955 270.340,320.374 271.000 C 320.794 271.660,321.644 273.190,322.264 274.400 C 322.884 275.610,323.619 276.744,323.896 276.920 C 324.173 277.096,324.400 277.436,324.400 277.676 C 324.400 277.915,324.949 279.003,325.619 280.093 C 326.952 282.259,327.706 284.912,327.697 287.400 C 327.689 289.621,326.902 293.366,326.409 293.530 C 326.184 293.605,326.000 293.910,326.000 294.208 C 326.000 295.170,322.699 298.409,320.689 299.418 L 318.734 300.400 207.264 300.400 L 95.793 300.400 93.293 298.766 C 91.917 297.867,90.587 296.742,90.336 296.266 C 90.085 295.790,89.763 295.310,89.619 295.200 C 88.594 294.415,87.600 291.893,87.600 290.076 C 87.600 288.960,87.404 287.926,87.165 287.778 C 86.852 287.585,86.852 287.388,87.165 287.075 C 87.404 286.836,87.600 285.872,87.600 284.932 C 87.600 283.405,88.849 280.156,89.653 279.592 C 89.816 279.477,90.142 278.937,90.378 278.392 C 90.613 277.846,91.437 276.320,92.210 275.000 C 92.982 273.680,93.832 272.150,94.099 271.600 C 94.365 271.050,94.812 270.456,95.092 270.280 C 95.371 270.104,95.600 269.620,95.600 269.204 C 95.600 268.788,95.783 268.334,96.006 268.196 C 96.229 268.058,96.679 267.373,97.005 266.673 C 97.331 265.973,97.958 264.860,98.398 264.200 C 98.838 263.540,99.396 262.505,99.638 261.900 C 99.880 261.295,100.241 260.800,100.439 260.800 C 100.638 260.800,100.800 260.554,100.800 260.254 C 100.800 259.954,101.160 259.250,101.600 258.691 C 102.040 258.131,102.400 257.382,102.400 257.024 C 102.400 256.667,102.670 256.271,103.000 256.145 C 103.330 256.018,103.600 255.587,103.600 255.186 C 103.600 254.785,103.846 254.211,104.147 253.910 C 104.448 253.609,104.820 252.966,104.974 252.481 C 105.128 251.997,105.422 251.600,105.627 251.600 C 105.832 251.600,106.000 251.385,106.000 251.122 C 106.000 250.858,106.474 249.958,107.054 249.122 L 108.109 247.600 207.193 247.600 C 302.715 247.600,306.308 247.626,307.123 248.334 M189.046 269.386 C 188.691 269.928,188.400 270.794,188.400 271.309 C 188.400 271.825,188.136 272.596,187.813 273.024 C 187.490 273.451,187.220 274.125,187.213 274.522 C 187.206 274.919,186.829 276.058,186.376 277.052 C 185.923 278.046,185.608 279.342,185.676 279.930 L 185.800 281.000 207.577 281.103 C 230.456 281.212,230.379 281.218,229.414 279.368 C 229.079 278.726,228.798 277.840,228.790 277.400 C 228.781 276.960,228.510 276.251,228.187 275.824 C 227.864 275.396,227.600 274.529,227.600 273.895 C 227.600 273.261,227.355 272.498,227.055 272.198 C 226.756 271.899,226.394 270.922,226.251 270.027 L 225.991 268.400 207.841 268.400 L 189.692 268.400 189.046 269.386 " stroke="none" fill="#4c6cbc" fill-rule="evenodd"></path></g></svg>